<svg width="53" height="53" viewBox="0 0 53 53" fill="none" xmlns="http://www.w3.org/2000/svg">
<g id="current">
<g id="Ellipse 3" filter="url(#filter0_d_46_18)">
<circle cx="26.5" cy="22.5" r="22.5" fill="white"/>
</g>
<path id="&#8;point" d="M25.5742 33.5506C23.5352 31.0363 19 24.9424 19 21.5195C19 17.3665 22.3578 14 26.5 14C30.6406 14 34 17.3665 34 21.5195C34 24.9424 29.4297 31.0363 27.4258 33.5506C26.9453 34.1498 26.0547 34.1498 25.5742 33.5506V33.5506ZM26.5 24.0259C27.8789 24.0259 29 22.9019 29 21.5195C29 20.137 27.8789 19.013 26.5 19.013C25.1211 19.013 24 20.137 24 21.5195C24 22.9019 25.1211 24.0259 26.5 24.0259Z" fill="#FC3D3D"/>
</g>
<defs>
<filter id="filter0_d_46_18" x="0" y="0" width="53" height="53" filterUnits="userSpaceOnUse" color-interpolation-filters="sRGB">
<feFlood flood-opacity="0" result="BackgroundImageFix"/>
<feColorMatrix in="SourceAlpha" type="matrix" values="0 0 0 0 0 0 0 0 0 0 0 0 0 0 0 0 0 0 127 0" result="hardAlpha"/>
<feOffset dy="4"/>
<feGaussianBlur stdDeviation="2"/>
<feComposite in2="hardAlpha" operator="out"/>
<feColorMatrix type="matrix" values="0 0 0 0 0 0 0 0 0 0 0 0 0 0 0 0 0 0 0.25 0"/>
<feBlend mode="normal" in2="BackgroundImageFix" result="effect1_dropShadow_46_18"/>
<feBlend mode="normal" in="SourceGraphic" in2="effect1_dropShadow_46_18" result="shape"/>
</filter>
</defs>
</svg>
