<svg width="53" height="53" viewBox="0 0 53 53" fill="none" xmlns="http://www.w3.org/2000/svg">
<g id="&#8;mart">
<g id="Ellipse 3" filter="url(#filter0_d_46_19)">
<circle cx="26.5" cy="22.5" r="22.5" fill="white"/>
</g>
<g id="Business / Shop_Cart / 24px / Contour">
<g id="Union">
<path fill-rule="evenodd" clip-rule="evenodd" d="M17 14C16.4477 14 16 14.4477 16 15C16 15.5523 16.4477 16 17 16H17.8594C18.3638 16 18.7892 16.3755 18.8517 16.876L20.1637 27.3721C20.3514 28.8734 21.6276 30 23.1406 30H32C32.5523 30 33 29.5523 33 29C33 28.4477 32.5523 28 32 28H23.1406C22.6362 28 22.2108 27.6245 22.1483 27.124L22.1328 27H32.2344C33.7474 27 35.0236 25.8734 35.2113 24.3721L35.7113 20.3721C35.9351 18.5815 34.5389 17 32.7344 17H20.8828L20.8363 16.6279C20.6486 15.1266 19.3724 14 17.8594 14H17ZM21.1328 19L21.8828 25H32.2344C32.7388 25 33.1642 24.6245 33.2267 24.124L33.7267 20.124C33.8013 19.5272 33.3359 19 32.7344 19H21.1328Z" fill="#FFA800"/>
<path d="M25 32.5C25 33.3284 24.3284 34 23.5 34C22.6716 34 22 33.3284 22 32.5C22 31.6716 22.6716 31 23.5 31C24.3284 31 25 31.6716 25 32.5Z" fill="#FFA800"/>
<path d="M30.5 34C31.3284 34 32 33.3284 32 32.5C32 31.6716 31.3284 31 30.5 31C29.6716 31 29 31.6716 29 32.5C29 33.3284 29.6716 34 30.5 34Z" fill="#FFA800"/>
</g>
</g>
</g>
<defs>
<filter id="filter0_d_46_19" x="0" y="0" width="53" height="53" filterUnits="userSpaceOnUse" color-interpolation-filters="sRGB">
<feFlood flood-opacity="0" result="BackgroundImageFix"/>
<feColorMatrix in="SourceAlpha" type="matrix" values="0 0 0 0 0 0 0 0 0 0 0 0 0 0 0 0 0 0 127 0" result="hardAlpha"/>
<feOffset dy="4"/>
<feGaussianBlur stdDeviation="2"/>
<feComposite in2="hardAlpha" operator="out"/>
<feColorMatrix type="matrix" values="0 0 0 0 0 0 0 0 0 0 0 0 0 0 0 0 0 0 0.25 0"/>
<feBlend mode="normal" in2="BackgroundImageFix" result="effect1_dropShadow_46_19"/>
<feBlend mode="normal" in="SourceGraphic" in2="effect1_dropShadow_46_19" result="shape"/>
</filter>
</defs>
</svg>
