<svg xmlns="http://www.w3.org/2000/svg" viewBox="0 0 459.938 95.68">
  <path d="M54.47 2.145c3.292 1.43 6.89 3.532 10.79 6.305 1.125.868 1.993 1.3 2.6 1.3 1.646 0 2.73-2.643 3.25-7.93h2.99c-.348 5.635-.52 15.6-.52 29.9h-2.99c-.78-4.592-1.604-8.385-2.47-11.375-.868-2.99-2.21-5.61-4.03-7.865-2.515-3.12-5.785-5.59-9.815-7.41A30.455 30.455 0 0041.6 2.34c-5.72 0-10.748 1.865-15.08 5.59-4.335 3.728-7.67 9.035-10.01 15.925C14.17 30.745 13 38.785 13 47.97c0 15.6 2.49 27.02 7.475 34.255C25.458 89.462 33.28 93.08 43.94 93.08c5.2 0 9.706-1.343 13.52-4.03 1.56-1.04 2.578-2.058 3.055-3.055.475-.995.715-2.36.715-4.095V69.42c0-3.64-.347-6.283-1.04-7.93-.695-1.645-1.907-2.772-3.64-3.38-1.734-.605-4.55-.995-8.45-1.17v-2.6c4.505.26 10.615.39 18.33.39 5.893 0 10.4-.13 13.52-.39v2.6c-1.995.175-3.445.52-4.355 1.04-.91.52-1.518 1.517-1.82 2.99-.305 1.475-.455 3.857-.455 7.15v25.74h-2.6a16.442 16.442 0 00-1.04-5.005c-.607-1.603-1.43-2.405-2.47-2.405-.52 0-1.04.13-1.56.39s-1.43.867-2.73 1.82c-3.035 2.34-6.175 4.095-9.425 5.265s-6.87 1.755-10.855 1.755c-8.928 0-16.575-1.84-22.945-5.525-6.37-3.683-11.245-8.99-14.625-15.925C1.69 67.297 0 59.02 0 49.4c0-9.88 1.798-18.568 5.395-26.065 3.595-7.496 8.558-13.26 14.885-17.29C26.605 2.015 33.8 0 41.86 0c5.113 0 9.315.715 12.61 2.145zM193.243 5.59c6.195 3.728 11.005 9.123 14.43 16.185 3.423 7.064 5.136 15.492 5.136 25.285 0 9.535-1.756 17.984-5.266 25.35-3.51 7.368-8.407 13.087-14.689 17.16-6.285 4.075-13.413 6.11-21.386 6.11-8.234 0-15.449-1.862-21.645-5.59-6.197-3.725-11.007-9.12-14.43-16.185-3.425-7.063-5.135-15.49-5.135-25.285 0-9.532 1.755-17.982 5.265-25.35 3.51-7.365 8.406-13.085 14.69-17.16C156.496 2.037 163.624 0 171.599 0c8.232 0 15.447 1.865 21.644 5.59zm-36.79 2.535c-4.205 3.857-7.455 9.252-9.75 16.185-2.297 6.935-3.445 14.864-3.445 23.79 0 9.015 1.277 16.944 3.835 23.79 2.555 6.848 6 12.135 10.335 15.86 4.333 3.727 9.185 5.59 14.56 5.59 5.545 0 10.42-1.928 14.625-5.785 4.202-3.855 7.452-9.25 9.75-16.185 2.295-6.933 3.445-14.862 3.445-23.79 0-9.013-1.28-16.943-3.835-23.79-2.558-6.846-6.003-12.133-10.336-15.86-4.334-3.725-9.187-5.59-14.56-5.59-5.546 0-10.421 1.93-14.624 5.785zM296.269 4.42c-3.12.175-5.396.52-6.825 1.04s-2.405 1.517-2.925 2.99c-.521 1.475-.78 3.857-.78 7.15v64.48c0 3.294.26 5.677.78 7.15.52 1.475 1.495 2.45 2.925 2.925 1.43.478 3.705.715 6.825.715h9.489c5.373 0 9.468-.757 12.285-2.275 2.815-1.515 4.875-3.965 6.175-7.345 1.301-3.38 2.253-8.275 2.86-14.69h2.99c-.26 2.687-.391 6.24-.391 10.66 0 4.94.303 10.487.91 16.64-5.895-.26-15.817-.39-29.77-.39-16.641 0-29.207.13-37.7.39v-2.6c3.12-.172 5.396-.52 6.825-1.04s2.405-1.515 2.925-2.99c.521-1.473.78-3.855.78-7.15V15.6c0-3.293-.26-5.676-.78-7.15-.52-1.473-1.495-2.47-2.925-2.99s-3.705-.865-6.825-1.04v-2.6c3.64.26 9.186.39 16.64.39 6.933 0 12.436-.13 16.511-.39v2.6zM448.499 13.325c7.625 7.67 11.439 18.83 11.439 33.475 0 9.447-1.864 17.725-5.59 24.83-3.728 7.107-9.122 12.59-16.185 16.445-7.065 3.857-15.493 5.785-25.285 5.785l-7.54-.13c-4.854-.173-8.407-.26-10.66-.26-7.107 0-12.48.13-16.12.39v-2.6c3.12-.172 5.396-.52 6.825-1.04s2.405-1.515 2.925-2.99c.521-1.473.78-3.855.78-7.15V15.6c0-3.293-.26-5.676-.78-7.15-.52-1.473-1.495-2.47-2.925-2.99s-3.705-.865-6.825-1.04v-2.6c3.032.26 7.235.39 12.61.39l11.05-.13c5.893-.173 9.835-.26 11.83-.26 15.341 0 26.823 3.835 34.451 11.505zM404.754 5.07c-1.345.607-2.275 1.69-2.795 3.25-.521 1.56-.78 3.9-.78 7.02v65c0 3.12.26 5.46.78 7.02.52 1.56 1.45 2.645 2.795 3.25 1.343.607 3.4.91 6.175.91 9.186 0 16.423-1.668 21.71-5.005 5.285-3.335 8.99-8.21 11.115-14.625 2.122-6.413 3.185-14.603 3.185-24.57 0-9.965-1.17-18.09-3.51-24.375-2.34-6.283-6.133-10.985-11.375-14.105-5.245-3.12-12.33-4.68-21.255-4.68-2.688 0-4.702.304-6.045.91z"></path>
</svg>