<svg xmlns="http://www.w3.org/2000/svg" viewBox="0 0 451.896 46.368">
  <path d="M39.564 2.142c-1.471.085-2.563.305-3.276.662-.715.357-1.197.945-1.449 1.764s-.378 2.027-.378 3.623v37.611h-1.449L6.552 4.914v33.264c0 1.638.136 2.857.409 3.654.273.798.808 1.376 1.606 1.732.797.357 2.037.578 3.717.662v1.26c-1.512-.126-3.654-.189-6.426-.189-2.52 0-4.473.063-5.859.189v-1.26c1.47-.084 2.562-.304 3.276-.662.714-.356 1.197-.945 1.449-1.764s.378-2.026.378-3.623V7.56c0-1.596-.126-2.75-.378-3.465C4.473 3.381 4 2.898 3.308 2.646S1.512 2.227 0 2.142V.882c1.386.126 3.339.189 5.859.189 1.89 0 3.528-.063 4.914-.189l22.239 34.272V8.19c0-1.638-.137-2.856-.41-3.654-.274-.797-.809-1.375-1.606-1.732-.798-.356-2.038-.577-3.717-.662V.882c1.512.126 3.654.189 6.426.189 2.52 0 4.473-.063 5.859-.189v1.26zM96.074 45.486c-2.856-.126-7.665-.189-14.427-.189-8.064 0-14.154.063-18.27.189v-1.26c1.512-.084 2.615-.252 3.308-.504s1.166-.734 1.417-1.449c.252-.714.378-1.869.378-3.465V7.56c0-1.596-.126-2.75-.378-3.465-.252-.713-.725-1.197-1.417-1.449s-1.795-.419-3.308-.504V.882c4.116.126 10.206.189 18.27.189 6.174 0 10.563-.063 13.167-.189-.294 2.772-.441 5.25-.441 7.434 0 1.638.063 2.94.189 3.906h-1.449c-.294-2.729-.672-4.756-1.134-6.079-.463-1.323-1.239-2.289-2.331-2.898-1.093-.608-2.751-.913-4.977-.913h-5.229c-1.512 0-2.614.116-3.308.346-.693.231-1.166.704-1.417 1.417-.252.715-.378 1.87-.378 3.465v14.868h4.158c1.47 0 2.604-.346 3.402-1.04.797-.693 1.333-1.512 1.606-2.457.273-.945.493-2.131.662-3.559l.189-1.26h1.449a83.8 83.8 0 00-.189 5.922v3.024c0 2.142.126 5.125.378 8.946h-1.449c-.042-.293-.168-1.312-.378-3.056-.21-1.742-.788-3.055-1.732-3.938-.945-.882-2.258-1.323-3.938-1.323h-4.158v15.12c0 1.597.126 2.751.378 3.465s.725 1.187 1.417 1.417c.693.231 1.796.346 3.308.346h4.599c2.604 0 4.588-.346 5.954-1.039 1.364-.693 2.362-1.806 2.992-3.339.63-1.533 1.092-3.79 1.386-6.772h1.449c-.126 1.134-.189 2.646-.189 4.536 0 2.395.147 5.083.441 8.065zM147.797 1.071c1.764.715 3.486 1.723 5.166 3.024.462.378.86.567 1.197.567.839 0 1.386-1.26 1.638-3.78h1.449c-.168 2.73-.252 7.56-.252 14.49h-1.449c-.462-2.73-.882-4.694-1.26-5.891s-1.008-2.341-1.89-3.434c-1.26-1.638-2.866-2.867-4.819-3.686s-4.063-1.229-6.332-1.229c-2.731 0-5.114.904-7.15 2.709-2.038 1.806-3.623 4.378-4.757 7.718-1.134 3.339-1.701 7.256-1.701 11.75 0 4.578.608 8.505 1.827 11.781 1.218 3.276 2.908 5.765 5.072 7.465 2.163 1.701 4.609 2.552 7.339 2.552 2.1 0 4.136-.399 6.111-1.197 1.974-.797 3.528-1.994 4.662-3.591a12.094 12.094 0 001.827-3.78c.378-1.344.734-3.402 1.071-6.174h1.449c0 7.225.083 12.265.252 15.12h-1.449c-.126-1.344-.305-2.299-.535-2.867-.231-.567-.557-.85-.977-.85-.337 0-.778.168-1.323.504-1.89 1.345-3.696 2.362-5.418 3.055-1.723.693-3.802 1.04-6.237 1.04-3.991 0-7.487-.902-10.49-2.709-3.003-1.805-5.334-4.42-6.993-7.843-1.66-3.423-2.489-7.507-2.489-12.253 0-4.62.851-8.715 2.552-12.285 1.701-3.569 4.073-6.341 7.119-8.316C134.052.987 137.506 0 141.371 0c2.52 0 4.662.357 6.426 1.071zM218.262 42.872c.86.609 1.922 1.061 3.182 1.354v1.26c-2.017-.126-4.536-.189-7.561-.189-2.268 0-4.432.063-6.488.189v-1.26c1.008-.042 1.742-.167 2.205-.378.461-.209.692-.524.692-.945 0-.419-.21-.923-.63-1.512l-9.198-13.86c-1.219-1.848-2.247-3.056-3.087-3.623-.841-.567-2.016-.892-3.527-.977v15.876c0 1.597.126 2.751.378 3.465s.725 1.197 1.417 1.449c.693.252 1.796.42 3.308.504v1.26c-1.933-.126-4.599-.189-8.001-.189-3.612 0-6.3.063-8.063.189v-1.26c1.512-.084 2.614-.252 3.307-.504.693-.252 1.166-.734 1.418-1.449.252-.714.378-1.869.378-3.465V7.56c0-1.596-.126-2.75-.378-3.465-.252-.713-.725-1.197-1.418-1.449-.692-.252-1.795-.419-3.307-.504V.882c1.764.126 4.451.189 8.063.189 3.359 0 6.026-.063 8.001-.189v1.26c-1.512.085-2.614.252-3.308.504-.692.252-1.165.735-1.417 1.449-.252.715-.378 1.87-.378 3.465v14.112c3.065-.126 5.459-1.301 7.182-3.528l6.048-7.686c2.143-2.646 3.213-4.662 3.213-6.048 0-1.47-1.302-2.226-3.906-2.268V.882c2.395.126 4.81.189 7.245.189 2.31 0 4.096-.063 5.355-.189v1.26a11.258 11.258 0 00-3.906 1.355c-1.219.693-2.394 1.774-3.528 3.244l-10.269 13.167L215.9 40.383c.713 1.05 1.5 1.88 2.362 2.489zM259.117 2.142c-1.512.085-2.614.252-3.308.504-.692.252-1.165.735-1.417 1.449-.252.715-.378 1.87-.378 3.465v31.248c0 1.597.126 2.751.378 3.465s.725 1.187 1.417 1.417c.693.231 1.796.346 3.308.346h4.599c2.604 0 4.589-.367 5.954-1.102 1.364-.734 2.362-1.922 2.992-3.56.63-1.638 1.092-4.011 1.386-7.119h1.449c-.126 1.302-.188 3.024-.188 5.166 0 2.394.146 5.083.44 8.064-2.856-.126-7.665-.189-14.427-.189-8.064 0-14.154.063-18.27.189v-1.26c1.512-.084 2.614-.252 3.307-.504.693-.252 1.166-.734 1.418-1.449.252-.714.378-1.869.378-3.465V7.56c0-1.596-.126-2.75-.378-3.465-.252-.713-.725-1.197-1.418-1.449-.692-.252-1.795-.419-3.307-.504V.882c1.764.126 4.451.189 8.063.189 3.359 0 6.026-.063 8.001-.189v1.26zM336.419 44.226v1.26c-1.681-.126-3.928-.189-6.741-.189-3.613 0-6.3.063-8.064.189v-1.26c1.596-.084 2.741-.284 3.434-.599.693-.315 1.04-.892 1.04-1.732 0-.714-.252-1.701-.756-2.961l-3.844-10.332h-15.246l-2.583 6.678c-.84 2.268-1.26 3.991-1.26 5.166 0 1.302.451 2.248 1.354 2.835.902.589 2.278.904 4.127.945v1.26c-2.395-.126-4.81-.189-7.245-.189-1.891 0-3.465.063-4.726.189v-1.26c2.1-.504 3.759-2.331 4.978-5.481L315.692.567h1.008l15.372 39.627c1.007 2.604 2.456 3.948 4.347 4.032zm-15.436-16.884l-7.056-18.837-7.183 18.837h14.239zM384.108 1.071c1.765.715 3.486 1.723 5.166 3.024.462.378.86.567 1.197.567.84 0 1.386-1.26 1.638-3.78h1.449c-.168 2.73-.252 7.56-.252 14.49h-1.449c-.463-2.73-.882-4.694-1.26-5.891s-1.008-2.341-1.89-3.434c-1.261-1.638-2.867-2.867-4.82-3.686-1.952-.819-4.063-1.229-6.331-1.229-2.73 0-5.114.904-7.15 2.709-2.038 1.806-3.623 4.378-4.757 7.718-1.134 3.339-1.701 7.256-1.701 11.75 0 4.578.608 8.505 1.827 11.781 1.218 3.276 2.908 5.765 5.071 7.465 2.163 1.701 4.609 2.552 7.34 2.552 2.1 0 4.137-.399 6.111-1.197 1.974-.797 3.527-1.994 4.662-3.591a12.113 12.113 0 001.826-3.78c.379-1.344.734-3.402 1.071-6.174h1.449c0 7.225.084 12.265.252 15.12h-1.449c-.126-1.344-.305-2.299-.535-2.867-.231-.567-.558-.85-.977-.85-.337 0-.777.168-1.323.504-1.89 1.345-3.696 2.362-5.418 3.055-1.723.693-3.802 1.04-6.237 1.04-3.99 0-7.486-.902-10.489-2.709-3.003-1.805-5.334-4.42-6.993-7.843-1.659-3.423-2.488-7.507-2.488-12.253 0-4.62.851-8.715 2.552-12.285 1.701-3.569 4.073-6.341 7.119-8.316C370.363.987 373.818 0 377.683 0c2.519 0 4.662.357 6.425 1.071zM451.896 45.486c-2.856-.126-7.665-.189-14.427-.189-8.064 0-14.154.063-18.27.189v-1.26c1.512-.084 2.614-.252 3.307-.504.693-.252 1.166-.734 1.418-1.449.252-.714.378-1.869.378-3.465V7.56c0-1.596-.126-2.75-.378-3.465-.252-.713-.725-1.197-1.418-1.449-.692-.252-1.795-.419-3.307-.504V.882c4.115.126 10.205.189 18.27.189 6.174 0 10.563-.063 13.167-.189-.294 2.772-.441 5.25-.441 7.434 0 1.638.063 2.94.189 3.906h-1.449c-.294-2.729-.672-4.756-1.134-6.079-.463-1.323-1.239-2.289-2.331-2.898-1.093-.608-2.751-.913-4.977-.913h-5.229c-1.512 0-2.614.116-3.308.346-.692.231-1.165.704-1.417 1.417-.252.715-.378 1.87-.378 3.465v14.868h4.157c1.47 0 2.604-.346 3.402-1.04.798-.693 1.333-1.512 1.606-2.457.272-.945.493-2.131.661-3.559l.189-1.26h1.449a83.8 83.8 0 00-.189 5.922v3.024c0 2.142.126 5.125.378 8.946h-1.448c-.043-.293-.169-1.312-.379-3.056-.21-1.742-.787-3.055-1.732-3.938-.944-.882-2.258-1.323-3.938-1.323h-4.157v15.12c0 1.597.126 2.751.378 3.465s.725 1.187 1.417 1.417c.693.231 1.796.346 3.308.346h4.599c2.604 0 4.589-.346 5.954-1.039 1.364-.693 2.362-1.806 2.992-3.339.63-1.533 1.092-3.79 1.386-6.772h1.449c-.126 1.134-.188 2.646-.188 4.536 0 2.395.147 5.083.441 8.065z"></path>
</svg>