<svg xmlns="http://www.w3.org/2000/svg" viewBox="0 0 216 89">
  <path fill="#B7B7B7" d="M216 89H0V0h216v89zM1 88h214V1H1v87z"></path>
  <path d="M54.525 46.215h-4.196l-.952 2.596h-.819l3.498-9.242h.743l3.498 9.242h-.813l-.959-2.596zm-3.955-.66h3.707l-1.854-5.034-1.853 5.034zM61.554 48.811v-9.242h2.583c.757 0 1.437.173 2.038.518s1.069.839 1.406 1.482c.336.643.504 1.375.504 2.195v.852c0 .824-.167 1.557-.501 2.195a3.555 3.555 0 01-1.412 1.479c-.607.347-1.305.521-2.092.521h-2.526zm.781-8.582v7.922h1.752c.973 0 1.754-.323 2.342-.969s.882-1.52.882-2.62v-.813c0-1.063-.29-1.914-.87-2.554s-1.344-.962-2.292-.966h-1.814zM73.966 48.811v-9.242h2.583c.757 0 1.437.173 2.038.518s1.069.839 1.406 1.482c.336.643.504 1.375.504 2.195v.852c0 .824-.167 1.557-.501 2.195a3.555 3.555 0 01-1.412 1.479c-.607.347-1.305.521-2.092.521h-2.526zm.781-8.582v7.922h1.752c.973 0 1.754-.323 2.342-.969s.882-1.52.882-2.62v-.813c0-1.063-.29-1.914-.87-2.554s-1.344-.962-2.292-.966h-1.814zM99.457 40.229H96.29v8.582h-.781v-8.582h-3.161v-.66h7.109v.66zM111.501 44.691c0 .85-.147 1.597-.441 2.24-.294.644-.714 1.139-1.26 1.485s-1.176.521-1.892.521c-1.079 0-1.951-.386-2.615-1.158s-.997-1.814-.997-3.127v-.951c0-.843.149-1.589.448-2.238.298-.649.72-1.148 1.266-1.498.546-.349 1.174-.523 1.885-.523s1.338.172 1.882.514c.544.344.964.828 1.26 1.454s.451 1.353.463 2.177v1.104zm-.781-1.003c0-1.112-.252-1.984-.755-2.615-.503-.63-1.193-.945-2.069-.945-.859 0-1.543.316-2.054.949-.51.633-.765 1.516-.765 2.65v.965c0 1.096.254 1.964.762 2.605s1.198.961 2.069.961c.884 0 1.574-.315 2.069-.948s.743-1.515.743-2.644v-.978zM130.974 45.929c-.106.974-.454 1.718-1.044 2.234-.59.517-1.376.774-2.358.774-.686 0-1.292-.172-1.819-.514-.526-.344-.934-.829-1.222-1.457-.288-.629-.434-1.347-.438-2.155v-1.2c0-.82.144-1.549.432-2.184s.702-1.124 1.241-1.469c.54-.345 1.161-.518 1.863-.518.99 0 1.772.267 2.346.8.573.533.906 1.271 1 2.216h-.787c-.195-1.57-1.047-2.355-2.558-2.355-.838 0-1.505.313-2.003.94-.497.627-.746 1.493-.746 2.598v1.131c0 1.067.242 1.919.727 2.554.484.636 1.139.953 1.964.953.817 0 1.433-.195 1.847-.587s.671-.979.768-1.762h.787zM141.762 46.215h-4.196l-.952 2.596h-.819l3.498-9.242h.743l3.498 9.242h-.813l-.959-2.596zm-3.955-.66h3.707l-1.854-5.034-1.853 5.034zM152.244 44.957h-2.686v3.854h-.787v-9.242h3.003c.986 0 1.756.239 2.311.717s.831 1.146.831 2.003a2.5 2.5 0 01-.52 1.566 2.667 2.667 0 01-1.396.938l2.311 3.935v.083h-.832l-2.235-3.854zm-2.685-.66h2.394c.656 0 1.183-.186 1.581-.559.397-.373.596-.856.596-1.45 0-.652-.207-1.159-.621-1.52-.415-.359-.997-.54-1.746-.54h-2.203v4.069zM166.707 40.229h-3.168v8.582h-.78v-8.582h-3.161v-.66h7.109v.66z"></path>
</svg>