<svg xmlns="http://www.w3.org/2000/svg" viewBox="0 0 121.196 9.496">
  <g fill="#7D7D7D">
    <path d="M6.881 6.487c-.106.973-.454 1.719-1.045 2.235-.589.516-1.376.774-2.357.774-.686 0-1.292-.171-1.819-.514-.527-.343-.934-.829-1.222-1.457C.15 6.896.004 6.178 0 5.37v-1.2c0-.82.144-1.548.432-2.183S1.134.862 1.673.518C2.212.172 2.833 0 3.536 0c.99 0 1.772.267 2.346.8.573.533.906 1.271 1 2.215h-.788C5.899 1.445 5.046.66 3.536.66c-.838 0-1.505.313-2.003.94-.497.627-.746 1.493-.746 2.599V5.33c0 1.067.242 1.918.727 2.554.484.635 1.139.953 1.964.953.817 0 1.433-.196 1.847-.587.415-.393.672-.98.769-1.763h.787zM19.509 5.25c0 .851-.147 1.598-.441 2.241-.294.643-.714 1.138-1.26 1.485s-1.176.521-1.892.521c-1.079 0-1.951-.386-2.615-1.158-.665-.772-.997-1.814-.997-3.126v-.954c0-.842.149-1.588.448-2.238.298-.649.72-1.148 1.266-1.498C14.564.175 15.192 0 15.903 0s1.338.171 1.882.514c.544.343.964.827 1.26 1.454s.451 1.352.463 2.177V5.25zm-.781-1.003c0-1.113-.252-1.985-.755-2.615S16.78.686 15.904.686c-.859 0-1.543.316-2.054.949-.51.632-.765 1.516-.765 2.65v.965c0 1.096.254 1.964.762 2.606.508.641 1.198.961 2.069.961.884 0 1.574-.316 2.069-.949.495-.633.743-1.514.743-2.644v-.977zM26.164 8.709h4.564v.66h-5.351V.127h.787v8.582zM36.913 8.709h4.564v.66h-5.351V.127h.787v8.582zM51.979 4.938h-4.323v3.771h4.97v.66h-5.751V.127h5.719v.66h-4.938v3.491h4.323v.66zM64.714 6.487c-.106.973-.454 1.718-1.044 2.234-.59.516-1.376.774-2.358.774-.686 0-1.292-.171-1.819-.514-.526-.343-.934-.829-1.222-1.457-.288-.629-.434-1.347-.438-2.155v-1.2c0-.821.144-1.549.432-2.184S58.967.86 59.506.516C60.046.172 60.667 0 61.369 0c.99 0 1.772.267 2.346.8.573.533.906 1.271 1 2.215h-.787C63.733 1.445 62.881.66 61.37.66c-.838 0-1.505.313-2.003.94-.497.626-.746 1.493-.746 2.598V5.33c0 1.067.242 1.918.727 2.554.484.635 1.139.953 1.964.953.817 0 1.433-.196 1.847-.587.415-.392.671-.979.768-1.762h.787zM76.6.787h-3.167v8.582h-.781V.787H69.49v-.66h7.11v.66zM82.943 9.369h-.781V.127h.781v9.242zM96.181 5.25c0 .851-.147 1.598-.441 2.241-.294.643-.714 1.138-1.26 1.485s-1.176.521-1.892.521c-1.079 0-1.951-.386-2.615-1.158-.665-.772-.997-1.814-.997-3.126v-.954c0-.842.149-1.588.448-2.238.298-.649.72-1.148 1.266-1.498C91.236.175 91.865 0 92.576 0s1.338.171 1.882.514c.544.343.964.827 1.26 1.454s.451 1.352.463 2.177V5.25zM95.4 4.247c0-1.113-.252-1.985-.755-2.615S93.452.686 92.576.686c-.859 0-1.543.316-2.054.949-.51.632-.765 1.516-.765 2.65v.965c0 1.096.254 1.964.762 2.606.508.641 1.198.961 2.069.961.884 0 1.574-.316 2.069-.949.496-.633.743-1.514.743-2.644v-.977zM108.929 9.369h-.781l-5.312-7.909v7.909h-.787V.127h.787l5.32 7.916V.127h.773v9.242zM120.409 7.097c0-.512-.18-.917-.539-1.216-.36-.298-1.019-.582-1.975-.851-.956-.269-1.654-.562-2.095-.879-.626-.449-.939-1.037-.939-1.765 0-.707.291-1.281.873-1.724.582-.441 1.325-.662 2.231-.662.613 0 1.162.119 1.646.355s.86.567 1.127.99.4.895.4 1.416h-.787c0-.632-.217-1.141-.648-1.525S118.692.66 117.965.66c-.707 0-1.27.158-1.689.474-.418.316-.628.728-.628 1.236 0 .471.188.854.565 1.151.376.297.979.559 1.809.785.829.227 1.458.462 1.885.706.428.243.75.534.965.873.217.338.324.738.324 1.2 0 .728-.291 1.312-.873 1.752s-1.349.66-2.301.66c-.651 0-1.249-.116-1.793-.349s-.957-.559-1.238-.978-.422-.899-.422-1.441h.781c0 .652.243 1.166.729 1.542s1.134.565 1.942.565c.72 0 1.297-.159 1.732-.476.438-.318.656-.738.656-1.263z"></path>
  </g>
</svg>