<svg xmlns="http://www.w3.org/2000/svg" width="25.192" height="33.276">
  <path d="M22.983 18.683c1.472 1.52 2.209 3.345 2.209 5.475 0 1.786-.455 3.369-1.363 4.747-.909 1.379-2.209 2.452-3.901 3.22-1.692.768-3.697 1.151-6.016 1.151-.846 0-1.567-.016-2.162-.047a188.62 188.62 0 00-5.922-.094c-2.569 0-4.512.047-5.828.141v-.94c1.128-.063 1.95-.188 2.467-.376s.87-.548 1.058-1.081c.188-.532.282-1.394.282-2.585V4.982c0-1.19-.094-2.052-.282-2.585-.188-.533-.541-.893-1.058-1.081S1.128 1.003 0 .94V0c1.316.094 3.227.141 5.734.141L10.81.094a39.197 39.197 0 012.021-.047c3.196 0 5.647.674 7.355 2.021 1.708 1.348 2.562 3.134 2.562 5.358 0 1.818-.572 3.447-1.716 4.888-1.144 1.441-2.954 2.538-5.428 3.29v.094c3.446.47 5.906 1.465 7.379 2.985zM9.47 1.269c-.486.219-.822.611-1.01 1.175s-.282 1.41-.282 2.538v10.622h3.149c2.569 0 4.363-.697 5.382-2.092 1.018-1.394 1.527-3.25 1.527-5.569 0-2.35-.517-4.104-1.551-5.264C15.651 1.52 13.974.94 11.656.94c-.972 0-1.7.11-2.186.329zM20.492 23.97c0-2.475-.666-4.354-1.998-5.64-1.332-1.285-3.454-1.927-6.368-1.927H8.178v11.891c0 1.128.094 1.958.282 2.491.188.533.524.901 1.01 1.104.485.205 1.229.306 2.232.306 5.86 0 8.79-2.741 8.79-8.225z"></path>
</svg>