<svg xmlns="http://www.w3.org/2000/svg" xmlns:xlink="http://www.w3.org/1999/xlink" fill="none" viewBox="435 0 250 248" aria-hidden="true">
		<g id="core-hero-flair">
			<g id="core_circles_center" data-svg-origin="560 124" transform="matrix(1,0,0,1,0,0)" style="translate: none; rotate: none; scale: none; transform-origin: 0px 0px;">
				<g id="core_circles_center_right" fill-rule="evenodd" clip-rule="evenodd" data-svg-origin="561 0" transform="matrix(1,0,0,1,0,0)" style="translate: none; rotate: none; scale: none; transform-origin: 0px 0px;">
					
					
					<path id="core_circles_center_right_top" fill="url(#paint784_radial_2300_52999)" d="M561 62c0-34.242 27.758-62 62-62 34.242 0 62 27.758 62 62 0 34.242-27.758 62-62 62 34.242 0 62 27.758 62 62 0 34.242-27.758 62-62 62-34.242 0-62-27.758-62-62 0-34.242 27.758-62 62-62-34.242 0-62-27.758-62-62Z"></path>
					
				</g>
				<g id="core_circles_center_left" fill-rule="evenodd" clip-rule="evenodd" data-svg-origin="435 0" transform="matrix(1,0,0,1,0,0)" style="translate: none; rotate: none; scale: none; transform-origin: 0px 0px;">
					
					
					<path id="core_circles_center_left_top" fill="url(#paint785_radial_2300_52999)" d="M559 62c0-34.242-27.758-62-62-62-34.242 0-62 27.758-62 62 0 34.242 27.758 62 62 62-34.242 0-62 27.758-62 62 0 34.242 27.758 62 62 62 34.242 0 62-27.758 62-62 0-34.242-27.758-62-62-62 34.242 0 62-27.758 62-62Z"></path>
					
				</g>
			</g>
		</g>
		<defs>
			<pattern id="pattern11" width=".806" height=".403" patternContentUnits="objectBoundingBox">
				<use xlink:href="#svg-noise" transform="scale(.00161 .0008)"></use>
			</pattern>
			<pattern id="pattern12" width=".806" height=".403" patternContentUnits="objectBoundingBox">
				<use xlink:href="#svg-noise" transform="scale(.00161 .0008)"></use>
			</pattern>
			<radialGradient id="paint784_radial_2300_52999" cx="0" cy="0" r="1" gradientTransform="rotate(82.21 308.276 309.364) scale(309.86 169.347)" gradientUnits="userSpaceOnUse">
				<stop stop-color="#FBFEFA"></stop>
				<stop offset=".396" stop-color="#C9F6B4"></stop>
				<stop offset=".776" stop-color="#ABFF84"></stop>
				<stop offset="1" stop-color="#2FEE65"></stop>
			</radialGradient>
			<radialGradient id="paint785_radial_2300_52999" cx="0" cy="0" r="1" gradientTransform="matrix(-42.00032 307.00031 -167.7841 -22.95433 547 -38)" gradientUnits="userSpaceOnUse">
				<stop stop-color="#FBFEFA"></stop>
				<stop offset=".396" stop-color="#C9F6B4"></stop>
				<stop offset=".776" stop-color="#ABFF84"></stop>
				<stop offset="1" stop-color="#2FEE65"></stop>
			</radialGradient>
		</defs>
	</svg>