<svg width="236" height="246" viewBox="0 0 236 246" fill="none" xmlns="http://www.w3.org/2000/svg">
<mask id="path-1-inside-1_808_3903" fill="white">
<path fill-rule="evenodd" clip-rule="evenodd" d="M9 0C4.02944 0 0 4.02943 0 9V151C0 155.971 4.02943 160 9 160H73C74.6569 160 76 161.343 76 163V237C76 241.971 80.0294 246 85 246H227C231.971 246 236 241.971 236 237V95C236 90.0294 231.971 86 227 86H163C161.343 86 160 84.6569 160 83V9C160 4.02944 155.971 0 151 0H9Z"/>
</mask>
<path d="M7 9C7 7.89543 7.89543 7 9 7V-7C0.163447 -7 -7 0.163437 -7 9H7ZM7 151V9H-7V151H7ZM9 153C7.89543 153 7 152.105 7 151H-7C-7 159.837 0.163438 167 9 167V153ZM73 153H9V167H73V153ZM83 237V163H69V237H83ZM85 239C83.8954 239 83 238.105 83 237H69C69 245.837 76.1634 253 85 253V239ZM227 239H85V253H227V239ZM229 237C229 238.105 228.105 239 227 239V253C235.837 253 243 245.837 243 237H229ZM229 95V237H243V95H229ZM227 93C228.105 93 229 93.8954 229 95H243C243 86.1634 235.837 79 227 79V93ZM163 93H227V79H163V93ZM153 9V83H167V9H153ZM151 7C152.105 7 153 7.89543 153 9H167C167 0.163445 159.837 -7 151 -7V7ZM9 7H151V-7H9V7ZM163 79C165.209 79 167 80.7909 167 83H153C153 88.5228 157.477 93 163 93V79ZM73 167C70.7909 167 69 165.209 69 163H83C83 157.477 78.5229 153 73 153V167Z" fill="white" mask="url(#path-1-inside-1_808_3903)"/>
<path d="M75.7676 125.27C54.7568 125.27 39.7129 114.225 39.7129 99.2441C39.7129 87.6914 48.5996 78.2969 60.0254 76.5195V75.8848C50.0596 73.9805 43.2041 65.665 43.2676 55.5723C43.2041 41.29 56.9785 30.8164 75.7676 30.8164C94.5566 30.8164 108.331 41.29 108.395 55.5723C108.331 65.665 101.285 73.9805 91.6367 75.8848V76.5195C102.809 78.2969 111.822 87.6914 111.822 99.2441C111.822 114.225 96.7148 125.27 75.7676 125.27ZM59.6445 97.3398C59.5811 105.211 66.0557 110.733 75.7676 110.67C85.4795 110.733 91.9541 105.211 91.8906 97.3398C91.9541 89.4053 85.0986 83.5654 75.7676 83.502C66.4365 83.5654 59.5811 89.3418 59.6445 97.3398ZM61.9297 57.4766C61.8662 64.8398 67.6426 69.9814 75.7676 70.0449C83.8291 69.9814 89.6689 64.8398 89.7324 57.4766C89.6689 50.3037 83.9561 45.2891 75.7676 45.2891C67.5156 45.2891 61.8662 50.3037 61.9297 57.4766Z" fill="white"/>
<path d="M125.744 216V124.086H162.307C182.556 124.086 192.839 133.861 192.775 147.699C192.839 158.49 185.729 165.282 176.271 167.377V168.266C186.618 168.773 196.394 177.025 196.457 190.609C196.394 205.209 185.476 216 164.719 216H125.744ZM144.787 200.258H160.91C171.955 200.321 176.716 195.751 176.652 188.832C176.716 181.088 170.812 175.629 161.418 175.629H144.787V200.258ZM144.787 162.553H159.514C167.512 162.616 173.542 158.109 173.479 150.746C173.542 144.081 168.591 139.574 159.895 139.574H144.787V162.553Z" fill="white"/>
</svg>
