<svg xmlns="http://www.w3.org/2000/svg" width="230.83" height="60.762" viewBox="0 0 230.83 60.762">
  <g fill="#0F1E29">
    <path d="M23.55 47.724a92.116 92.116 0 003.956-6.02 905.606 905.606 0 013.746-6.16 168.27 168.27 0 013.921-6.09 58.657 58.657 0 014.411-5.74c.56-.7 1.202-1.435 1.926-2.205a13.426 13.426 0 012.486-2.065c1.12-.653 2.111-.84 2.975-.56.864.28 1.506 1.027 1.926 2.24.131.374.23.747.297 1.12.065.374.143.747.232 1.12.22 1.96.363 3.909.429 5.845.065 1.937.143 3.885.232 5.845l.105 4.095c.023.957.058 1.832.105 2.625.046.794.105 1.669.175 2.625.07.957.198 2.322.385 4.095.046.466.105.921.175 1.365.07.443.151.898.245 1.365.093.373 0 .583-.28.63-.28.046-.514-.07-.7-.35a1.434 1.434 0 01-.315-.805 10.481 10.481 0 00-.105-.875 95.807 95.807 0 01-.965-11.025l-.365-12.145a66.114 66.114 0 00-.175-2.205 25.103 25.103 0 00-.315-2.205 11.08 11.08 0 01-.245-.84 2.821 2.821 0 00-.315-.77 1.605 1.605 0 00-.7-.77 1.376 1.376 0 00-1.05-.14c-.56.14-1.109.397-1.645.77-.537.374-1.05.805-1.54 1.295-.49.49-.945.992-1.365 1.505-.42.514-.794 1.004-1.12 1.47a74.486 74.486 0 00-4.585 6.23 213.549 213.549 0 00-4.305 6.755 487.675 487.675 0 00-3.745 6.23c-1.144 1.937-2.112 3.465-2.905 4.585-.887 1.306-1.68 1.306-2.38 0a4.764 4.764 0 01-.665-1.645 14.715 14.715 0 01-.245-1.785 90.44 90.44 0 01-.42-7.07c-.094-4.76-.164-9.473-.21-14.14-.047-4.666-.117-9.38-.21-14.14V7.439c0-.77-.024-1.551-.07-2.345 0-.186-.024-.525-.07-1.015-.047-.49-.14-.98-.28-1.47s-.339-.875-.595-1.155c-.257-.28-.595-.28-1.015 0-.374.234-.7.502-.98.805-.28.304-.56.619-.84.945a25.033 25.033 0 00-1.785 2.45 68.98 68.98 0 00-1.575 2.59 82.25 82.25 0 00-5.565 11.34 95.233 95.233 0 00-3.885 11.97 70.14 70.14 0 00-1.82 10.815 289.307 289.307 0 00-.77 10.955c0 .326.023.723.07 1.19.046.466-.187.7-.7.7-.374-.047-.549-.28-.525-.7.023-.42.035-.817.035-1.19 0-5.366.023-10.686.07-15.96.046-5.273.14-10.593.28-15.96.046-.28.07-.56.07-.84 0-.28.023-.56.07-.84.046-.186.105-.361.175-.525.07-.163.221-.221.455-.175.373.047.606.28.7.7.046.234.058.455.035.665-.024.21-.035.432-.035.665-.047 2.1-.082 4.212-.105 6.335a632.19 632.19 0 01-.105 6.405c0 .28.011.56.035.84.023.28.128.584.315.91.093-.373.175-.746.245-1.12.07-.373.151-.746.245-1.12a112.498 112.498 0 013.955-13.125 73.304 73.304 0 015.915-12.285c.746-1.26 1.575-2.613 2.485-4.06.91-1.446 2.041-2.543 3.395-3.29.513-.28.968-.361 1.365-.245.396.117.746.35 1.05.7.303.35.536.782.7 1.295.163.514.268 1.05.315 1.61.093 1.074.175 2.112.245 3.115.07 1.004.128 2.019.175 3.045.093 4.714.175 9.404.245 14.07.07 4.667.151 9.357.245 14.07.046 1.214.093 2.415.14 3.605a93.32 93.32 0 00.21 3.605c.046.374.092.759.138 1.155.046.397.208.782.485 1.155zM71.646 34.984c.233.28.186.514-.14.7a24.769 24.769 0 01-4.76 3.29c-1.307.747-2.287.444-2.94-.91a4.466 4.466 0 01-.525-1.19c-.117-.42-.245-.816-.385-1.19-.234-.7-.514-1.096-.84-1.19-.327-.093-.77.117-1.33.63-.374.374-.735.759-1.085 1.155-.35.397-.712.782-1.085 1.155-.374.374-.7.747-.98 1.12-.28.374-.607.747-.98 1.12-.374.374-.747.514-1.12.42-.373-.093-.63-.396-.77-.91-.093-.28-.14-.49-.14-.63.094-1.306.397-2.485.91-3.535.513-1.05 1.306-1.925 2.38-2.625 1.54-.933 2.8-.653 3.78.84v.14c.933.374 1.516.969 1.75 1.785.233.817.513 1.599.84 2.345.326.654.641 1.039.945 1.155.303.117.781-.011 1.435-.385a44.906 44.906 0 002.205-1.47 186.59 186.59 0 012.205-1.54 2.57 2.57 0 01.28-.245c.093-.07.21-.081.35-.035zm-13.37-.98c-1.167 1.12-1.797 2.567-1.89 4.34.7-.7 1.4-1.388 2.1-2.065.7-.676 1.4-1.365 2.1-2.065.186-.186.186-.443 0-.77-.187-.233-.42-.326-.7-.28-.56.047-1.097.327-1.61.84z"></path>
    <path d="M71.926 40.724c.373-.326.653-.665.84-1.015.186-.35.396-.711.63-1.085a34.427 34.427 0 012.905-4.06 21.884 21.884 0 013.605-3.43c.606-.42 1.26-.816 1.96-1.19.513-.28.956-.186 1.33.28.233.327.28.607.14.84-.14.234-.245.28-.315.14a1.351 1.351 0 00-.245-.35c-.234-.233-.455-.315-.665-.245a3.38 3.38 0 00-.665.315 20.391 20.391 0 00-3.71 3.15 35.382 35.382 0 00-4.2 6.09 13.498 13.498 0 01-1.19 1.82c-.28.327-.595.444-.945.35-.35-.093-.571-.373-.665-.84a4.181 4.181 0 01-.07-.805v-.875c.094-1.306.269-2.578.525-3.815.256-1.236.571-2.461.945-3.675.14-.326.303-.653.49-.98a.754.754 0 01.42-.385c.186-.07.396-.035.63.105.186.14.256.28.21.42-.047.14-.117.304-.21.49-.28.514-.537 1.144-.77 1.89a22.753 22.753 0 00-.595 2.345 22.17 22.17 0 00-.35 2.415 12.766 12.766 0 00-.035 2.1zM98.385 35.054c.093.187.081.315-.035.385a1.62 1.62 0 00-.315.245 246.91 246.91 0 01-3.92 3.29 50.517 50.517 0 01-4.06 3.01 8.398 8.398 0 01-1.68.945 5.875 5.875 0 01-1.89.455c-2.473.14-3.71-1.05-3.71-3.57.047-2.613 1.214-4.666 3.5-6.16.653-.513 1.376-.723 2.17-.63.793 0 1.26.35 1.4 1.05.093.327 0 .584-.28.77-.187.094-.327-.023-.42-.35-.094-.326-.257-.49-.49-.49-.234 0-.467.047-.7.14-.607.187-1.179.537-1.715 1.05a7.684 7.684 0 00-1.365 1.75 8.392 8.392 0 00-.84 2.065c-.186.724-.21 1.389-.07 1.995.094.514.257.887.49 1.12.233.234.606.397 1.12.49a3.807 3.807 0 001.715-.105 12.75 12.75 0 001.575-.595c.793-.42 1.551-.886 2.275-1.4a28.764 28.764 0 002.065-1.61c.746-.56 1.47-1.143 2.17-1.75.7-.606 1.4-1.19 2.1-1.75.14-.093.268-.198.385-.315.115-.116.29-.128.525-.035z"></path>
    <path d="M99.154 35.124c.373-.186.968-.49 1.785-.91.816-.42 1.551-.723 2.205-.91.513-.14.723-.093.63.14a.846.846 0 01-.49.49 8.41 8.41 0 01-.91.525c-.327.164-.63.339-.91.525-.654.374-1.167.712-1.54 1.015-.374.304-.654.619-.84.945-.187.327-.292.724-.315 1.19a37.131 37.131 0 00-.035 1.82c0 .56.303.98.91 1.26.653.28 1.33.467 2.03.56.7.094 1.376.024 2.03-.21.513-.14 1.131-.478 1.855-1.015a29.086 29.086 0 002.17-1.785c.723-.653 1.4-1.306 2.03-1.96a45.925 45.925 0 001.435-1.54c.093-.093.186-.198.28-.315.093-.116.21-.128.35-.035.233.14.303.292.21.455a8.108 8.108 0 01-.28.455c-.42.514-.969 1.109-1.645 1.785a86.988 86.988 0 01-2.1 2.03 20.08 20.08 0 01-2.24 1.82c-.77.537-1.459.875-2.065 1.015a4.645 4.645 0 01-1.96.14 9.953 9.953 0 01-1.96-.49c-.56-.233-.91-.291-1.05-.175-.14.117-.257.432-.35.945a40.465 40.465 0 00-.21 2.345c-.047.77-.117 1.552-.21 2.345l-.21 1.26c0 .233-.14.373-.42.42-.28 0-.42-.14-.42-.42v-1.26c.094-.84.175-1.68.245-2.52.07-.84.152-1.703.245-2.59.047-.42.024-.828-.07-1.225-.093-.396-.35-.735-.77-1.015a1.805 1.805 0 01-.385-.35 5.222 5.222 0 01-.315-.42c-.28-.42-.42-.793-.42-1.12 0-.326.21-.63.63-.91.887-.513 1.424-1.143 1.61-1.89.187-.746.326-1.563.42-2.45.28-3.5.653-6.976 1.12-10.43a114.687 114.687 0 011.89-10.36c.093-.373.105-.735.035-1.085-.07-.35.011-.688.245-1.015.093-.14.198-.256.315-.35.116-.093.291-.093.525 0 .186.047.291.14.315.28.023.14.035.28.035.42l-.21 1.26a114.846 114.846 0 00-1.855 10.815 546.935 546.935 0 00-1.225 10.885 8.227 8.227 0 00-.14 1.61zm-1.539 3.43c0-.14.012-.303.035-.49.024-.186-.105-.28-.385-.28a.702.702 0 00-.56.245.885.885 0 00-.21.595c-.093.56.117.887.63.98.28.047.42-.035.42-.245s.024-.385.07-.525v-.28zM179.233 53.184c-.374.28-.735.42-1.085.42s-.712.023-1.085.07c-1.447.093-2.894.175-4.34.245-1.447.07-2.894.151-4.34.245-3.034.14-6.009.466-8.925.98-2.917.513-5.845 1.05-8.785 1.61-.514.093-1.027.198-1.54.315-.514.116-1.027.221-1.54.315-.654.14-1.26.326-1.82.56-.56.233-1.004.746-1.33 1.54-.14.326-.397.595-.77.805-.374.21-.77.35-1.19.42-.42.07-.852.07-1.295 0a2.67 2.67 0 01-1.155-.455c-.654-.42-.7-.957-.14-1.61.606-.42 1.26-.7 1.96-.84.793-.14 1.318-.432 1.575-.875.256-.444.408-1.039.455-1.785.093-1.634.198-3.29.315-4.97.116-1.68.221-3.336.315-4.97a530.914 530.914 0 011.75-19.775c.7-6.51 1.61-13.031 2.73-19.565.186-.84.361-1.68.525-2.52.163-.84.431-1.656.805-2.45.093-.233.233-.466.42-.7.186-.233.466-.256.84-.07.326.14.49.362.49.665 0 .304-.047.572-.14.805a12.89 12.89 0 00-1.505 4.515c-.21 1.564-.432 3.139-.665 4.725a355.405 355.405 0 00-2.1 17.08 675.858 675.858 0 00-1.47 17.22c-.094 1.587-.21 3.15-.35 4.69s-.257 3.08-.35 4.62c-.047.233-.07.478-.07.735v.735c-.094.606.163.863.77.77.606-.14 1.201-.269 1.785-.385a37.48 37.48 0 001.715-.385 126.573 126.573 0 0114-2.275c4.666-.49 9.38-.782 14.14-.875.233 0 .466-.012.7-.035.232-.024.466.128.7.455zm-36.12 5.6c-.42-.187-.77-.187-1.05 0-.28.186-.584.396-.91.63.373.093.735.116 1.085.07.35-.047.641-.28.875-.7z"></path>
    <path d="M180.701 35.544c-.7.514-1.529 1.015-2.485 1.505-.957.49-2.135.992-3.535 1.505-.56.187-1.05.397-1.47.63-.42.234-.794.607-1.12 1.12-.56.84-1.284 1.144-2.17.91-.513-.093-.875-.315-1.085-.665-.21-.35-.315-.758-.315-1.225 0-.466-.105-.875-.315-1.225s-.431-.711-.665-1.085a6.444 6.444 0 01-.98-2.485c-.14-.863.024-1.761.49-2.695.327-.606.735-1.073 1.225-1.4a3.27 3.27 0 011.54-.56 3.29 3.29 0 011.61.28c.536.234 1.015.607 1.435 1.12.653.934.98 2.007.98 3.22.046.56.035 1.12-.035 1.68-.07.56-.152 1.167-.245 1.82 1.586-.42 2.87-.875 3.85-1.365s1.936-1.015 2.87-1.575c.373-.233.618-.268.735-.105.117.164.012.362-.315.595zm-12.739-3.5c-.933 1.634-.746 3.29.56 4.97.28-.42.514-.805.7-1.155.187-.35.397-.688.63-1.015.233-.28.49-.525.77-.735.28-.21.63-.291 1.05-.245.186.094.35.21.49.35.186.187.163.35-.07.49-.467.327-.817.689-1.05 1.085-.234.397-.42.852-.56 1.365a2.58 2.58 0 00-.175.735c-.024.257.151.432.525.525.28.094.56.117.84.07.28-.046.49-.233.63-.56.42-.933.665-1.878.735-2.835.07-.956-.105-1.925-.525-2.905-.42-1.026-1.214-1.54-2.38-1.54-1.026 0-1.75.467-2.17 1.4zm3.079 7.42c0-.14-.14-.256-.42-.35-.374 0-.537.164-.49.49 0 .327.116.444.35.35.373 0 .56-.163.56-.49z"></path>
    <path d="M188.121 33.164a725.68 725.68 0 01-1.575 3.78c-.49 1.167-.992 2.357-1.505 3.57a13.07 13.07 0 01-.805 1.61 9.154 9.154 0 01-1.085 1.47c-.654.794-1.284 1.12-1.89.98-.607-.14-1.073-.676-1.4-1.61a8.178 8.178 0 01-.35-2.31c0-.746.07-1.516.21-2.31.234-1.073.455-2.158.665-3.255.21-1.096.431-2.181.665-3.255l.28-1.26c.093-.42-.117-.84-.63-1.26-.14-.093-.175-.245-.105-.455.07-.21.175-.443.315-.7a2.9 2.9 0 01.49-.665c.186-.186.373-.28.56-.28.466 0 .7.21.7.63.093.794.07 1.494-.07 2.1-.234 1.354-.467 2.719-.7 4.095-.234 1.377-.467 2.742-.7 4.095-.234 1.494-.28 2.917-.14 4.27.046.14.081.292.105.455.023.164.151.269.385.315.28.047.513-.07.7-.35.373-.373.7-.793.98-1.26.28-.466.536-.933.77-1.4.513-1.12 1.003-2.228 1.47-3.325.466-1.096.956-2.205 1.47-3.325.093-.233.198-.455.315-.665a5.99 5.99 0 00.315-.665c.186-.466.443-.676.77-.63a.536.536 0 01.385.315c.07.164.128.339.175.525.186.654.361 1.295.525 1.925.163.63.361 1.272.595 1.925.233.514.478 1.027.735 1.54.256.514.595.98 1.015 1.4.466.514.98.782 1.54.805.56.024.956-.291 1.19-.945.233-.466.315-1.038.245-1.715a24.05 24.05 0 00-.245-1.785 53.054 53.054 0 00-.805-3.535 96.473 96.473 0 00-1.015-3.535 8.072 8.072 0 00-.14-.385 6.111 6.111 0 01-.14-.385c-.094-.233 0-.396.28-.49.046-.046.105-.046.175 0 .07.047.128.094.175.14a.76.76 0 01.385.42c.07.187.151.397.245.63.186.56.42 1.33.7 2.31.28.98.536 1.984.77 3.01.233 1.027.408 2.019.525 2.975.116.957.081 1.715-.105 2.275-.28.98-.805 1.61-1.575 1.89-.77.28-1.575.117-2.415-.49-.374-.233-.665-.525-.875-.875s-.432-.711-.665-1.085a14.48 14.48 0 01-1.47-4.2 6.153 6.153 0 00-.175-.455c-.07-.163-.152-.361-.245-.595zM211.64 35.474a85.169 85.169 0 01-3.64 2.52 19.905 19.905 0 01-3.85 1.96c-1.54.607-2.8.479-3.78-.385-.98-.863-1.33-2.111-1.05-3.745.233-1.353.746-2.496 1.54-3.43.7-.84 1.493-1.26 2.38-1.26.84-.046 1.435.199 1.785.735.35.537.315 1.179-.105 1.925a5.862 5.862 0 01-1.295 1.505c-.49.397-1.109.595-1.855.595-.42 0-.759.07-1.015.21-.257.14-.385.467-.385.98-.14 1.167.21 1.914 1.05 2.24.513.234 1.003.315 1.47.245.466-.07.933-.221 1.4-.455a25.917 25.917 0 002.31-1.085c.746-.396 1.47-.851 2.17-1.365.42-.233.84-.49 1.26-.77l1.26-.84c.373-.233.606-.28.7-.14.093.14-.023.327-.35.56zm-10.149-.35c.326.047.665-.011 1.015-.175.35-.163.665-.361.945-.595a2.59 2.59 0 00.665-.84c.163-.326.245-.63.245-.91-.047-.28-.152-.455-.315-.525-.164-.07-.362-.058-.595.035-.654.187-1.155.502-1.505.945-.35.444-.642.945-.875 1.505-.094.187-.082.327.035.42.115.094.244.14.385.14z"></path>
    <path d="M214.02 37.994c.233-.233.431-.443.595-.63.163-.186.361-.373.595-.56l1.26-1.26c.42-.42.863-.816 1.33-1.19.84-.7 1.586-1.038 2.24-1.015.653.024 1.446.362 2.38 1.015.373.28.676.56.91.84 1.26 1.26 2.753 1.494 4.48.7a15.48 15.48 0 011.96-.77l.56-.14c.186-.046.326-.058.42-.035.093.024.105.082.035.175-.07.094-.269.234-.595.42-.607.28-1.19.537-1.75.77-.56.234-1.12.42-1.68.56-1.027.28-2.03.07-3.01-.63l-.84-.7-.84-.7c-.794-.653-1.447-.968-1.96-.945-.514.024-1.167.385-1.96 1.085-.7.654-1.365 1.319-1.995 1.995a94.562 94.562 0 00-1.925 2.135 8.445 8.445 0 00-.63.7 8.667 8.667 0 01-.63.7c-.42.374-.817.502-1.19.385-.374-.116-.606-.431-.7-.945a6.689 6.689 0 01-.14-2.345c.094-.77.21-1.551.35-2.345.093-.513.198-1.003.315-1.47a4.23 4.23 0 01.595-1.33c.233-.233.396-.303.49-.21.233.094.35.257.35.49-.14.747-.28 1.482-.42 2.205-.14.724-.257 1.459-.35 2.205-.28 1.634-.269 2.415.035 2.345.303-.07.875-.571 1.715-1.505z"></path>
  </g>
</svg>