<svg xmlns="http://www.w3.org/2000/svg" width="15.414" height="200.391">
  <g fill="#1B1B1B">
    <path d="M6.305 200.391a6.068 6.068 0 01-2.93-.73 5.474 5.474 0 01-2.129-2.023c-.518-.862-.777-1.793-.777-2.793s.259-1.93.777-2.789a5.496 5.496 0 012.129-2.02 6.066 6.066 0 012.93-.73c1.026 0 1.987.234 2.883.703a5.564 5.564 0 012.16 1.996c.544.862.816 1.809.816 2.84 0 1.026-.27 1.97-.809 2.832a5.566 5.566 0 01-2.152 2.004 6.112 6.112 0 01-2.898.71zm-.004-.664c.917 0 1.777-.212 2.58-.637.803-.424 1.438-1.02 1.908-1.785s.704-1.586.704-2.461c0-.87-.232-1.682-.696-2.438a4.965 4.965 0 00-1.896-1.785 5.357 5.357 0 00-2.6-.652c-.928 0-1.789.216-2.584.648-.795.433-1.423 1.027-1.884 1.785s-.692 1.572-.692 2.441c0 .891.237 1.719.711 2.484a4.856 4.856 0 001.9 1.773 5.37 5.37 0 002.549.627zm.957-7.258c.792 0 1.398.214 1.82.641.422.427.633 1.031.633 1.813s-.276 1.41-.828 1.887c-.552.477-1.299.715-2.242.715h-.703c-.906 0-1.637-.239-2.191-.719-.555-.479-.832-1.106-.832-1.883 0-.776.21-1.38.629-1.813.419-.432 1.025-.648 1.816-.648v.773c-1.161 0-1.742.563-1.742 1.688 0 .552.211.995.632 1.328.421.333.999.5 1.732.5h.71c.697 0 1.257-.164 1.681-.492s.636-.773.636-1.336c0-.552-.138-.97-.414-1.254-.276-.284-.721-.426-1.336-.426v-.774zM8.453 175.055c1.198.13 2.115.559 2.75 1.285.636.727.953 1.694.953 2.902 0 .844-.211 1.59-.633 2.238s-1.02 1.15-1.793 1.504c-.773.354-1.657.534-2.652.539H5.602c-1.01 0-1.906-.177-2.688-.531-.781-.354-1.384-.863-1.809-1.527-.424-.664-.637-1.428-.637-2.293 0-1.219.328-2.181.984-2.887.656-.706 1.565-1.116 2.727-1.23v.969c-1.932.24-2.898 1.289-2.898 3.148 0 1.031.386 1.853 1.157 2.465.771.612 1.837.918 3.198.918h1.392c1.313 0 2.361-.298 3.143-.895.782-.596 1.173-1.402 1.173-2.418 0-1.005-.241-1.763-.723-2.273-.481-.51-1.204-.825-2.168-.945v-.969zM7.648 173.453c-.813 0-1.544-.157-2.195-.473a3.606 3.606 0 01-1.52-1.336c-.362-.575-.543-1.228-.543-1.957 0-1.125.395-2.036 1.184-2.734.789-.698 1.835-1.047 3.137-1.047h.195c.818 0 1.554.158 2.207.473.654.315 1.158.759 1.512 1.332.354.573.531 1.227.531 1.961 0 1.12-.395 2.03-1.184 2.73-.789.701-1.834 1.051-3.137 1.051h-.187zm.258-.937c1.011 0 1.84-.262 2.488-.785s.973-1.209.973-2.059c0-.844-.324-1.527-.973-2.051s-1.504-.785-2.566-.785h-.18c-.646 0-1.237.12-1.773.359-.536.24-.952.576-1.246 1.008a2.578 2.578 0 00-.441 1.484c0 .833.327 1.513.98 2.039.654.526 1.509.789 2.566.789h.172zM7.859 157.18c1.318 0 2.363.292 3.137.875.773.583 1.16 1.365 1.16 2.344 0 1.156-.406 2.042-1.219 2.656h4.313v.93H3.547v-.867l1.195-.047c-.901-.609-1.352-1.492-1.352-2.648 0-1.01.383-1.803 1.148-2.379.766-.575 1.828-.863 3.188-.863h.133zm-.164.937c-1.078 0-1.93.222-2.555.664-.625.443-.938 1.06-.938 1.852 0 .573.138 1.065.414 1.477.276.412.677.727 1.203.945h4.055a2.48 2.48 0 001.109-.961c.255-.417.383-.909.383-1.477 0-.786-.313-1.399-.941-1.84-.627-.44-1.537-.66-2.73-.66zM10.656 152.516l-7.109-2.469v-1.008l9.891 3.609.438.188c1.026.464 1.539 1.18 1.539 2.148 0 .224-.037.464-.109.719l-.773.008.047-.484c0-.458-.113-.829-.34-1.113-.227-.284-.616-.524-1.168-.723l-1.141-.414-8.383 3.188v-1.023l7.108-2.626zM4.344 143.688a3.535 3.535 0 00-.055.633c0 .583.163 1.077.488 1.48.326.404.798.691 1.418.863H12v.93H3.547v-.914l1.344-.016c-1-.495-1.5-1.289-1.5-2.383 0-.26.034-.466.102-.617l.851.024zM1.105 142.266a.623.623 0 01-.446-.172.612.612 0 01-.183-.469c0-.198.061-.355.183-.473s.271-.176.446-.176.323.059.442.176.179.275.179.473c0 .198-.06.354-.179.469a.613.613 0 01-.442.172zM12 141.164v.938H3.547v-.938H12zM7.695 139c-1.323 0-2.371-.293-3.145-.879s-1.16-1.381-1.16-2.387c0-1.151.458-2.026 1.375-2.625l-1.219-.047v-.875h8.281c1.088 0 1.95.305 2.586.914.635.609.953 1.435.953 2.477 0 .589-.132 1.15-.395 1.684s-.613.955-1.051 1.262l-.561-.524c.813-.661 1.219-1.448 1.219-2.359 0-.781-.23-1.391-.691-1.828s-1.101-.664-1.918-.68h-1.063c.833.599 1.25 1.472 1.25 2.617 0 .979-.391 1.766-1.172 2.359S9.148 139 7.82 139h-.125zm.164-.945c1.078 0 1.929-.216 2.551-.648.623-.432.934-1.042.934-1.828 0-1.151-.516-1.966-1.547-2.445h-3.93c-.542.219-.954.534-1.238.945-.284.412-.426.906-.426 1.484 0 .787.309 1.398.926 1.836s1.527.656 2.73.656zM4.977 128.82a3.294 3.294 0 01-1.172-1.18 3.089 3.089 0 01-.414-1.57c0-.906.255-1.581.766-2.023.511-.442 1.276-.667 2.297-.672H12v.93H6.445c-.755.005-1.317.166-1.688.48-.37.315-.555.819-.555 1.512 0 .578.181 1.09.543 1.535.362.445.851.775 1.465.988H12v.93H0v-.93h4.977zM1.383 119.516h2.164v-1.75h.766v1.75h5.639c.469 0 .819-.084 1.048-.254.229-.169.344-.452.344-.848 0-.156-.026-.409-.078-.758l.759-.039c.088.245.132.578.132 1 0 .641-.186 1.107-.559 1.398-.372.292-.92.438-1.645.438h-5.64v1.555h-.766v-1.555H1.383v-.937zM6.93 103.344c1.083 0 2.027.191 2.832.574s1.413.929 1.824 1.637l1.805-2.07.594.664-2.008 2.32c.12.427.18.862.18 1.305 0 .865-.213 1.634-.641 2.309-.427.675-1.032 1.197-1.816 1.566-.784.37-1.688.558-2.715.563H5.711c-1.036 0-1.954-.184-2.754-.551-.799-.367-1.414-.887-1.844-1.559s-.645-1.442-.645-2.313c0-.885.214-1.664.641-2.336.427-.672 1.039-1.191 1.836-1.559s1.716-.551 2.758-.551H6.93zm-1.235.961c-1.37 0-2.442.31-3.219.93-.776.62-1.164 1.472-1.164 2.555 0 1.052.39 1.892 1.168 2.52.779.628 1.866.941 3.262.941H6.93c1.349 0 2.418-.311 3.207-.934.789-.622 1.184-1.47 1.184-2.543 0-1.083-.388-1.932-1.164-2.547-.776-.614-1.859-.922-3.25-.922H5.695zM7.648 101.625c-.813 0-1.544-.157-2.195-.473a3.606 3.606 0 01-1.52-1.336c-.362-.575-.543-1.228-.543-1.957 0-1.125.395-2.036 1.184-2.734.789-.698 1.835-1.047 3.137-1.047h.195c.818 0 1.554.158 2.207.473.654.315 1.158.759 1.512 1.332.354.573.531 1.227.531 1.961 0 1.12-.395 2.03-1.184 2.73-.789.701-1.834 1.051-3.137 1.051h-.187zm.258-.937c1.011 0 1.84-.262 2.488-.785s.973-1.209.973-2.059c0-.844-.324-1.527-.973-2.051s-1.504-.785-2.566-.785h-.18c-.646 0-1.237.12-1.773.359-.536.24-.952.576-1.246 1.008a2.578 2.578 0 00-.441 1.484c0 .833.327 1.513.98 2.039.654.526 1.509.789 2.566.789h.172zM7.695 92.523c-1.313 0-2.358-.293-3.137-.879-.778-.586-1.168-1.381-1.168-2.387 0-1.141.451-2.01 1.352-2.609H0v-.93h12v.875l-1.125.039c.854.599 1.281 1.479 1.281 2.641 0 .974-.392 1.759-1.176 2.355-.784.597-1.842.895-3.176.895h-.109zm.164-.945c1.078 0 1.929-.216 2.551-.648.623-.432.934-1.042.934-1.828 0-1.151-.508-1.969-1.523-2.453H5.852c-1.099.484-1.648 1.297-1.648 2.438 0 .787.309 1.398.926 1.836s1.526.655 2.729.655zM12.156 79.984a3.614 3.614 0 01-2.011 3.304c-.633.323-1.342.484-2.129.484H7.68c-.813 0-1.544-.157-2.195-.473a3.76 3.76 0 01-1.535-1.316 3.252 3.252 0 01-.559-1.828c0-1.026.351-1.84 1.051-2.441.701-.602 1.658-.902 2.871-.902h.523v6.031h.18c.958 0 1.757-.274 2.395-.824.638-.549.957-1.241.957-2.074 0-.5-.091-.941-.273-1.324-.182-.383-.474-.73-.875-1.043l.445-.586c.994.688 1.491 1.685 1.491 2.992zm-7.968.172c0 .703.258 1.296.773 1.777.516.482 1.208.775 2.078.879v-5.07h-.101c-.813.027-1.474.258-1.985.696-.51.437-.765 1.01-.765 1.718zM12 69.711v.961H.625v-.961H12zM3.547 65.953l1.445-.031c-.521-.317-.918-.713-1.191-1.188a3.089 3.089 0 01-.41-1.57c0-.906.255-1.581.766-2.023.511-.442 1.276-.667 2.297-.672H12v.93H6.445c-.755.005-1.317.166-1.688.48-.37.315-.555.819-.555 1.512 0 .578.181 1.09.543 1.535.362.445.851.775 1.465.988H12v.93H3.547v-.891zM1.383 56.602h2.164v-1.75h.766v1.75h5.639c.469 0 .819-.084 1.048-.254.229-.169.344-.452.344-.848 0-.156-.026-.409-.078-.758l.759-.039c.088.245.132.578.132 1 0 .641-.186 1.107-.559 1.398-.372.292-.92.438-1.645.438h-5.64v1.555h-.766v-1.555H1.383v-.937zM12.156 49.641a3.614 3.614 0 01-2.011 3.304c-.633.323-1.342.484-2.129.484H7.68c-.813 0-1.544-.157-2.195-.473A3.76 3.76 0 013.95 51.64a3.252 3.252 0 01-.559-1.828c0-1.026.351-1.84 1.051-2.441.701-.602 1.658-.902 2.871-.902h.523V52.5h.18c.958 0 1.757-.274 2.395-.824.638-.549.957-1.241.957-2.074 0-.5-.091-.941-.273-1.324-.182-.383-.474-.73-.875-1.043l.445-.586c.994.687 1.491 1.684 1.491 2.992zm-7.968.172c0 .703.258 1.296.773 1.777.516.482 1.208.775 2.078.879v-5.07h-.101c-.813.026-1.474.258-1.984.695-.511.437-.766 1.01-.766 1.719zM4.344 40.742a3.535 3.535 0 00-.055.633c0 .583.163 1.077.488 1.48.326.404.798.691 1.418.863H12v.93H3.547v-.914l1.344-.016c-1-.495-1.5-1.289-1.5-2.383 0-.26.034-.466.102-.617l.851.024zM12 34.242c-.266.094-.659.154-1.18.18.427.328.757.746.988 1.254s.348 1.046.348 1.613c0 .813-.227 1.47-.68 1.973-.453.503-1.026.754-1.719.754-.823 0-1.474-.342-1.953-1.027-.479-.685-.719-1.639-.719-2.863V34.43h-.96c-.604 0-1.079.187-1.426.559-.346.373-.52.916-.52 1.629 0 .651.167 1.19.5 1.617.333.427.734.641 1.203.641l-.008.938c-.672 0-1.254-.313-1.746-.938s-.738-1.393-.738-2.305c0-.942.236-1.686.707-2.23.472-.544 1.129-.824 1.973-.84h4c.818 0 1.43-.086 1.836-.258H12v.999zm-.672 2.938a3.14 3.14 0 00-.453-1.676 2.668 2.668 0 00-1.211-1.074H7.805v1.672c.011.933.181 1.662.512 2.188.331.526.785.789 1.363.789.474 0 .867-.176 1.18-.527s.468-.81.468-1.372zM11.367 27.883c0-.651-.184-1.196-.551-1.637a1.94 1.94 0 00-1.426-.715v-.898a2.65 2.65 0 011.41.484c.425.297.757.691.996 1.184s.359 1.02.359 1.582c0 1.109-.385 1.988-1.156 2.637-.771.648-1.807.973-3.109.973h-.281c-.833 0-1.57-.146-2.211-.438-.641-.292-1.135-.709-1.484-1.254-.349-.544-.523-1.181-.523-1.91 0-.927.276-1.691.828-2.293.552-.602 1.279-.923 2.18-.965v.898c-.661.042-1.195.28-1.602.715-.406.435-.609.983-.609 1.645 0 .844.305 1.499.914 1.965.609.466 1.464.699 2.563.699h.273c1.078 0 1.919-.233 2.523-.699.604-.466.906-1.124.906-1.973zM1.383 21.313h2.164v-1.75h.766v1.75h5.639c.469 0 .819-.084 1.048-.254.229-.169.344-.452.344-.848 0-.156-.026-.409-.078-.758l.759-.039c.088.245.132.578.132 1 0 .641-.186 1.107-.559 1.398-.372.292-.92.438-1.645.438h-5.64v1.555h-.766V22.25H1.383v-.937zM1.105 17.68a.623.623 0 01-.446-.172.612.612 0 01-.183-.469c0-.198.061-.355.183-.473s.271-.176.446-.176.323.059.442.176.179.275.179.473c0 .198-.06.354-.179.469a.609.609 0 01-.442.172zM12 16.578v.938H3.547v-.938H12zM10.711 11.406l-7.164-2.57v-.961L12 11.031v.758l-8.453 3.172V14l7.164-2.594zM12.156 3.172a3.614 3.614 0 01-2.011 3.304c-.633.324-1.343.485-2.129.485H7.68c-.813 0-1.544-.157-2.195-.473a3.763 3.763 0 01-1.536-1.316 3.251 3.251 0 01-.558-1.828c0-1.026.351-1.84 1.051-2.441C5.142.301 6.099 0 7.313 0h.523v6.031h.18c.958 0 1.757-.274 2.395-.824.638-.549.957-1.241.957-2.074 0-.5-.091-.941-.273-1.324-.182-.383-.474-.73-.875-1.043l.445-.586c.994.687 1.491 1.685 1.491 2.992zm-7.968.172c0 .703.258 1.296.773 1.777.516.482 1.208.775 2.078.879V.93h-.101c-.813.026-1.474.258-1.985.695-.51.438-.765 1.011-.765 1.719z"></path>
  </g>
</svg>