<svg xmlns="http://www.w3.org/2000/svg" width="63.742" height="15.414">
  <g fill="#1B1B1B">
    <path d="M7.188 9.203c0-.63-.222-1.129-.664-1.496-.443-.367-1.253-.716-2.43-1.047-1.177-.33-2.037-.691-2.578-1.082C.745 5.026.359 4.302.359 3.406c0-.87.358-1.577 1.074-2.121C2.149.741 3.065.469 4.18.469c.755 0 1.431.146 2.027.438.596.292 1.059.698 1.387 1.219.328.521.492 1.102.492 1.742h-.969c0-.778-.266-1.404-.797-1.877-.531-.473-1.245-.71-2.14-.71-.87 0-1.563.194-2.078.583s-.774.896-.774 1.522c0 .579.231 1.051.695 1.417.464.365 1.206.687 2.227.966 1.021.279 1.794.568 2.32.868.526.3.922.658 1.188 1.074.265.417.398.909.398 1.477 0 .896-.358 1.615-1.074 2.156-.716.542-1.66.813-2.832.813a5.558 5.558 0 01-2.207-.43c-.669-.286-1.177-.688-1.523-1.203C.173 10.008 0 9.417 0 8.75h.961c0 .802.299 1.435.898 1.898.599.464 1.396.695 2.391.695.885 0 1.596-.195 2.133-.586.536-.39.805-.908.805-1.554zM15.344 12c-.094-.266-.154-.659-.18-1.18-.328.427-.746.757-1.254.988s-1.046.348-1.613.348c-.813 0-1.47-.227-1.973-.68-.503-.453-.754-1.025-.754-1.718 0-.823.342-1.474 1.027-1.953.685-.479 1.639-.719 2.863-.719h1.695v-.961c0-.604-.187-1.079-.559-1.426-.373-.346-.916-.52-1.629-.52-.651 0-1.19.167-1.617.5-.427.333-.641.734-.641 1.203l-.936-.007c0-.672.313-1.254.938-1.746s1.393-.738 2.305-.738c.942 0 1.686.236 2.23.707.544.472.824 1.129.84 1.973v4c0 .818.086 1.43.258 1.836V12h-1zm-2.938-.672a3.14 3.14 0 001.676-.453c.492-.302.85-.706 1.074-1.211V7.805h-1.672c-.933.011-1.662.181-2.188.512-.526.331-.789.785-.789 1.363 0 .474.176.867.527 1.18s.81.468 1.372.468zM21.141 10.656l2.469-7.109h1.008l-3.609 9.891-.188.438c-.464 1.026-1.18 1.539-2.148 1.539-.224 0-.464-.037-.719-.109l-.008-.773.484.047c.458 0 .829-.113 1.113-.34.284-.227.524-.616.723-1.168l.414-1.141-3.188-8.383h1.023l2.626 7.108zM38.602 12h-.969V6.547h-6.5V12h-.961V.625h.961v5.109h6.5V.625h.969V12zM44.547 12.156a3.614 3.614 0 01-3.304-2.011c-.323-.633-.484-1.342-.484-2.129V7.68c0-.813.157-1.544.473-2.195a3.76 3.76 0 011.316-1.535 3.252 3.252 0 011.828-.559c1.026 0 1.84.351 2.441 1.051.602.701.902 1.658.902 2.871v.523h-6.031v.18c0 .958.274 1.757.824 2.395.549.638 1.241.957 2.074.957.5 0 .941-.091 1.324-.273.383-.182.73-.474 1.043-.875l.586.445c-.687.994-1.685 1.491-2.992 1.491zm-.172-7.968c-.703 0-1.296.258-1.777.773-.482.516-.775 1.208-.879 2.078h5.07v-.101c-.026-.813-.258-1.474-.695-1.984-.438-.511-1.011-.766-1.719-.766zM50.586 12h-.938V0h.938v12zM54.172 12h-.938V0h.938v12zM56.195 7.648c0-.813.157-1.544.473-2.195a3.606 3.606 0 011.336-1.52c.575-.362 1.228-.543 1.957-.543 1.125 0 2.036.395 2.734 1.184.698.789 1.047 1.835 1.047 3.137v.195c0 .818-.158 1.554-.473 2.207-.315.654-.759 1.158-1.332 1.512-.573.354-1.227.531-1.961.531-1.12 0-2.03-.395-2.73-1.184-.701-.789-1.051-1.834-1.051-3.137v-.187zm.938.258c0 1.011.262 1.84.785 2.488s1.209.973 2.059.973c.844 0 1.527-.324 2.051-.973s.785-1.504.785-2.566v-.18c0-.646-.12-1.237-.359-1.773-.24-.536-.576-.952-1.008-1.246a2.578 2.578 0 00-1.484-.441c-.833 0-1.513.327-2.039.98-.526.654-.789 1.509-.789 2.566v.172z"></path>
  </g>
</svg>