<svg xmlns="http://www.w3.org/2000/svg" width="15.367" height="175.258">
  <g fill="#1B1B1B">
    <path d="M10.594 170.633l.242-.063-.242-.07-9.969-3.578v-1.055L12 170.102v.922L.625 175.258v-1.047l9.969-3.578zM1.105 164.469a.623.623 0 01-.446-.172.612.612 0 01-.183-.469c0-.198.061-.355.183-.473s.271-.176.446-.176.323.059.442.176.179.275.179.473c0 .198-.06.354-.179.469a.609.609 0 01-.442.172zM12 163.367v.938H3.547v-.938H12zM12.156 157.555a3.614 3.614 0 01-2.011 3.304c-.633.323-1.342.484-2.129.484H7.68c-.813 0-1.544-.157-2.195-.473a3.76 3.76 0 01-1.535-1.316 3.252 3.252 0 01-.559-1.828c0-1.026.351-1.84 1.051-2.441.701-.602 1.658-.902 2.871-.902h.523v6.031h.18c.958 0 1.757-.274 2.395-.824.638-.549.957-1.241.957-2.074 0-.5-.091-.941-.273-1.324-.182-.383-.474-.73-.875-1.043l.445-.586c.994.687 1.491 1.685 1.491 2.992zm-7.968.172c0 .703.258 1.296.773 1.777.516.482 1.208.775 2.078.879v-5.07h-.101c-.813.026-1.474.258-1.984.695-.511.437-.766 1.011-.766 1.719zM10.055 150.539l.727-.141-.766-.188-6.469-2.031v-.797l6.414-2.008.891-.219-.82-.18-6.484-1.734v-.969L12 144.734v.797l-6.703 2.172-.461.102.469.102L12 150.039v.797l-8.453 2.453v-.961l6.508-1.789zM12 131.273c-.266.094-.659.154-1.18.18.427.328.757.746.988 1.254s.348 1.046.348 1.613c0 .813-.227 1.47-.68 1.973-.453.503-1.026.754-1.719.754-.823 0-1.474-.342-1.953-1.027-.479-.685-.719-1.639-.719-2.863v-1.695h-.96c-.604 0-1.079.187-1.426.559-.346.373-.52.916-.52 1.629 0 .651.167 1.19.5 1.617.333.427.734.641 1.203.641l-.008.938c-.672 0-1.254-.313-1.746-.938s-.738-1.393-.738-2.305c0-.942.236-1.686.707-2.23.472-.544 1.129-.824 1.973-.84h4c.818 0 1.43-.086 1.836-.258H12v.998zm-.672 2.938a3.14 3.14 0 00-.453-1.676 2.668 2.668 0 00-1.211-1.074H7.805v1.672c.011.933.181 1.662.512 2.188.331.526.785.789 1.363.789.474 0 .867-.176 1.18-.527s.468-.81.468-1.372zM12 126.992v.938H0v-.938h12zM12 123.406v.938H0v-.938h12zM12 111.641c-.266.094-.659.154-1.18.18.427.328.757.746.988 1.254s.348 1.046.348 1.613c0 .813-.227 1.47-.68 1.973-.453.503-1.026.754-1.719.754-.823 0-1.474-.342-1.953-1.027-.479-.685-.719-1.639-.719-2.863v-1.695h-.96c-.604 0-1.079.187-1.426.559-.346.373-.52.916-.52 1.629 0 .651.167 1.19.5 1.617.333.427.734.641 1.203.641l-.008.938c-.672 0-1.254-.313-1.746-.938s-.738-1.393-.738-2.305c0-.942.236-1.686.707-2.23.472-.544 1.129-.824 1.973-.84h4c.818 0 1.43-.086 1.836-.258H12v.998zm-.672 2.937a3.14 3.14 0 00-.453-1.676 2.668 2.668 0 00-1.211-1.074H7.805v1.672c.011.933.181 1.662.512 2.188.331.526.785.789 1.363.789.474 0 .867-.176 1.18-.527s.468-.809.468-1.372zM4.344 104.5a3.535 3.535 0 00-.055.633c0 .583.163 1.077.488 1.48.326.404.798.691 1.418.863H12v.93H3.547v-.914l1.344-.016c-1-.495-1.5-1.289-1.5-2.383 0-.26.034-.466.102-.617l.851.024zM1.383 101.18h2.164v-1.75h.766v1.75h5.639c.469 0 .819-.084 1.048-.254.229-.169.344-.452.344-.848 0-.156-.026-.409-.078-.758l.759-.039c.088.245.132.578.132 1 0 .641-.186 1.107-.559 1.398-.372.292-.92.438-1.645.438h-5.64v1.555h-.766v-1.555H1.383v-.937zM10.055 95.469l.727-.141-.766-.188-6.469-2.031v-.797l6.414-2.008.891-.219-.82-.18-6.484-1.734v-.969L12 89.664v.797l-6.703 2.172-.461.102.469.102L12 94.969v.797l-8.453 2.453v-.961l6.508-1.789zM7.648 85.945c-.813 0-1.544-.157-2.195-.473a3.606 3.606 0 01-1.52-1.336c-.362-.575-.543-1.228-.543-1.957 0-1.125.395-2.036 1.184-2.734.789-.698 1.835-1.047 3.137-1.047h.195c.818 0 1.554.158 2.207.473.654.315 1.158.759 1.512 1.332.354.573.531 1.227.531 1.961 0 1.12-.395 2.03-1.184 2.73-.789.701-1.834 1.051-3.137 1.051h-.187zm.258-.937c1.011 0 1.84-.262 2.488-.785s.973-1.209.973-2.059c0-.844-.324-1.527-.973-2.051s-1.504-.785-2.566-.785h-.18c-.646 0-1.237.12-1.773.359-.536.24-.952.576-1.246 1.008a2.578 2.578 0 00-.441 1.484c0 .833.327 1.513.98 2.039.654.526 1.509.789 2.566.789h.172zM4.344 72.563a3.535 3.535 0 00-.055.633c0 .583.163 1.077.488 1.48.326.404.798.691 1.418.863H12v.93H3.547v-.914l1.344-.016c-1-.495-1.5-1.289-1.5-2.383 0-.26.034-.466.102-.617l.851.024zM7.742 69.078l1.031 1.07H12v.938H0v-.938h7.68l-.953-.883-3.18-3.234v-1.18l3.563 3.586L12 64.539v1.117l-4.258 3.422zM7.695 59.734c-1.323 0-2.371-.293-3.145-.879s-1.16-1.381-1.16-2.387c0-1.151.458-2.026 1.375-2.625l-1.219-.047v-.875h8.281c1.088 0 1.95.305 2.586.914.635.609.953 1.435.953 2.477 0 .589-.132 1.15-.395 1.684s-.613.955-1.051 1.262l-.563-.523c.813-.661 1.219-1.448 1.219-2.359 0-.781-.23-1.391-.691-1.828s-1.101-.664-1.918-.68h-1.063c.833.599 1.25 1.472 1.25 2.617 0 .979-.391 1.766-1.172 2.359s-1.836.891-3.164.891h-.123zm.164-.945c1.078 0 1.929-.216 2.551-.648.623-.432.934-1.042.934-1.828 0-1.151-.516-1.966-1.547-2.445h-3.93c-.542.219-.954.534-1.238.945-.284.412-.426.906-.426 1.484 0 .787.309 1.398.926 1.836s1.527.656 2.73.656zM7.648 51c-.813 0-1.544-.157-2.195-.473a3.606 3.606 0 01-1.52-1.336c-.362-.575-.543-1.228-.543-1.957 0-1.125.395-2.036 1.184-2.734.789-.698 1.835-1.047 3.137-1.047h.195c.818 0 1.554.158 2.207.473.654.315 1.158.759 1.512 1.332.354.573.531 1.227.531 1.961 0 1.12-.395 2.03-1.184 2.73C10.184 50.65 9.138 51 7.836 51h-.188zm.258-.937c1.011 0 1.84-.262 2.488-.785s.973-1.209.973-2.059c0-.844-.324-1.527-.973-2.051s-1.504-.785-2.566-.785h-.18c-.646 0-1.237.12-1.773.359-.536.24-.952.576-1.246 1.008a2.578 2.578 0 00-.441 1.484c0 .833.327 1.513.98 2.039.654.526 1.509.789 2.566.789h.172zM7.695 38.008c-1.323 0-2.371-.293-3.145-.879s-1.16-1.381-1.16-2.387c0-1.151.458-2.026 1.375-2.625l-1.218-.047v-.875h8.281c1.088 0 1.95.305 2.586.914.635.609.953 1.435.953 2.477 0 .589-.132 1.15-.395 1.684s-.613.955-1.051 1.262l-.563-.523c.813-.661 1.219-1.448 1.219-2.359 0-.781-.23-1.391-.691-1.828s-1.101-.664-1.918-.68h-1.063c.833.599 1.25 1.472 1.25 2.617 0 .979-.391 1.766-1.172 2.359s-1.836.891-3.164.891h-.124zm.164-.945c1.078 0 1.929-.216 2.551-.648.623-.432.934-1.042.934-1.828 0-1.151-.516-1.966-1.547-2.445h-3.93c-.542.219-.954.534-1.238.945-.284.412-.426.906-.426 1.484 0 .787.309 1.398.926 1.836s1.527.656 2.73.656zM7.648 29.273c-.813 0-1.544-.157-2.195-.473a3.606 3.606 0 01-1.52-1.336c-.362-.575-.543-1.228-.543-1.957 0-1.125.395-2.036 1.184-2.734.789-.698 1.835-1.047 3.137-1.047h.195c.818 0 1.554.158 2.207.473.654.315 1.158.759 1.512 1.332.354.573.531 1.227.531 1.961 0 1.12-.395 2.03-1.184 2.73-.789.701-1.834 1.051-3.137 1.051h-.187zm.258-.937c1.011 0 1.84-.262 2.488-.785s.973-1.209.973-2.059c0-.844-.324-1.527-.973-2.051s-1.504-.785-2.566-.785h-.18c-.646 0-1.237.12-1.773.359-.536.24-.952.576-1.246 1.008a2.578 2.578 0 00-.441 1.484c0 .833.327 1.513.98 2.039.654.526 1.509.789 2.566.789h.172zM7.695 16.281c-1.323 0-2.371-.293-3.145-.879s-1.16-1.381-1.16-2.387c0-1.151.458-2.026 1.375-2.625l-1.219-.047v-.874h8.281c1.088 0 1.95.305 2.586.914.635.609.953 1.435.953 2.477 0 .589-.132 1.15-.395 1.684s-.613.955-1.051 1.262l-.563-.523c.813-.661 1.219-1.448 1.219-2.359 0-.781-.23-1.391-.691-1.828s-1.101-.664-1.918-.68h-1.063c.833.599 1.25 1.472 1.25 2.617 0 .979-.391 1.766-1.172 2.359s-1.836.891-3.164.891h-.123zm.164-.945c1.078 0 1.929-.216 2.551-.648.623-.432.934-1.042.934-1.828 0-1.151-.516-1.966-1.547-2.445h-3.93c-.542.219-.954.534-1.238.945-.284.412-.426.906-.426 1.484 0 .787.309 1.398.926 1.836s1.527.656 2.73.656zM7.648 7.547c-.813 0-1.544-.157-2.195-.473a3.606 3.606 0 01-1.52-1.336c-.361-.575-.542-1.227-.542-1.957 0-1.125.395-2.036 1.184-2.734C5.363.349 6.409 0 7.711 0h.195c.818 0 1.554.158 2.207.473.654.315 1.158.759 1.512 1.332.354.573.531 1.227.531 1.961 0 1.12-.395 2.03-1.184 2.73-.789.701-1.834 1.051-3.137 1.051h-.187zm.258-.938c1.011 0 1.84-.262 2.488-.785s.973-1.209.973-2.059c0-.844-.324-1.527-.973-2.051S8.891.93 7.828.93h-.18c-.646 0-1.237.12-1.773.359-.536.24-.952.576-1.246 1.008a2.576 2.576 0 00-.441 1.484c0 .833.327 1.513.98 2.039.654.526 1.509.789 2.566.789h.172z"></path>
  </g>
</svg>