<svg xmlns="http://www.w3.org/2000/svg" width="66.914" height="12.156">
  <g fill="#1B1B1B">
    <path d="M7.344 8.805H2.18L1.008 12H0L4.305.625h.914L9.523 12h-1L7.344 8.805zm-4.867-.813H7.04L4.758 1.797 2.477 7.992zM17.781 7.859c0 1.318-.292 2.363-.875 3.137-.583.773-1.367 1.16-2.352 1.16-1.177 0-2.068-.438-2.672-1.313L11.844 12h-.875V0h.93v4.773c.594-.922 1.474-1.383 2.641-1.383 1 0 1.79.382 2.371 1.145s.871 1.824.871 3.184v.14zm-.937-.164c0-1.114-.216-1.975-.648-2.582-.433-.606-1.042-.91-1.828-.91-.599 0-1.107.147-1.523.441-.417.294-.732.726-.945 1.293V9.75c.469 1.063 1.297 1.594 2.484 1.594.771 0 1.374-.305 1.809-.914.433-.61.651-1.521.651-2.735zM19.328 7.648c0-.813.157-1.544.473-2.195a3.606 3.606 0 011.336-1.52c.575-.362 1.228-.543 1.957-.543 1.125 0 2.036.395 2.734 1.184.698.789 1.047 1.835 1.047 3.137v.195c0 .818-.158 1.554-.473 2.207-.315.654-.759 1.158-1.332 1.512-.573.354-1.227.531-1.961.531-1.12 0-2.03-.395-2.73-1.184-.701-.789-1.051-1.834-1.051-3.137v-.187zm.938.258c0 1.011.262 1.84.785 2.488s1.209.973 2.059.973c.844 0 1.527-.324 2.051-.973s.785-1.504.785-2.566v-.18c0-.646-.12-1.237-.359-1.773-.24-.536-.576-.952-1.008-1.246a2.578 2.578 0 00-1.484-.441c-.833 0-1.513.327-2.039.98-.526.654-.789 1.509-.789 2.566v.172zM34.242 10.93c-.563.818-1.461 1.227-2.695 1.227-.901 0-1.586-.262-2.055-.785s-.708-1.298-.719-2.324v-5.5h.93V8.93c0 1.609.651 2.414 1.953 2.414 1.354 0 2.211-.56 2.57-1.68V3.547h.938V12h-.906l-.016-1.07zM39.047 1.383v2.164h1.75v.766h-1.75v5.639c0 .469.084.819.254 1.048.169.229.452.344.848.344.156 0 .409-.026.758-.078l.039.759c-.245.088-.578.132-1 .132-.641 0-1.107-.186-1.398-.559-.292-.372-.438-.92-.438-1.645v-5.64h-1.555v-.766h1.555V1.383h.937zM48.117.625l4.195 10.039L56.523.625h1.281V12h-.961V7.047l.078-5.078L52.688 12h-.742l-4.219-9.992.078 5.008V12h-.961V.625h1.273zM63.742 12.156a3.614 3.614 0 01-3.304-2.011c-.323-.633-.484-1.342-.484-2.129V7.68c0-.813.157-1.544.473-2.195a3.76 3.76 0 011.316-1.535 3.252 3.252 0 011.828-.559c1.026 0 1.84.351 2.441 1.051.602.701.902 1.658.902 2.871v.523h-6.031v.18c0 .958.274 1.757.824 2.395.549.638 1.241.957 2.074.957.5 0 .941-.091 1.324-.273.383-.182.73-.474 1.043-.875l.586.445c-.687.994-1.685 1.491-2.992 1.491zm-.172-7.968c-.703 0-1.296.258-1.777.773-.482.516-.775 1.208-.879 2.078h5.07v-.101c-.026-.813-.258-1.474-.695-1.984-.437-.511-1.011-.766-1.719-.766z"></path>
  </g>
</svg>