<svg xmlns="http://www.w3.org/2000/svg" width="1377.669" height="151.381" viewBox="0 0 1377.669 151.381">
  <g fill="#e8e8e8">
    <path d="M187.341 145.53c0 .924-.155 1.386-.462 1.386-5.237 0-9.395-.075-12.474-.23l-17.094-.231-17.325.231c-2.927.155-6.93.23-12.012.23-.462 0-.693-.462-.693-1.386s.231-1.386.693-1.386c6.468 0 10.857-.77 13.167-2.311 2.31-1.537 3.465-4.771 3.465-9.702l-.231-3.927-4.851-94.479-47.586 111.574c-.311.617-.924.925-1.848.925s-1.541-.308-1.848-.925L29.799 34.188l-1.848 83.391c-.155 8.316 1.501 14.824 4.966 19.52 3.465 4.699 8.352 7.046 14.668 7.046.462 0 .693.462.693 1.386s-.231 1.386-.693 1.386c-4.158 0-7.392-.075-9.702-.23l-12.705-.231-14.553.231c-2.465.155-5.775.23-9.933.23-.462 0-.693-.462-.693-1.386s.231-1.386.693-1.386c6.313 0 11.319-2.386 15.015-7.161 3.696-4.771 5.62-11.239 5.775-19.404l2.079-95.634-.231-.231c-3.083-5.695-6.277-9.854-9.586-12.474C10.431 6.623 6.62 5.313 2.31 5.313c-.462 0-.693-.462-.693-1.386 0-.924.231-1.386.693-1.386l10.857.231c2.155.155 4.927.231 8.316.231l12.243-.231c1.386-.151 3.155-.231 5.313-.231 2 0 3.541.693 4.62 2.079 1.076 1.386 3.079 4.699 6.006 9.933l50.358 94.479 43.89-100.716c.924-2.155 1.884-3.656 2.888-4.504 1-.845 2.346-1.271 4.042-1.271 1.386 0 2.963.08 4.735.231 1.769.155 3.812.231 6.122.231l13.629-.231c2.155-.151 5.233-.231 9.24-.231.462 0 .693.462.693 1.386 0 .924-.231 1.386-.693 1.386-7.24 0-12.474 1.465-15.708 4.389-3.234 2.927-4.699 7.471-4.389 13.629l5.544 104.874c.307 4.775.884 8.24 1.732 10.396.845 2.158 2.386 3.62 4.62 4.389 2.23.772 5.735 1.155 10.51 1.155.308 0 .463.461.463 1.385zM238.737 139.64c-11.167-6.699-19.79-15.783-25.872-27.258-6.085-11.471-9.125-23.984-9.125-37.537 0-15.86 4.003-29.453 12.012-40.772 8.005-11.319 18.285-19.826 30.838-25.525C259.141 2.852 271.962 0 285.053 0c14.629 0 27.489 3.429 38.577 10.279 11.088 6.854 19.595 15.903 25.525 27.143 5.927 11.243 8.894 23.18 8.894 35.806 0 14.015-3.696 26.875-11.088 38.577-7.392 11.705-17.289 20.944-29.684 27.72-12.398 6.778-25.836 10.164-40.31 10.164-14.321-.001-27.066-3.35-38.23-10.049zm69.069-3.235c6.851-5.002 12.204-12.318 16.055-21.944 3.848-9.623 5.775-21.137 5.775-34.535 0-14.166-2.158-26.832-6.468-37.999-4.313-11.164-10.55-19.902-18.711-26.219-8.165-6.313-17.711-9.471-28.644-9.471-14.015 0-24.796 5.277-32.34 15.824-7.547 10.55-11.319 25.294-11.319 44.236 0 14.939 2.271 28.298 6.814 40.079 4.541 11.781 10.778 20.984 18.711 27.604 7.93 6.623 16.899 9.933 26.912 9.933 8.623 0 16.361-2.501 23.215-7.508zM415.681 139.64c-11.167-6.699-19.79-15.783-25.872-27.258-6.085-11.471-9.125-23.984-9.125-37.537 0-15.86 4.003-29.453 12.012-40.772 8.005-11.319 18.285-19.826 30.838-25.525C436.085 2.852 448.906 0 461.997 0c14.629 0 27.489 3.429 38.577 10.279 11.088 6.854 19.595 15.903 25.525 27.143 5.927 11.243 8.894 23.18 8.894 35.806 0 14.015-3.696 26.875-11.088 38.577-7.392 11.705-17.289 20.944-29.684 27.72-12.398 6.778-25.836 10.164-40.31 10.164-14.321-.001-27.066-3.35-38.23-10.049zm69.069-3.235c6.851-5.002 12.204-12.318 16.055-21.944 3.848-9.623 5.775-21.137 5.775-34.535 0-14.166-2.158-26.832-6.468-37.999-4.313-11.164-10.55-19.902-18.711-26.219-8.165-6.313-17.711-9.471-28.644-9.471-14.015 0-24.796 5.277-32.34 15.824-7.547 10.55-11.319 25.294-11.319 44.236 0 14.939 2.271 28.298 6.814 40.079 4.541 11.781 10.778 20.984 18.711 27.604 7.93 6.623 16.899 9.933 26.912 9.933 8.623 0 16.361-2.501 23.215-7.508zM713.785 3.927c0 .924-.155 1.386-.462 1.386-6.162 0-11.012 2.425-14.553 7.276-3.544 4.851-5.313 11.359-5.313 19.52v118.272c0 .462-.347.77-1.04.925-.693.151-1.195.075-1.501-.231L582.577 27.72v89.859c0 8.165 1.693 14.633 5.082 19.404 3.385 4.775 8.085 7.161 14.091 7.161.307 0 .462.462.462 1.386s-.155 1.386-.462 1.386c-4.313 0-7.623-.075-9.933-.23l-12.474-.231-14.322.231c-2.62.155-6.392.23-11.319.23-.462 0-.693-.462-.693-1.386s.231-1.386.693-1.386c6.775 0 12.127-2.386 16.054-7.161 3.927-4.771 5.891-11.239 5.891-19.404V19.866c-5.082-5.544-9.435-9.355-13.051-11.435-3.62-2.079-7.356-3.119-11.204-3.119-.311 0-.462-.462-.462-1.386 0-.924.151-1.386.462-1.386l9.702.231c2 .155 4.927.231 8.778.231l17.556-.231c2.155-.151 4.771-.231 7.854-.231 1.23 0 2.155.311 2.772.924.613.617 1.693 1.928 3.234 3.927 2.617 3.544 4.465 5.93 5.544 7.161l79.926 92.169V32.109c0-8.316-1.697-14.86-5.082-19.635-3.39-4.771-8.085-7.161-14.091-7.161-.31 0-.462-.462-.462-1.386 0-.924.152-1.386.462-1.386l9.933.231c4.927.311 9.085.462 12.474.462 3.079 0 7.392-.151 12.936-.462l10.395-.231c.306 0 .462.462.462 1.386zM760.559 40.656c2.849 4.313 6.353 8.085 10.511 11.319s9.778 7.161 16.863 11.781c7.699 4.931 13.86 9.24 18.479 12.937 4.62 3.696 8.548 8.2 11.781 13.514 3.234 5.313 4.852 11.435 4.852 18.364 0 8.009-2.159 15.131-6.469 21.367-4.313 6.237-10.279 11.088-17.902 14.554-7.623 3.465-16.134 5.197-25.525 5.197-6.93 0-14.17-.964-21.714-2.888-7.547-1.924-12.629-4.043-15.246-6.353-.772-.613-1.35-1.191-1.732-1.732-.386-.538-.577-1.422-.577-2.656l-.693-36.729V99.1c0-.614.383-.96 1.155-1.04.769-.075 1.23.195 1.386.809 4.62 9.396 8.662 17.019 12.128 22.869 3.465 5.854 7.854 11.012 13.167 15.477 5.313 4.469 11.354 6.699 18.133 6.699 6.158 0 11.24-1.653 15.246-4.967 4.003-3.31 6.006-8.969 6.006-16.979 0-6.774-1.501-12.704-4.504-17.786s-6.663-9.392-10.973-12.937c-4.313-3.541-10.243-7.774-17.787-12.705-7.392-4.771-13.131-8.854-17.21-12.243-4.082-3.385-7.587-7.468-10.51-12.243-2.928-4.772-4.39-10.395-4.39-16.863 0-8.161 2.347-15.051 7.046-20.674 4.695-5.62 10.741-9.778 18.134-12.474C767.604 1.35 775.379 0 783.544 0c5.389 0 10.856.502 16.4 1.501 5.544 1.003 10.009 2.194 13.398 3.581 1.386.617 2.31 1.271 2.771 1.963s.693 1.581.693 2.657v33.957c0 .462-.387.808-1.155 1.04-.772.231-1.234.115-1.386-.347l-1.848-4.389c-3.852-9.702-8.356-17.938-13.514-24.717-5.161-6.775-12.358-10.164-21.599-10.164-6.161 0-11.203 1.772-15.131 5.313-3.927 3.544-5.891 8.702-5.891 15.477.003 5.544 1.426 10.474 4.277 14.784zM1004.842 145.53c0 .924-.231 1.386-.693 1.386-5.393 0-9.702-.075-12.936-.23l-17.787-.231-20.79.231c-2.772.155-6.548.23-11.319.23-.462 0-.693-.462-.693-1.386s.231-1.386.693-1.386c5.695 0 9.854-.383 12.474-1.155 2.617-.769 4.39-2.23 5.313-4.389.924-2.155 1.386-5.62 1.386-10.396v-53.13h-74.613v53.13c0 4.62.463 8.049 1.387 10.279.924 2.234 2.692 3.736 5.313 4.505 2.617.772 6.775 1.155 12.475 1.155.307 0 .462.462.462 1.386s-.155 1.386-.462 1.386c-5.393 0-9.702-.075-12.937-.23l-20.097-.231-17.325.231c-3.082.155-7.316.23-12.705.23-.311 0-.462-.462-.462-1.386s.151-1.386.462-1.386c5.389 0 9.315-.383 11.781-1.155 2.461-.769 4.158-2.271 5.082-4.505.924-2.23 1.386-5.659 1.386-10.279V21.252c0-4.62-.462-8.005-1.386-10.164-.924-2.155-2.581-3.656-4.967-4.504-2.39-.845-6.201-1.271-11.435-1.271-.462 0-.692-.462-.692-1.386 0-.924.23-1.386.692-1.386l12.475.231c7.081.311 12.78.462 17.094.462 5.851 0 12.625-.151 20.328-.462l12.705-.231c.307 0 .462.462.462 1.386 0 .924-.155 1.386-.462 1.386-5.544 0-9.627.462-12.243 1.386-2.621.924-4.429 2.505-5.429 4.735-1.004 2.234-1.502 5.66-1.502 10.279v46.894h74.613V21.714c0-4.62-.462-8.045-1.386-10.279-.924-2.23-2.696-3.812-5.313-4.735-2.62-.924-6.778-1.386-12.474-1.386-.462 0-.693-.462-.693-1.386 0-.924.231-1.386.693-1.386l11.319.231c7.698.311 14.629.462 20.79.462 4.157 0 10.084-.151 17.787-.462l12.936-.231c.462 0 .693.462.693 1.386 0 .924-.231 1.386-.693 1.386-5.237 0-9.125.426-11.666 1.271-2.54.848-4.237 2.35-5.081 4.504-.849 2.159-1.271 5.544-1.271 10.164v106.953c0 4.62.422 8.049 1.271 10.279.844 2.234 2.501 3.736 4.966 4.505 2.462.772 6.389 1.155 11.781 1.155.461 0 .693.461.693 1.385zM1065.131 138.601c.769 2.158 2.271 3.62 4.505 4.389 2.23.772 5.811 1.155 10.741 1.155.462 0 .693.462.693 1.386s-.231 1.386-.693 1.386c-5.082 0-9.088-.075-12.012-.23l-17.557-.231-17.094.231c-3.082.155-7.24.23-12.474.23-.311 0-.462-.462-.462-1.386s.151-1.386.462-1.386c4.927 0 8.547-.383 10.856-1.155 2.311-.769 3.888-2.271 4.735-4.505.845-2.23 1.271-5.659 1.271-10.279V21.252c0-4.62-.426-8.005-1.271-10.164-.848-2.155-2.425-3.656-4.735-4.504-2.31-.845-5.93-1.271-10.856-1.271-.311 0-.462-.462-.462-1.386 0-.924.151-1.386.462-1.386l12.474.231c7.082.311 12.781.462 17.094.462 4.771 0 10.702-.151 17.787-.462l11.781-.231c.462 0 .693.462.693 1.386 0 .924-.231 1.386-.693 1.386-4.775 0-8.315.462-10.626 1.386-2.31.924-3.852 2.505-4.62 4.735-.771 2.234-1.155 5.66-1.155 10.279v106.491c.001 4.776.384 8.241 1.156 10.397zM1258.015 3.927c0 .924-.155 1.386-.462 1.386-6.161 0-11.012 2.425-14.553 7.276-3.544 4.851-5.313 11.359-5.313 19.52v118.272c0 .462-.347.77-1.04.925-.693.151-1.194.075-1.501-.231L1126.807 27.72v89.859c0 8.165 1.693 14.633 5.082 19.404 3.386 4.775 8.085 7.161 14.092 7.161.307 0 .462.462.462 1.386s-.155 1.386-.462 1.386c-4.313 0-7.623-.075-9.934-.23l-12.474-.231-14.322.231c-2.62.155-6.393.23-11.319.23-.462 0-.692-.462-.692-1.386s.23-1.386.692-1.386c6.775 0 12.128-2.386 16.055-7.161 3.927-4.771 5.891-11.239 5.891-19.404V19.866c-5.082-5.544-9.435-9.355-13.052-11.435-3.62-2.079-7.355-3.119-11.203-3.119-.311 0-.462-.462-.462-1.386 0-.924.151-1.386.462-1.386l9.702.231c1.999.155 4.927.231 8.777.231l17.557-.231c2.154-.151 4.771-.231 7.854-.231 1.231 0 2.155.311 2.772.924.613.617 1.692 1.928 3.233 3.927 2.617 3.544 4.465 5.93 5.545 7.161l79.926 92.169V32.109c0-8.316-1.696-14.86-5.082-19.635-3.39-4.771-8.085-7.161-14.091-7.161-.311 0-.462-.462-.462-1.386 0-.924.151-1.386.462-1.386l9.933.231c4.927.311 9.085.462 12.474.462 3.079 0 7.393-.151 12.937-.462l10.395-.231c.304 0 .46.462.46 1.386zM1375.821 109.726c.462 0 .885.115 1.271.346.383.231.577.427.577.578-1.541 12.012-2.31 22.948-2.31 32.802 0 1.234-.231 2.119-.693 2.656-.462.542-1.386.809-2.771.809h-102.103c-.462 0-.692-.462-.692-1.386s.23-1.386.692-1.386c4.927 0 8.508-.383 10.742-1.155 2.23-.769 3.731-2.271 4.504-4.505.769-2.23 1.155-5.659 1.155-10.279V21.252c0-4.62-.387-8.005-1.155-10.164-.772-2.155-2.31-3.656-4.62-4.504-2.31-.845-5.854-1.271-10.626-1.271-.462 0-.692-.462-.692-1.386 0-.924.23-1.386.692-1.386h97.944c1.537 0 2.31.693 2.31 2.079l.462 30.723c0 .311-.426.542-1.271.693-.848.155-1.35 0-1.501-.462-2.465-8.93-6.623-15.553-12.474-19.866-5.854-4.31-13.554-6.468-23.101-6.468h-6.93c-4.62 0-8.01 1.003-10.164 3.003-2.158 2.003-3.234 5.082-3.234 9.24v47.125h19.173c8.93 0 15.784-1.538 20.56-4.62 4.771-3.079 7.161-7.392 7.161-12.937 0-.462.422-.693 1.271-.693.845 0 1.271.231 1.271.693l-.231 20.79.231 11.089c.307 5.236.462 9.395.462 12.474 0 .311-.462.462-1.386.462-.925 0-1.387-.151-1.387-.462 0-6.313-2.425-11.279-7.276-14.899-4.851-3.617-11.82-5.429-20.905-5.429h-18.942v52.206c0 4.469.845 7.778 2.541 9.933 1.693 2.159 4.39 3.234 8.085 3.234h7.623c12.013 0 21.635-2.462 28.875-7.392 7.237-4.927 12.55-12.55 15.939-22.869-.001-.307.306-.462.923-.462z"></path>
  </g>
</svg>