<svg xmlns="http://www.w3.org/2000/svg" width="117.188" height="15.414">
  <g fill="#1B1B1B">
    <path d="M5.906.625h.969v7.992c0 1.078-.312 1.938-.934 2.578-.623.641-1.457.961-2.504.961-1.104 0-1.953-.289-2.547-.867S0 9.904 0 8.867h.961c0 .823.216 1.441.648 1.855.432.414 1.042.621 1.828.621.724 0 1.313-.239 1.77-.719.456-.479.688-1.13.699-1.953V.625zM8.953 7.648c0-.813.157-1.544.473-2.195a3.606 3.606 0 011.336-1.52c.575-.362 1.228-.543 1.957-.543 1.125 0 2.036.395 2.734 1.184.698.789 1.047 1.835 1.047 3.137v.195c0 .818-.158 1.554-.473 2.207-.315.654-.759 1.158-1.332 1.512-.573.354-1.227.531-1.961.531-1.12 0-2.03-.395-2.73-1.184-.701-.789-1.051-1.834-1.051-3.137v-.187zm.938.258c0 1.011.262 1.84.785 2.488s1.209.973 2.059.973c.844 0 1.527-.324 2.051-.973s.785-1.504.785-2.566v-.18c0-.646-.12-1.237-.359-1.773-.24-.536-.576-.952-1.008-1.246a2.578 2.578 0 00-1.484-.441c-.833 0-1.513.327-2.039.98-.526.654-.789 1.509-.789 2.566v.172zM20.992 10.656l2.469-7.109h1.008l-3.609 9.891-.188.438c-.464 1.026-1.18 1.539-2.148 1.539-.224 0-.464-.037-.719-.109l-.008-.773.484.047c.458 0 .829-.113 1.113-.34.284-.227.524-.616.723-1.168l.414-1.141-3.188-8.383h1.023l2.626 7.108zM36.164 8.805H31L29.828 12H28.82L33.125.625h.914L38.344 12h-1l-1.18-3.195zm-4.867-.813h4.563l-2.281-6.195-2.282 6.195zM42.922 11.367c.651 0 1.196-.184 1.637-.551a1.94 1.94 0 00.715-1.426h.898a2.65 2.65 0 01-.484 1.41c-.297.425-.691.757-1.184.996s-1.02.359-1.582.359c-1.109 0-1.988-.385-2.637-1.156-.648-.771-.973-1.807-.973-3.109v-.281c0-.833.146-1.57.438-2.211.292-.641.709-1.135 1.254-1.484.544-.349 1.181-.523 1.91-.523.927 0 1.691.276 2.293.828.602.552.923 1.279.965 2.18h-.898c-.042-.661-.28-1.195-.715-1.602-.435-.406-.983-.609-1.645-.609-.844 0-1.499.305-1.965.914-.466.609-.699 1.464-.699 2.563v.273c0 1.078.233 1.919.699 2.523.466.604 1.124.906 1.973.906zM51.945 4.344a3.535 3.535 0 00-.633-.055c-.583 0-1.077.163-1.48.488-.404.326-.691.798-.863 1.418V12h-.93V3.547h.914l.016 1.344c.495-1 1.289-1.5 2.383-1.5.26 0 .466.034.617.102l-.024.851zM56.242 10.656l2.469-7.109h1.008l-3.609 9.891-.188.438c-.464 1.026-1.18 1.539-2.148 1.539-.224 0-.464-.037-.719-.109l-.008-.773.484.047c.458 0 .829-.113 1.113-.34.284-.227.524-.616.723-1.168l.414-1.141-3.188-8.383h1.023l2.626 7.108zM62.211 12h-.938V0h.938v12zM64.695 1.105c0-.176.057-.325.172-.446a.612.612 0 01.469-.183c.198 0 .355.061.473.183s.176.271.176.446-.059.323-.176.442-.275.179-.473.179a.622.622 0 01-.469-.179.609.609 0 01-.172-.442zM65.797 12h-.938V3.547h.938V12zM71.461 11.367c.651 0 1.196-.184 1.637-.551a1.94 1.94 0 00.715-1.426h.898a2.65 2.65 0 01-.484 1.41c-.297.425-.691.757-1.184.996s-1.02.359-1.582.359c-1.109 0-1.988-.385-2.637-1.156-.648-.771-.973-1.807-.973-3.109v-.281c0-.833.146-1.57.438-2.211.292-.641.709-1.135 1.254-1.484.544-.349 1.181-.523 1.91-.523.927 0 1.691.276 2.293.828.602.552.923 1.279.965 2.18h-.898c-.042-.661-.28-1.195-.715-1.602-.435-.406-.983-.609-1.645-.609-.844 0-1.499.305-1.965.914-.466.609-.699 1.464-.699 2.563v.273c0 1.078.233 1.919.699 2.523.466.604 1.124.906 1.973.906zM87.445 12H80.32v-.719l3.898-4.422c.646-.745 1.094-1.359 1.344-1.844s.375-.956.375-1.414c0-.719-.211-1.288-.633-1.707-.422-.419-1.003-.629-1.742-.629-.766 0-1.384.245-1.855.734C81.235 2.49 81 3.125 81 3.906h-.93c0-.641.145-1.224.434-1.75A3.12 3.12 0 0181.738.918c.534-.299 1.142-.449 1.824-.449 1.042 0 1.855.273 2.441.82s.879 1.292.879 2.234c0 .531-.166 1.112-.496 1.742-.331.63-.913 1.417-1.746 2.359l-3.172 3.586h5.977V12zM96.047 7.258c0 1.604-.294 2.822-.883 3.652-.589.831-1.456 1.246-2.602 1.246-1.125 0-1.987-.407-2.586-1.223-.599-.815-.906-2.001-.922-3.559V5.336c0-1.599.297-2.81.891-3.633C90.539.88 91.406.469 92.547.469c1.125 0 1.984.397 2.578 1.191.594.794.901 1.965.922 3.512v2.086zm-.938-2.039c0-1.302-.212-2.286-.637-2.953-.425-.667-1.066-1-1.926-1-.844 0-1.479.326-1.906.977-.427.651-.646 1.612-.656 2.883V7.36c0 1.297.22 2.289.66 2.977.44.688 1.079 1.031 1.918 1.031.833 0 1.465-.336 1.895-1.008s.647-1.656.652-2.953V5.219zM105.18 12h-7.125v-.719l3.898-4.422c.646-.745 1.094-1.359 1.344-1.844s.375-.956.375-1.414c0-.719-.211-1.288-.633-1.707-.422-.419-1.003-.629-1.742-.629-.766 0-1.384.245-1.855.734-.472.49-.707 1.125-.707 1.906h-.93c0-.641.145-1.224.434-1.75A3.12 3.12 0 0199.473.917c.534-.299 1.142-.449 1.824-.449 1.042 0 1.855.273 2.441.82s.879 1.292.879 2.234c0 .531-.166 1.112-.496 1.742-.331.63-.913 1.417-1.746 2.359l-3.172 3.586h5.977V12zM113.781 7.258c0 1.604-.294 2.822-.883 3.652-.589.831-1.456 1.246-2.602 1.246-1.125 0-1.987-.407-2.586-1.223-.599-.815-.906-2.001-.922-3.559V5.336c0-1.599.297-2.81.891-3.633.594-.823 1.461-1.234 2.602-1.234 1.125 0 1.984.397 2.578 1.191.594.794.901 1.965.922 3.512v2.086zm-.937-2.039c0-1.302-.212-2.286-.637-2.953-.425-.667-1.066-1-1.926-1-.844 0-1.479.326-1.906.977-.427.651-.646 1.612-.656 2.883V7.36c0 1.297.22 2.289.66 2.977.44.688 1.079 1.031 1.918 1.031.833 0 1.465-.336 1.895-1.008s.647-1.656.652-2.953V5.219zM115.852 11.438c0-.182.059-.337.176-.465.117-.127.28-.191.488-.191.208 0 .372.064.492.191.12.128.18.283.18.465 0 .183-.06.332-.18.449-.12.117-.284.176-.492.176-.208 0-.371-.059-.488-.176s-.176-.267-.176-.449z"></path>
  </g>
</svg>