<svg width="81" height="70" viewBox="0 0 81 70" fill="none" xmlns="http://www.w3.org/2000/svg">
<mask id="path-1-inside-1_1_83" fill="white">
<path fill-rule="evenodd" clip-rule="evenodd" d="M1.21523 10.9375C1.21523 14.7566 3.17263 18.1185 6.13892 20.0748C6.19879 20.1142 6.2126 20.1966 6.16848 20.2532C2.26116 25.2604 0 31.1926 0 37.5521C0 55.4726 17.9552 70 40.1042 70C62.2531 70 80.2083 55.4726 80.2083 37.5521C80.2083 31.1474 77.9149 25.1762 73.9563 20.1466C73.9123 20.0907 73.9251 20.0091 73.9838 19.969C76.8617 17.9987 78.75 14.6886 78.75 10.9375C78.75 4.89689 73.8531 0 67.8125 0C62.765 0 58.5161 3.41911 57.2554 8.06762C57.2364 8.13763 57.1613 8.17678 57.0935 8.15107C51.9348 6.19629 46.1771 5.10415 40.1042 5.10415C33.9448 5.10415 28.1097 6.22762 22.8949 8.2351C22.8265 8.2614 22.7507 8.2217 22.7321 8.1509C21.4998 3.46 17.2303 0 12.1527 0C6.11212 0 1.21523 4.89689 1.21523 10.9375Z"/>
</mask>
<path fill-rule="evenodd" clip-rule="evenodd" d="M1.21523 10.9375C1.21523 14.7566 3.17263 18.1185 6.13892 20.0748C6.19879 20.1142 6.2126 20.1966 6.16848 20.2532C2.26116 25.2604 0 31.1926 0 37.5521C0 55.4726 17.9552 70 40.1042 70C62.2531 70 80.2083 55.4726 80.2083 37.5521C80.2083 31.1474 77.9149 25.1762 73.9563 20.1466C73.9123 20.0907 73.9251 20.0091 73.9838 19.969C76.8617 17.9987 78.75 14.6886 78.75 10.9375C78.75 4.89689 73.8531 0 67.8125 0C62.765 0 58.5161 3.41911 57.2554 8.06762C57.2364 8.13763 57.1613 8.17678 57.0935 8.15107C51.9348 6.19629 46.1771 5.10415 40.1042 5.10415C33.9448 5.10415 28.1097 6.22762 22.8949 8.2351C22.8265 8.2614 22.7507 8.2217 22.7321 8.1509C21.4998 3.46 17.2303 0 12.1527 0C6.11212 0 1.21523 4.89689 1.21523 10.9375Z" fill="#D68141"/>
<path d="M57.2554 8.06762L56.0825 7.74953L57.2554 8.06762ZM57.0935 8.15107L56.6628 9.2875L57.0935 8.15107ZM22.8949 8.2351L22.4583 7.10095L22.8949 8.2351ZM22.7321 8.1509L21.5567 8.45966L22.7321 8.1509ZM73.9563 20.1466L74.9113 19.395L73.9563 20.1466ZM73.9838 19.969L74.6703 20.9717L73.9838 19.969ZM6.13892 20.0748L6.80799 19.0602L6.13892 20.0748ZM6.16848 20.2532L7.12658 21.0008L6.16848 20.2532ZM6.80799 19.0602C4.16819 17.3193 2.43051 14.331 2.43051 10.9375H-4.57764e-05C-4.57764e-05 15.1821 2.17706 18.9177 5.46985 21.0893L6.80799 19.0602ZM1.21528 37.5521C1.21528 31.4916 3.36781 25.8177 7.12658 21.0008L5.21039 19.5056C1.15451 24.7032 -1.21528 30.8937 -1.21528 37.5521H1.21528ZM40.1042 68.7847C18.3733 68.7847 1.21528 54.5735 1.21528 37.5521H-1.21528C-1.21528 56.3716 17.5372 71.2153 40.1042 71.2153V68.7847ZM78.993 37.5521C78.993 54.5735 61.835 68.7847 40.1042 68.7847V71.2153C62.6711 71.2153 81.4236 56.3716 81.4236 37.5521H78.993ZM73.0013 20.8982C76.8099 25.7371 78.993 31.4486 78.993 37.5521H81.4236C81.4236 30.8462 79.02 24.6152 74.9113 19.395L73.0013 20.8982ZM77.5347 10.9375C77.5347 14.2707 75.8584 17.2127 73.2972 18.9662L74.6703 20.9717C77.865 18.7846 79.9653 15.1065 79.9653 10.9375H77.5347ZM67.8125 1.21528C73.1819 1.21528 77.5347 5.56807 77.5347 10.9375H79.9653C79.9653 4.22571 74.5243 -1.21528 67.8125 -1.21528V1.21528ZM58.4283 8.38571C59.549 4.25323 63.3275 1.21528 67.8125 1.21528V-1.21528C62.2024 -1.21528 57.4831 2.58499 56.0825 7.74953L58.4283 8.38571ZM40.1042 6.31943C46.0318 6.31943 51.6434 7.3855 56.6628 9.2875L57.5241 7.01465C52.2261 5.00709 46.3224 3.88887 40.1042 3.88887V6.31943ZM23.3315 9.36924C28.4052 7.41608 34.0921 6.31943 40.1042 6.31943V3.88887C33.7974 3.88887 27.8142 5.03915 22.4583 7.10095L23.3315 9.36924ZM12.1527 1.21528C16.6645 1.21528 20.4613 4.28964 21.5567 8.45966L23.9075 7.84214C22.5384 2.63037 17.7962 -1.21528 12.1527 -1.21528V1.21528ZM2.43051 10.9375C2.43051 5.56806 6.7833 1.21528 12.1527 1.21528V-1.21528C5.44094 -1.21528 -4.57764e-05 4.22571 -4.57764e-05 10.9375H2.43051ZM56.0825 7.74953C56.2479 7.13952 56.9083 6.7813 57.5241 7.01465L56.6628 9.2875C57.4143 9.57226 58.2249 9.13575 58.4283 8.38571L56.0825 7.74953ZM22.4583 7.10095C23.0786 6.86216 23.7455 7.22563 23.9075 7.84214L21.5567 8.45966C21.7558 9.21776 22.5745 9.66063 23.3315 9.36924L22.4583 7.10095ZM74.9113 19.395C75.3052 19.8955 75.1874 20.6177 74.6703 20.9717L73.2972 18.9662C72.6628 19.4005 72.5194 20.2859 73.0013 20.8982L74.9113 19.395ZM5.46985 21.0893C4.94209 20.7412 4.81487 20.0124 5.21039 19.5056L7.12658 21.0008C7.61034 20.3809 7.45549 19.4873 6.80799 19.0602L5.46985 21.0893Z" fill="black" mask="url(#path-1-inside-1_1_83)"/>
<mask id="mask0_1_83" style="mask-type:alpha" maskUnits="userSpaceOnUse" x="0" y="5" width="81" height="65">
<ellipse cx="40.1042" cy="37.552" rx="40.1042" ry="32.4479" fill="black"/>
</mask>
<g mask="url(#mask0_1_83)">
<ellipse cx="38.889" cy="6.80554" rx="2.91667" ry="11.9097" fill="black"/>
<ellipse cx="78.2306" cy="24.7142" rx="3.25223" ry="11.9097" transform="rotate(63.7372 78.2306 24.7142)" fill="black"/>
<ellipse rx="3.25223" ry="11.9097" transform="matrix(-0.44249 0.896774 0.896774 0.44249 0.166418 24.7142)" fill="black"/>
<ellipse cx="47.6637" cy="5.07963" rx="2.29531" ry="11.9097" transform="rotate(10.361 47.6637 5.07963)" fill="black"/>
<ellipse cx="81.4902" cy="44.964" rx="1.90829" ry="11.9097" transform="rotate(105.926 81.4902 44.964)" fill="black"/>
<ellipse rx="1.90829" ry="11.9097" transform="matrix(0.274388 0.961619 0.961619 -0.274388 -3.09323 44.964)" fill="black"/>
<ellipse cx="78.4968" cy="51.5517" rx="1.90829" ry="11.9097" transform="rotate(113.995 78.4968 51.5517)" fill="black"/>
<ellipse rx="1.90829" ry="11.9097" transform="matrix(0.406655 0.913582 0.913582 -0.406655 -0.099826 51.5517)" fill="black"/>
<ellipse cx="31.0507" cy="5.05863" rx="2.29531" ry="11.9097" transform="rotate(-7.49118 31.0507 5.05863)" fill="black"/>
<ellipse rx="2.29531" ry="11.9097" transform="matrix(0.983694 -0.17985 -0.17985 -0.983694 42.5595 76.0518)" fill="black"/>
<ellipse rx="2.29531" ry="11.9097" transform="matrix(0.991465 0.130374 0.130374 -0.991465 33.9674 76.0308)" fill="black"/>
</g>
<path d="M40.1042 27.9514C39.6586 29.4097 39.1563 32.7395 40.7119 34.3923" stroke="black" stroke-width="0.972222" stroke-linecap="round"/>
<path d="M35.7292 29.4097C36.1343 30.3009 36.7015 32.6181 35.7292 34.757" stroke="black" stroke-width="0.972222" stroke-linecap="round"/>
<circle cx="29.5312" cy="35.1216" r="1.82292" fill="black"/>
<circle cx="47.0312" cy="35.1216" r="1.82292" fill="black"/>
<path d="M52.744 48.4583C52.6371 50.1156 51.1989 52.1559 48.633 53.8078C46.0938 55.4425 42.5397 56.6319 38.4027 56.6319C34.2538 56.6319 30.6486 55.5767 28.0275 54.0099C25.3911 52.434 23.8172 50.3863 23.5726 48.4293C23.3612 46.7382 23.3429 45.4754 23.6099 44.5143C23.8665 43.5905 24.3931 42.9222 25.3644 42.4196C26.366 41.9013 27.8436 41.5587 29.99 41.3514C32.1281 41.1449 34.8807 41.0764 38.4027 41.0764C42.0984 41.0764 44.8707 41.2439 46.9458 41.5714C49.0267 41.8997 50.3639 42.3828 51.2238 42.983C52.0607 43.5672 52.472 44.2807 52.6646 45.1594C52.8637 46.0679 52.8286 47.1475 52.744 48.4583Z" fill="#D6B67B" stroke="black" stroke-width="0.972222"/>
<circle cx="30.0174" cy="45.0868" r="0.607639" fill="black"/>
<circle cx="26.3716" cy="44.8438" r="0.607639" fill="black"/>
<circle cx="28.0728" cy="47.5174" r="0.607639" fill="black"/>
<circle cx="46.5451" cy="44.8438" r="0.607639" fill="black"/>
<circle cx="49.9478" cy="44.8438" r="0.607639" fill="black"/>
<circle cx="48.0034" cy="47.7605" r="0.607639" fill="black"/>
<path d="M32.934 49.0972L38.1597 46.7882L43.6284 49.0972" stroke="black" stroke-width="0.972222" stroke-linecap="round"/>
<path d="M38.1598 43.3854V46.7882" stroke="black" stroke-width="0.972222" stroke-linecap="round"/>
<path d="M43.2639 40.9549C43.2639 42.3644 40.9787 43.507 38.1597 43.507C35.3408 43.507 33.0555 42.3644 33.0555 40.9549C33.0555 39.5454 33.5196 38.4028 38.1597 38.4028C42.3358 38.4028 43.2639 39.5454 43.2639 40.9549Z" fill="black"/>
<path fill-rule="evenodd" clip-rule="evenodd" d="M18.2123 10.9762C15.1799 12.6031 12.4367 14.5548 10.0586 16.7699C8.00048 15.8688 6.5625 13.8141 6.5625 11.4236C6.5625 8.20194 9.17417 5.59027 12.3958 5.59027C15.4669 5.59027 17.9837 7.96356 18.2123 10.9762Z" fill="#2B1B10"/>
<path fill-rule="evenodd" clip-rule="evenodd" d="M61.7637 10.6093C64.8543 12.2427 67.6493 14.2117 70.0696 16.4524C72.0403 15.5162 73.4027 13.5075 73.4027 11.1806C73.4027 7.9589 70.7911 5.34723 67.5694 5.34723C64.5405 5.34723 62.0507 7.65576 61.7637 10.6093Z" fill="#2B1B10"/>
<path d="M57.5496 27.9514C57.2256 29.5717 57.0878 32.8125 59.1295 32.8125C59.8182 33.015 61.1469 32.6666 60.9524 29.6527" stroke="white" stroke-opacity="0.6" stroke-width="0.729167" stroke-linecap="round"/>
<path d="M61.2625 36.9445C60.9385 38.5648 60.8007 41.8056 62.8424 41.8056C63.5311 42.0081 64.8598 41.6597 64.6653 38.6458" stroke="white" stroke-opacity="0.6" stroke-width="0.729167" stroke-linecap="round"/>
</svg>
