<svg xmlns="http://www.w3.org/2000/svg" width="190" height="130" viewBox="0 0 190 130">
  <path d="M188 2v126H2V2h186m2-2H0v130h190V0z"></path>
  <path d="M35 49.841h58.167v2H35zM35 56.841h58.167v2H35zM35 63.841h58.167v2H35zM35 70.841h31.833v2H35zM17.563 45.883c1.378 0 2.5 1.122 2.5 2.5s-1.122 2.5-2.5 2.5-2.5-1.122-2.5-2.5 1.121-2.5 2.5-2.5m0-2a4.5 4.5 0 100 9 4.5 4.5 0 000-9zM17.563 56.883c1.378 0 2.5 1.122 2.5 2.5s-1.122 2.5-2.5 2.5-2.5-1.122-2.5-2.5 1.121-2.5 2.5-2.5m0-2a4.5 4.5 0 100 9 4.5 4.5 0 000-9zM17.563 67.883c1.378 0 2.5 1.122 2.5 2.5s-1.122 2.5-2.5 2.5-2.5-1.122-2.5-2.5 1.121-2.5 2.5-2.5m0-2a4.5 4.5 0 100 9 4.5 4.5 0 000-9zM17.563 78.883c1.378 0 2.5 1.122 2.5 2.5s-1.122 2.5-2.5 2.5-2.5-1.122-2.5-2.5 1.121-2.5 2.5-2.5m0-2a4.5 4.5 0 100 9 4.5 4.5 0 000-9z"></path>
  <path d="M116.214 64.842c0-24.82 9.724-47.41 25.559-64.167h-2.731c-15.419 16.967-24.828 39.489-24.828 64.167 0 24.678 9.409 47.2 24.828 64.167h2.731c-15.835-16.758-25.559-39.347-25.559-64.167z"></path>
</svg>
