<svg xmlns="http://www.w3.org/2000/svg" width="183" height="84" viewBox="0 0 183 84">
  <path d="M9 2c3.86 0 7 3.14 7 7s-3.14 7-7 7-7-3.14-7-7 3.14-7 7-7m0-2C4.029 0 0 4.029 0 9s4.029 9 9 9 9-4.029 9-9-4.029-9-9-9zM34 4h149v2H34zM34 11h83v2H34zM9 35c3.86 0 7 3.14 7 7s-3.14 7-7 7-7-3.14-7-7 3.14-7 7-7m0-2c-4.971 0-9 4.029-9 9s4.029 9 9 9 9-4.029 9-9-4.029-9-9-9zM34 37h149v2H34zM34 44h83v2H34zM9 68c3.86 0 7 3.14 7 7s-3.14 7-7 7-7-3.14-7-7 3.14-7 7-7m0-2c-4.971 0-9 4.029-9 9s4.029 9 9 9 9-4.029 9-9-4.029-9-9-9zM34 70h149v2H34zM34 77h83v2H34z"></path>
</svg>
