<svg xmlns="http://www.w3.org/2000/svg" width="190" height="130" viewBox="0 0 190 130">
  <path d="M16 10v6h-6v-6h6m2-2H8v10h10V8zM172 8h10v2h-10zM172 11h10v2h-10zM172 14h10v2h-10z"></path>
  <path d="M0 0v130h190V0H0zm188 2v22H2V2h186zm-47 126H96V86h8v-8h37v50zM49 26h6v6h-6v-6zm8 8v-8h37v50H49V34h8zm86-8h6v6h-6v-6zm-2 50H96V34h8v-8h37v50zm-39-44h-6v-6h6v6zm-6 46h6v6h-6v-6zm47 0h6v6h-6v-6zm0-2V34h8v-8h37v50h-45zM2 26h6v6H2v-6zm8 8v-8h37v50H2V34h8zM2 78h6v6H2v-6zm0 8h8v-8h84v50H2V86zm141 42V86h8v-8h37v50h-45z"></path>
</svg>