<svg xmlns="http://www.w3.org/2000/svg" width="190" height="130" viewBox="0 0 190 130">
  <path d="M16 9v6h-6V9h6m2-2H8v10h10V7zM172 8h10v2h-10zM172 11h10v2h-10zM172 14h10v2h-10zM140 26v66H10V26h130m2-2H8v70h134V24z"></path>
  <path d="M0 0v130h190V0H0zm10 128v-26h130v26H10zm178 0h-46v-28H8v28H2V2h186v126z"></path>
  <path d="M148 79h24v2h-24zM148 85h19v2h-19zM148 91h28v2h-28zM148 97h22v2h-22zM148 103h24v2h-24zM148 109h19v2h-19zM148 115h28v2h-28zM148 121h22v2h-22zM180 26v35h-30V26h30m2-2h-34v39h34V24zM180 69v4h-30v-4h30m2-2h-34v8h34v-8z"></path>
</svg>