<svg xmlns="http://www.w3.org/2000/svg" width="190" height="115" viewBox="0 0 190 115">
  <path d="M150 49c1.103 0 2 .897 2 2v60c0 1.103-.897 2-2 2h-28c-1.103 0-2-.897-2-2V51c0-1.103.897-2 2-2h28m0-2h-28a4 4 0 00-4 4v60a4 4 0 004 4h28a4 4 0 004-4V51a4 4 0 00-4-4z"></path>
  <path d="M118 56h36v2h-36zM118 102h36v2h-36z"></path>
  <path d="M161 0H32v88h86v-2H34V2h125v84h-5v2h7zM168 86V2h22V0h-24v88h24v-2zM26 0H0v2h24v84H0v2h26zM71.25 105c1.379 0 2.5 1.121 2.5 2.5s-1.121 2.5-2.5 2.5-2.5-1.121-2.5-2.5 1.121-2.5 2.5-2.5m0-2a4.5 4.5 0 100 9 4.5 4.5 0 000-9zM82.25 105c1.379 0 2.5 1.121 2.5 2.5s-1.121 2.5-2.5 2.5-2.5-1.121-2.5-2.5 1.121-2.5 2.5-2.5m0-2a4.5 4.5 0 100 9 4.5 4.5 0 000-9zM93.25 105c1.379 0 2.5 1.121 2.5 2.5s-1.121 2.5-2.5 2.5-2.5-1.121-2.5-2.5 1.121-2.5 2.5-2.5m0-2a4.5 4.5 0 100 9 4.5 4.5 0 000-9zM104.25 105c1.379 0 2.5 1.121 2.5 2.5s-1.121 2.5-2.5 2.5-2.5-1.121-2.5-2.5 1.121-2.5 2.5-2.5m0-2a4.5 4.5 0 100 9 4.5 4.5 0 000-9z"></path>
</svg>
