<svg xmlns="http://www.w3.org/2000/svg" width="190.071" height="129.775" viewBox="0 0 190 130">
  <path d="M99.037 2a3 3 0 013.002 2.991v119.792a3 3 0 01-3.002 2.992H5.002A3 3 0 012 124.783V4.991A3 3 0 015.002 2h94.035m0-2H5.002A4.996 4.996 0 000 4.991v119.792a4.997 4.997 0 005.002 4.992h94.035a4.997 4.997 0 005.002-4.992V4.991A4.997 4.997 0 0099.037 0z"></path>
  <path fill-rule="evenodd" clip-rule="evenodd" d="M.875 9.708H103.5v2H.875zM.875 109.708H103.5v2H.875zM117 20.895h72.976v2H117zM117 27.895h72.976v2H117zM117 34.895h72.976v2H117zM117 41.895h72.976v2H117zM117 48.895h72.976v2H117zM117 55.895h72.976v2H117zM117 62.895h40.25v2H117zM138.875 92.77h4v4h-4zM150.875 92.77h4v4h-4zM162.875 92.77h4v4h-4z"></path>
  <path d="M118.415 94.595l5.656 5.657-1.414 1.414L117 96.01z"></path>
  <path d="M117 96.011l5.656-5.657 1.414 1.414-5.657 5.657zM188.657 97.426l-5.656-5.657 1.414-1.414 5.657 5.657z"></path>
  <path d="M190.073 96.01l-5.657 5.658-1.414-1.415 5.657-5.656zM52.375 116.895c1.378 0 2.5 1.122 2.5 2.5s-1.122 2.5-2.5 2.5-2.5-1.122-2.5-2.5 1.122-2.5 2.5-2.5m0-2a4.5 4.5 0 100 9 4.5 4.5 0 000-9z"></path>
</svg>
