<svg xmlns="http://www.w3.org/2000/svg" width="190" height="130" viewBox="0 0 190 130">
  <path d="M188 2v126H2V2h186m2-2H0v130h190V0z"></path>
  <path d="M60 49.946h70v2H60zM1.25 103.946h187.5v2H1.25zM77.563 56.946h34.875v2H77.563zM94 22.058h2v10.858h-2z"></path>
  <path d="M89.339 26.395l5.657-5.657 1.414 1.414-5.657 5.657z"></path>
  <path d="M99.247 27.81l-5.657-5.658 1.414-1.414 5.657 5.657zM94 75.737h2v10.858h-2z"></path>
  <path d="M90.754 80.844l5.657 5.657-1.415 1.414-5.656-5.656z"></path>
  <path d="M100.662 82.26l-5.657 5.657-1.414-1.415 5.657-5.656z"></path>
</svg>
