<svg xmlns="http://www.w3.org/2000/svg" width="190" height="130" viewBox="0 0 190 130">
  <path d="M89 2v126H2V2h87m2-2H0v130h91V0z"></path>
  <path d="M0 45h91v1.875H0zM17.125 58.125h57V60h-57zM17.125 65.125h57V67h-57zM17.125 72.125h57V74h-57zM17.125 79.125h57V81h-57zM17.125 86.125h57V88h-57zM17.125 93.125h31V95h-31zM43 119.313h7.875v1.875H43z"></path>
  <path d="M46 116.313h1.875v7.875H46zM0 109h91v1.875H0zM188 2v126h-87V2h87m2-2H99v130h91V0z"></path>
  <path d="M99 45h91v1.875H99zM116.125 58.125h57V60h-57zM116.125 65.125h57V67h-57zM116.125 72.125h57V74h-57zM116.125 79.125h57V81h-57zM116.125 86.125h57V88h-57zM116.125 93.125h31V95h-31zM142 119.313h7.875v1.875H142z"></path>
  <path d="M145 116.313h1.875v7.875H145zM99 109h91v1.875H99z"></path>
</svg>
