<svg xmlns="http://www.w3.org/2000/svg" width="190.1" height="130" viewBox="0 0 190 130">
  <path d="M29 2c14.888 0 27 12.112 27 27S43.888 56 29 56 2 43.888 2 29 14.112 2 29 2m0-2C12.984 0 0 12.984 0 29s12.984 29 29 29 29-12.984 29-29S45.016 0 29 0z"></path>
  <path d="M39.832 24.247c.017.242.017.484.017.727 0 7.389-5.624 15.902-15.902 15.902-3.167 0-6.108-.917-8.583-2.509.45.052.883.069 1.35.069a11.19 11.19 0 006.939-2.388 5.6 5.6 0 01-5.226-3.876c.346.052.692.086 1.055.086.502 0 1.004-.069 1.471-.19a5.59 5.59 0 01-4.482-5.485v-.069a5.624 5.624 0 002.526.709 5.588 5.588 0 01-2.492-4.655c0-1.038.277-1.99.761-2.82a15.887 15.887 0 0011.524 5.849 6.353 6.353 0 01-.139-1.281 5.587 5.587 0 015.589-5.589c1.609 0 3.063.675 4.083 1.765a11.005 11.005 0 003.547-1.35 5.574 5.574 0 01-2.458 3.08 11.225 11.225 0 003.219-.865 11.947 11.947 0 01-2.799 2.89zM129 2c14.888 0 27 12.112 27 27s-12.112 27-27 27-27-12.112-27-27 12.112-27 27-27m0-2c-16.016 0-29 12.984-29 29s12.984 29 29 29 29-12.984 29-29-12.984-29-29-29z"></path>
  <path d="M139.832 24.247c.017.242.017.484.017.727 0 7.389-5.624 15.902-15.902 15.902-3.167 0-6.108-.917-8.583-2.509.45.052.883.069 1.35.069a11.19 11.19 0 006.939-2.388 5.6 5.6 0 01-5.226-3.876c.346.052.692.086 1.055.086.502 0 1.004-.069 1.471-.19a5.59 5.59 0 01-4.482-5.485v-.069a5.624 5.624 0 002.526.709 5.588 5.588 0 01-2.492-4.655c0-1.038.277-1.99.761-2.82a15.887 15.887 0 0011.524 5.849 6.353 6.353 0 01-.139-1.281 5.587 5.587 0 015.589-5.589c1.609 0 3.063.675 4.083 1.765a11.005 11.005 0 003.547-1.35 5.574 5.574 0 01-2.458 3.08 11.225 11.225 0 003.219-.865 11.947 11.947 0 01-2.799 2.89zM0 65.875h90.1v2H0zM0 71.875h90.1v2H0zM0 77.875h90.1v2H0zM0 83.875h90.1v2H0zM0 89.875h58v2H0zM100 65.875h90.1v2H100zM100 71.875h90.1v2H100zM100 77.875h90.1v2H100zM100 83.875h90.1v2H100zM100 89.875h58v2h-58zM29 101c-16.016 0-29 12.984-29 29h2c0-14.888 12.112-27 27-27s27 12.112 27 27h2c0-16.016-12.984-29-29-29z"></path>
  <path d="M39.832 125.247a12.02 12.02 0 002.803-2.89 11.193 11.193 0 01-3.219.865 5.574 5.574 0 002.458-3.08 11.005 11.005 0 01-3.547 1.35 5.577 5.577 0 00-4.083-1.765 5.586 5.586 0 00-5.589 5.589c0 .433.052.865.139 1.281a15.884 15.884 0 01-11.524-5.849 5.552 5.552 0 00-.761 2.82c0 1.938.986 3.651 2.492 4.655a5.636 5.636 0 01-2.526-.709v.069c0 .871.215 1.684.568 2.417h22.265c.356-1.342.544-2.702.544-4.027-.003-.242-.003-.484-.02-.726zM129 101c-16.016 0-29 12.984-29 29h2c0-14.888 12.112-27 27-27s27 12.112 27 27h2c0-16.016-12.984-29-29-29z"></path>
  <path d="M139.832 125.247a12.02 12.02 0 002.803-2.89 11.193 11.193 0 01-3.219.865 5.574 5.574 0 002.458-3.08 11.005 11.005 0 01-3.547 1.35 5.577 5.577 0 00-4.083-1.765 5.586 5.586 0 00-5.589 5.589c0 .433.052.865.139 1.281a15.884 15.884 0 01-11.524-5.849 5.552 5.552 0 00-.761 2.82c0 1.938.986 3.651 2.492 4.655a5.636 5.636 0 01-2.526-.709v.069c0 .871.215 1.684.568 2.417h22.265c.356-1.342.544-2.702.544-4.027-.003-.242-.003-.484-.02-.726z"></path>
</svg>
