<svg xmlns="http://www.w3.org/2000/svg" width="190" height="130" viewBox="0 0 190 130">
  <path d="M16 10v6h-6v-6h6m2-2H8v10h10V8zM172 8h10v2h-10zM172 11h10v2h-10zM172 14h10v2h-10zM98 63h13v2H98zM143 81h13v2h-13zM90 26v72H10V26h80m2-2H8v76h84V24z"></path>
  <path d="M0 0v130h190V0H0zm10 128v-20h80v20H10zm178 0H92v-22H8v22H2V2h186v126z"></path>
  <path d="M135 26v31h-35V26h35m2-2H98v35h39V24zM180 91v31h-35V91h35m2-2h-39v35h39V89zM180 26v49h-35V26h35m2-2h-39v53h39V24zM135 73v49h-35V73h35m2-2H98v53h39V71z"></path>
</svg>