<svg xmlns="http://www.w3.org/2000/svg" width="170.978" height="129.984" viewBox="0 0 171 130">
  <path d="M39.5 2C60.178 2 77 18.822 77 39.5S60.178 77 39.5 77 2 60.178 2 39.5 18.822 2 39.5 2m0-2C17.685 0 0 17.685 0 39.5S17.685 79 39.5 79 79 61.315 79 39.5 61.315 0 39.5 0zM131.478 2c20.678 0 37.5 16.822 37.5 37.5S152.156 77 131.478 77s-37.5-16.822-37.5-37.5S110.801 2 131.478 2m0-2c-21.815 0-39.5 17.685-39.5 39.5s17.685 39.5 39.5 39.5 39.5-17.685 39.5-39.5S153.294 0 131.478 0zM39.5 91C17.858 91 .291 108.407.013 129.984h2C2.292 109.544 18.996 93 39.5 93s37.208 16.544 37.487 36.984h2C78.709 108.407 61.142 91 39.5 91zM131.479 93c20.504 0 37.208 16.544 37.487 36.984h2C170.688 108.407 153.121 91 131.479 91s-39.209 17.407-39.487 38.984h2C94.27 109.544 110.974 93 131.479 93z"></path>
  <path d="M49.282 33.984c.016.219.016.438.016.656C49.297 41.312 44.219 49 34.938 49c-2.859 0-5.516-.828-7.75-2.266.406.047.797.063 1.219.063 2.359 0 4.531-.797 6.266-2.156a5.056 5.056 0 01-4.719-3.5c.313.047.625.078.953.078.453 0 .906-.063 1.328-.172a5.047 5.047 0 01-4.047-4.953v-.063a5.093 5.093 0 002.281.641 5.044 5.044 0 01-2.25-4.203c0-.938.25-1.797.688-2.547a14.34 14.34 0 0010.406 5.281 5.708 5.708 0 01-.125-1.156A5.045 5.045 0 0144.235 29c1.453 0 2.766.609 3.688 1.594a9.943 9.943 0 003.203-1.219 5.032 5.032 0 01-2.219 2.781c1.016-.109 2-.391 2.906-.781-.688 1-1.547 1.89-2.531 2.609zM137.444 50.563H124.47a5.935 5.935 0 01-4.212-1.744 5.937 5.937 0 01-1.744-4.212V31.631a5.935 5.935 0 011.744-4.212 5.937 5.937 0 014.212-1.744h12.974a5.935 5.935 0 014.212 1.744 5.937 5.937 0 011.744 4.212v12.974a5.935 5.935 0 01-1.744 4.212 5.937 5.937 0 01-4.212 1.746zM124.47 26.967a4.67 4.67 0 00-4.665 4.665v12.974a4.67 4.67 0 004.665 4.665h12.974a4.67 4.67 0 004.665-4.665V31.631a4.67 4.67 0 00-4.665-4.665H124.47z"></path>
  <path d="M137.443 50.812H124.47a6.194 6.194 0 01-4.39-1.818 6.199 6.199 0 01-1.817-4.39V31.631a6.187 6.187 0 011.817-4.39 6.177 6.177 0 014.39-1.818h12.974a6.183 6.183 0 014.39 1.819 6.177 6.177 0 011.818 4.39v12.974a6.176 6.176 0 01-1.818 4.389 6.177 6.177 0 01-4.391 1.817zM124.47 25.924a5.677 5.677 0 00-4.036 1.672 5.704 5.704 0 00-1.223 1.814 5.662 5.662 0 00-.448 2.222v12.974a5.687 5.687 0 001.671 4.036 5.688 5.688 0 004.036 1.672h12.974a5.676 5.676 0 004.036-1.671 5.688 5.688 0 001.672-4.036V31.631a5.674 5.674 0 00-1.672-4.035 5.671 5.671 0 00-1.814-1.223 5.663 5.663 0 00-2.222-.449H124.47zm12.973 23.596H124.47a4.92 4.92 0 01-4.915-4.915V31.631a4.92 4.92 0 014.915-4.915h12.974a4.92 4.92 0 014.915 4.915v12.974a4.922 4.922 0 01-4.916 4.915zM124.47 27.217a4.42 4.42 0 00-4.415 4.415v12.974a4.42 4.42 0 004.415 4.415h12.974a4.42 4.42 0 004.415-4.415V31.631a4.42 4.42 0 00-4.415-4.415H124.47z"></path>
  <path d="M130.957 44.303a6.16 6.16 0 01-4.374-1.811 6.15 6.15 0 01-1.325-1.966 6.142 6.142 0 01-.486-2.408 6.16 6.16 0 011.811-4.374 6.15 6.15 0 011.966-1.325 6.142 6.142 0 012.408-.486 6.16 6.16 0 014.374 1.811 6.15 6.15 0 011.325 1.966c.323.763.486 1.573.486 2.408a6.16 6.16 0 01-1.811 4.374 6.15 6.15 0 01-1.966 1.325 6.149 6.149 0 01-2.408.486zm0-11.077a4.897 4.897 0 00-4.892 4.892 4.897 4.897 0 004.892 4.892 4.897 4.897 0 004.892-4.892 4.898 4.898 0 00-4.892-4.892z"></path>
  <path d="M130.957 44.553a6.402 6.402 0 01-4.551-1.885 6.435 6.435 0 01-1.379-2.045 6.393 6.393 0 01-.506-2.505 6.4 6.4 0 011.885-4.55 6.424 6.424 0 012.045-1.379 6.489 6.489 0 015.011 0 6.412 6.412 0 012.045 1.379 6.401 6.401 0 011.885 4.55c0 .87-.17 1.713-.506 2.505a6.39 6.39 0 01-1.379 2.045 6.412 6.412 0 01-4.55 1.885zm0-12.369a5.935 5.935 0 00-2.311 11.402 5.975 5.975 0 004.62 0 5.908 5.908 0 001.887-1.271 5.882 5.882 0 001.271-1.886c.31-.731.467-1.508.467-2.311a5.925 5.925 0 00-1.738-4.196 5.908 5.908 0 00-1.887-1.271 5.864 5.864 0 00-2.309-.467zm0 11.077c-2.836 0-5.143-2.307-5.143-5.143s2.307-5.142 5.143-5.142c2.835 0 5.142 2.307 5.142 5.142s-2.307 5.143-5.142 5.143zm0-9.785a4.648 4.648 0 00-4.643 4.642c0 2.56 2.083 4.643 4.643 4.643s4.642-2.083 4.642-4.643a4.647 4.647 0 00-4.642-4.642z"></path>
  <circle cx="137.969" cy="30.993" r="1.442"></circle>
  <path d="M137.97 32.684c-.934 0-1.692-.759-1.692-1.691s.759-1.691 1.692-1.691c.933 0 1.691.759 1.691 1.691s-.759 1.691-1.691 1.691zm0-2.883c-.657 0-1.192.535-1.192 1.191s.535 1.191 1.192 1.191 1.191-.535 1.191-1.191-.534-1.191-1.191-1.191z"></path>
  <path fill="none" d="M47.422 119.484c-.031.031-1.672 2.406-5.719 4.063.234.484.469.984.688 1.484.078.172.141.359.219.531 3.531-.453 7.016.313 7.141.328a10.276 10.276 0 00-2.329-6.406zM46.266 118.312a10.171 10.171 0 00-9.188-2.266c.156.203 2.094 2.75 3.844 5.969 3.86-1.437 5.313-3.656 5.344-3.703zM29.469 123.891c.266 0 4.547.047 9.469-1.25a61.656 61.656 0 00-3.813-5.906 10.265 10.265 0 00-5.656 7.156zM125.059 119.661h-4.063v4.594h4.391c1.547 0 2.641-.672 2.641-2.344-.001-1.812-1.407-2.25-2.969-2.25zM141.605 124.286c-1.875 0-3.125 1.172-3.25 3.047h6.375c-.171-1.891-1.156-3.047-3.125-3.047z"></path>
  <path d="M39.5 114c-6.625 0-12 5.375-12 12 0 1.398.252 2.735.692 3.984h1.875a10.188 10.188 0 01-.818-3.984c0-.109 0-.219.016-.328.172 0 5.234.125 10.516-1.453.297.578.578 1.156.828 1.734-.125.047-.266.078-.406.125 0 0-3.34 1.085-6.142 3.906h2.819c2.178-1.539 4.37-2.312 4.37-2.312.016 0 .047-.016.063-.016a44.3 44.3 0 01.814 2.327h2.026a47.187 47.187 0 00-.918-2.812c3.313-.516 6.172.391 6.391.453a10.336 10.336 0 01-.693 2.359h1.876a11.95 11.95 0 00.692-3.984C51.5 119.375 46.125 114 39.5 114zm-2.453 2.047c-.016 0-.031.016-.031.016s.016-.016.031-.016zm-7.578 7.844a10.265 10.265 0 015.656-7.156c.141.188 2.031 2.75 3.813 5.906-4.922 1.296-9.203 1.25-9.469 1.25zm11.453-1.875a50.054 50.054 0 00-3.844-5.969 10.171 10.171 0 019.188 2.266c-.031.046-1.484 2.265-5.344 3.703zm1.688 3.546c-.078-.172-.141-.359-.219-.531-.219-.5-.453-1-.688-1.484 4.047-1.656 5.688-4.031 5.719-4.063a10.267 10.267 0 012.328 6.406c-.125-.015-3.609-.781-7.14-.328zM137.559 117.63h7.984v1.938h-7.984zM129.559 125.286c1.766-.844 2.688-2.125 2.688-4.109 0-3.922-2.922-4.875-6.297-4.875h-9.281v13.682h4.328v-2.76h4.719c1.888 0 3.083.786 3.105 2.76h4.315c-.092-2.32-1.253-4.038-3.577-4.698zm-4.172-1.031h-4.391v-4.594h4.063c1.563 0 2.969.438 2.969 2.25-.001 1.672-1.094 2.344-2.641 2.344zM138.355 129.802h10.281c.016-.234.031-.484.031-.734 0-4.219-2.469-7.734-6.938-7.734-4.344 0-7.297 3.266-7.297 7.547 0 .38.028.745.068 1.104h3.866c0-.064-.011-.119-.011-.183zm3.25-5.516c1.969 0 2.953 1.156 3.125 3.047h-6.375c.125-1.875 1.375-3.047 3.25-3.047z"></path>
</svg>
