<svg xmlns="http://www.w3.org/2000/svg" width="190" height="130" viewBox="0 0 190 130">
  <path d="M36 52h24v2H36zM77 52h24v2H77zM36 95h24v2H36zM77 95h24v2H77zM68 21v26H38V21h30m2-2H36v30h34V19zM68 64v26H38V64h30m2-2H36v30h34V62zM109 21v26H79V21h30m2-2H77v30h34V19zM109 64v26H79V64h30m2-2H77v30h34V62zM119 52h24v2h-24zM119 95h24v2h-24zM151 21v26h-30V21h30m2-2h-34v30h34V19zM151 64v26h-30V64h30m2-2h-34v30h34V62z"></path>
  <path d="M0 0v130h190V0H0zm38 128v-22h30v22H38zm41 0v-22h30v22H79zm42 0v-22h30v22h-30zm67 0h-35v-24h-34v24h-8v-24H77v24h-7v-24H36v24H2V2h186v126z"></path>
</svg>