<svg xmlns="http://www.w3.org/2000/svg" width="190" height="130" viewBox="0 0 190 130">
  <path d="M188 2v126H2V2h186m2-2H0v130h190V0z"></path>
  <path d="M16 10v6h-6v-6h6m2-2H8v10h10V8zM172 8h10v2h-10zM172 11h10v2h-10zM172 14h10v2h-10zM94.667 46c10.569 0 19.167 8.598 19.167 19.167s-8.598 19.167-19.167 19.167S75.5 75.735 75.5 65.167 84.098 46 94.667 46m0-2C82.977 44 73.5 53.477 73.5 65.167c0 11.69 9.477 21.167 21.167 21.167 11.69 0 21.167-9.477 21.167-21.167C115.833 53.477 106.357 44 94.667 44z"></path>
  <path d="M90 55.272V74.91l15.71-9.819L90 55.272zm12.259 9.819L92 71.491V58.692l10.259 6.399z"></path>
  <path d="M151 30v70H37V30h114m2-2H35v74h118V28z"></path>
</svg>