<svg xmlns="http://www.w3.org/2000/svg" width="193.267" height="129.984" viewBox="0 0 193 130">
  <path d="M58.667 2v39.667H2V2h56.667m2-2H0v43.667h60.667V0zM124.667 2v39.667H68V2h56.667m2-2H66v43.667h60.667V0zM191.267 2v39.667H134.6V2h56.667m2-2H132.6v43.667h60.667V0zM58.667 60v39.667H2V60h56.667m2-2H0v43.667h60.667V58zM124.667 60v39.667H68V60h56.667m2-2H66v43.667h60.667V58zM191.267 60v39.667H134.6V60h56.667m2-2H132.6v43.667h60.667V58zM58.667 119v8.984H2V119h56.667m2-2H0v12.984h60.667V117zM124.667 119v8.984H68V119h56.667m2-2H66v12.984h60.667V117zM191.267 119v8.984H134.6V119h56.667m2-2H132.6v12.984h60.667V117zM18.5 47.833h23.667v2H18.5zM84.5 47.833h23.667v2H84.5zM151.1 47.833h23.667v2H151.1zM18.5 105.833h23.667v2H18.5zM84.5 105.833h23.667v2H84.5zM151.1 105.833h23.667v2H151.1z"></path>
</svg>
