<svg xmlns="http://www.w3.org/2000/svg" width="190.167" height="128.799" viewBox="0 0 193 129">
  <path d="M13.216 1.932L5.628 20.216H3.556l7.672-18.088H.364V.42h12.852v1.512zM18.06 2.521c.522-.785 1.288-1.4 2.296-1.849C21.364.224 22.558 0 23.94 0c1.4 0 2.599.224 3.598.672s1.759 1.063 2.282 1.849c.522.783.784 1.67.784 2.659 0 1.12-.313 2.086-.938 2.897-.626.813-1.582 1.387-2.87 1.723 1.362.318 2.426.92 3.192 1.807.765.887 1.148 1.992 1.148 3.317 0 1.829-.649 3.271-1.946 4.326-1.298 1.054-3.048 1.582-5.25 1.582-2.184 0-3.93-.528-5.236-1.582-1.307-1.055-1.96-2.497-1.96-4.326 0-1.325.382-2.431 1.148-3.317.765-.887 1.83-1.488 3.192-1.807-1.288-.336-2.245-.91-2.87-1.723-.626-.811-.938-1.777-.938-2.897 0-.99.261-1.876.784-2.659zm2.044 15.511c.952.766 2.23 1.147 3.836 1.147 1.605 0 2.884-.382 3.836-1.147.952-.766 1.428-1.83 1.428-3.192 0-1.399-.495-2.45-1.484-3.149-.99-.701-2.25-1.051-3.78-1.051-1.531 0-2.791.35-3.78 1.051-.99.699-1.484 1.75-1.484 3.149 0 1.362.476 2.427 1.428 3.192zm.392-9.787c.84.664 1.988.994 3.444.994s2.604-.33 3.444-.994c.84-.662 1.26-1.6 1.26-2.813s-.425-2.151-1.274-2.813c-.85-.662-1.993-.994-3.43-.994-1.419 0-2.558.332-3.416.994-.859.662-1.288 1.601-1.288 2.813 0 1.214.42 2.151 1.26 2.813zM35.448 10.248c0-3.173.499-5.638 1.498-7.392.999-1.755 2.767-2.633 5.306-2.633 2.52 0 4.284.878 5.292 2.633 1.008 1.754 1.512 4.219 1.512 7.392 0 3.192-.504 5.67-1.512 7.434-1.008 1.765-2.772 2.646-5.292 2.646-2.539 0-4.308-.881-5.306-2.646-.999-1.764-1.498-4.242-1.498-7.434zm11.648 0c0-1.718-.126-3.164-.378-4.341-.252-1.176-.733-2.108-1.442-2.799-.71-.691-1.718-1.037-3.024-1.037-1.326 0-2.343.346-3.052 1.037-.709.69-1.19 1.623-1.442 2.799-.252 1.177-.378 2.623-.378 4.341 0 1.735.126 3.196.378 4.382s.732 2.123 1.442 2.814c.709.69 1.727 1.035 3.052 1.035 1.306 0 2.314-.345 3.024-1.035.709-.691 1.19-1.629 1.442-2.814s.378-2.647.378-4.382zM119.67 12.151c1.969-2.202 2.954-4.265 2.954-6.188 0-1.213-.317-2.198-.952-2.954s-1.662-1.134-3.08-1.134c-1.455 0-2.563.453-3.318 1.357-.756.906-1.18 2.133-1.273 3.683h-1.932c.13-2.146.793-3.804 1.988-4.97 1.193-1.167 2.752-1.75 4.676-1.75 1.754 0 3.173.476 4.256 1.428 1.082.951 1.623 2.343 1.623 4.172 0 1.549-.514 3.131-1.539 4.746-1.027 1.615-2.306 3.107-3.836 4.48-1.531 1.371-3.09 2.533-4.676 3.485h10.611v1.624H111.76v-1.4c3.304-2.182 5.94-4.376 7.91-6.579zM127.888 2.296V.476h5.012v19.74h-2.044V2.296h-2.968zM.392 82.796v-1.82h5.012v19.74H3.36v-17.92H.392zM9.044 82.796v-1.82h5.012v19.74h-2.044v-17.92H9.044zM17.696 82.796v-1.82h5.012v19.74h-2.044v-17.92h-2.968zM123.716 82.432l-7.588 18.284h-2.071l7.672-18.088h-10.865V80.92h12.853v1.512zM126.544 95.956v-1.624l10.416-13.44h2.1V94.22h3.08v1.736h-3.08v4.76h-1.987v-4.76h-10.529zm10.668-12.629l-8.568 10.893h8.568V83.327zM145.584 90.748c0-3.173.498-5.638 1.498-7.392.998-1.755 2.767-2.633 5.306-2.633 2.521 0 4.284.878 5.292 2.633 1.008 1.754 1.512 4.219 1.512 7.392 0 3.192-.504 5.67-1.512 7.434-1.008 1.765-2.771 2.646-5.292 2.646-2.539 0-4.308-.881-5.306-2.646-1-1.764-1.498-4.242-1.498-7.434zm11.647 0c0-1.718-.126-3.164-.378-4.341-.252-1.176-.732-2.108-1.441-2.799-.711-.691-1.719-1.037-3.024-1.037-1.325 0-2.343.346-3.052 1.037-.71.69-1.19 1.623-1.442 2.799-.252 1.177-.378 2.623-.378 4.341 0 1.735.126 3.196.378 4.382s.732 2.123 1.442 2.814c.709.69 1.727 1.035 3.052 1.035 1.306 0 2.313-.345 3.024-1.035.709-.691 1.189-1.629 1.441-2.814s.378-2.647.378-4.382zM162.383 82.796v-1.82h5.012v19.74h-2.043v-17.92h-2.969zM0 39.799h79.167v2H0zM0 46.799h37v2H0zM111 39.799h79.167v2H111zM111 46.799h37v2h-37zM0 119.799h79.167v2H0zM0 126.799h37v2H0zM111 119.799h79.167v2H111zM111 126.799h37v2h-37z"></path>
</svg>
