<svg xmlns="http://www.w3.org/2000/svg" width="190" height="130" viewBox="0 0 193 130">
  <path d="M188 2v126H2V2h186m2-2H0v130h190V0z"></path>
  <path d="M94 .508h2v129.484h-2zM41.818 34.008h41v2h-41zM123.147 91.008h41v2h-41zM111.084 73.008h65.125v2h-65.125zM111.084 79.008h65.125v2h-65.125zM111.084 85.008h65.125v2h-65.125zM41.818 40.008h26.25v2h-26.25zM18.068 37.008h7.875v2h-7.875z"></path>
  <path d="M21.006 34.071h2v7.875h-2zM18.068 69.008h7.875v2h-7.875zM18.068 101.008h7.875v2h-7.875z"></path>
  <path d="M22.193 29.008c4.963 0 9 4.037 9 9s-4.037 9-9 9-9-4.037-9-9 4.038-9 9-9m0-2c-6.075 0-11 4.925-11 11s4.925 11 11 11 11-4.925 11-11-4.924-11-11-11zM41.818 66.008h41v2h-41zM41.818 72.008h26.25v2h-26.25zM22.193 61.008c4.963 0 9 4.037 9 9s-4.037 9-9 9-9-4.037-9-9 4.038-9 9-9m0-2c-6.075 0-11 4.925-11 11s4.925 11 11 11 11-4.925 11-11-4.924-11-11-11zM41.818 98.008h41v2h-41zM41.818 104.008h26.25v2h-26.25zM22.193 93.008c4.963 0 9 4.037 9 9s-4.037 9-9 9-9-4.037-9-9 4.038-9 9-9m0-2c-6.075 0-11 4.925-11 11s4.925 11 11 11 11-4.925 11-11-4.924-11-11-11z"></path>
  <g>
    <path d="M124.965 44.68c.756.351 1.408.887 1.957 1.606.549.72.823 1.684.823 2.889 0 .864-.207 1.679-.621 2.443-.414.766-1.053 1.386-1.917 1.863-.863.477-1.943.715-3.239.715h-.136v2.16h-.729V54.17c-1.656-.162-3.006-.716-4.05-1.661s-1.63-2.102-1.755-3.469h1.998c.09.81.463 1.575 1.12 2.295s1.553 1.152 2.687 1.296v-7.56c-1.314-.396-2.349-.76-3.105-1.093-.756-.333-1.403-.846-1.943-1.539s-.811-1.634-.811-2.822c0-.954.234-1.795.702-2.524s1.139-1.3 2.012-1.714 1.903-.621 3.092-.621h.054v-2.349h.729v2.376c1.603.126 2.871.621 3.808 1.485.936.864 1.503 1.899 1.701 3.105h-2.025c-.145-.72-.509-1.377-1.094-1.971-.585-.594-1.381-.963-2.39-1.107v7.263c1.331.395 2.375.768 3.132 1.12zm-6.737-2.754c.657.531 1.616 1.003 2.876 1.417v-7.101h-.054c-1.171 0-2.098.288-2.781.864-.685.576-1.026 1.386-1.026 2.43-.001 1.062.327 1.859.985 2.39zm6.52 9.774c.666-.657.999-1.489.999-2.498 0-1.08-.337-1.903-1.012-2.47-.676-.567-1.644-1.04-2.903-1.417v7.371h.081c1.225-.001 2.169-.329 2.835-.986zM141.65 36.485h-10.098v7.047c.485-.648 1.179-1.17 2.078-1.566a7.16 7.16 0 012.916-.594c2.034 0 3.551.585 4.55 1.755s1.499 2.637 1.499 4.401c0 1.926-.54 3.51-1.62 4.752s-2.683 1.863-4.807 1.863c-1.854 0-3.37-.503-4.549-1.512-1.18-1.008-1.859-2.376-2.039-4.104h1.863c.233 1.26.756 2.232 1.566 2.916.81.684 1.826 1.026 3.051 1.026 1.548 0 2.713-.454 3.496-1.363.783-.909 1.175-2.11 1.175-3.604 0-1.44-.396-2.565-1.188-3.375s-1.926-1.215-3.401-1.215c-1.026 0-1.931.216-2.714.648a4.447 4.447 0 00-1.796 1.782h-1.836v-10.53h11.854v1.673zM144 44.396c0-3.06.48-5.436 1.444-7.128.963-1.691 2.668-2.538 5.116-2.538 2.43 0 4.131.846 5.103 2.538.973 1.692 1.458 4.068 1.458 7.128 0 3.078-.485 5.467-1.458 7.168-.972 1.701-2.673 2.551-5.103 2.551-2.448 0-4.153-.851-5.116-2.551-.963-1.7-1.444-4.09-1.444-7.168zm11.232 0c0-1.656-.121-3.051-.364-4.185-.243-1.134-.707-2.034-1.391-2.7-.685-.666-1.656-.999-2.916-.999-1.278 0-2.259.333-2.943.999-.684.666-1.147 1.566-1.391 2.7-.242 1.134-.364 2.529-.364 4.185 0 1.674.122 3.083.364 4.225.243 1.144.707 2.048 1.391 2.714.685.666 1.665.999 2.943.999 1.26 0 2.231-.333 2.916-.999.684-.666 1.147-1.57 1.391-2.714.242-1.142.364-2.551.364-4.225zM158.769 44.396c0-3.06.48-5.436 1.444-7.128.963-1.691 2.668-2.538 5.116-2.538 2.43 0 4.131.846 5.103 2.538.973 1.692 1.458 4.068 1.458 7.128 0 3.078-.485 5.467-1.458 7.168-.972 1.701-2.673 2.551-5.103 2.551-2.448 0-4.153-.851-5.116-2.551-.964-1.7-1.444-4.09-1.444-7.168zm11.231 0c0-1.656-.121-3.051-.364-4.185-.243-1.134-.707-2.034-1.391-2.7-.685-.666-1.656-.999-2.916-.999-1.278 0-2.259.333-2.943.999-.684.666-1.147 1.566-1.391 2.7-.242 1.134-.364 2.529-.364 4.185 0 1.674.122 3.083.364 4.225.243 1.144.707 2.048 1.391 2.714.685.666 1.665.999 2.943.999 1.26 0 2.231-.333 2.916-.999.684-.666 1.147-1.57 1.391-2.714.243-1.142.364-2.551.364-4.225z"></path>
  </g>
</svg>
