<svg xmlns="http://www.w3.org/2000/svg" width="189.833" height="48.092" viewBox="0 0 190 49">
  <path d="M0 32.092h48.833v2H0zM0 39.092h48.833v2H0zM12.833 46.092H36v2H12.833zM73 32.092h48.833v2H73zM73 39.092h48.833v2H73zM85.833 46.092H109v2H85.833zM141 32.092h48.833v2H141zM141 39.092h48.833v2H141zM153.833 46.092H177v2h-23.167zM10.424 2.55V.34h6.086v23.97h-2.482V2.55h-3.604zM30.228 14.518c2.392-2.674 3.587-5.179 3.587-7.514 0-1.473-.386-2.669-1.156-3.587-.771-.918-2.018-1.377-3.74-1.377-1.768 0-3.111.55-4.029 1.649-.918 1.1-1.434 2.59-1.547 4.471h-2.346c.159-2.606.963-4.618 2.414-6.035C24.862.709 26.755 0 29.09 0c2.13 0 3.853.578 5.168 1.734C35.572 2.89 36.23 4.579 36.23 6.8c0 1.881-.624 3.802-1.87 5.763-1.247 1.961-2.8 3.774-4.658 5.44-1.859 1.666-3.751 3.077-5.678 4.233H36.91v1.972H20.623v-1.7c4.013-2.652 7.214-5.315 9.605-7.99zM83.424 2.55V.34h6.086v23.97h-2.482V2.55h-3.604zM103.228 14.518c2.392-2.674 3.587-5.179 3.587-7.514 0-1.473-.386-2.669-1.156-3.587-.771-.918-2.018-1.377-3.74-1.377-1.768 0-3.111.55-4.029 1.649-.918 1.1-1.434 2.59-1.547 4.471h-2.346c.159-2.606.963-4.618 2.414-6.035C97.862.709 99.755 0 102.09 0c2.13 0 3.853.578 5.168 1.734 1.314 1.156 1.972 2.845 1.972 5.066 0 1.881-.624 3.802-1.87 5.763-1.247 1.961-2.8 3.774-4.658 5.44-1.859 1.666-3.751 3.077-5.678 4.233h12.886v1.972H93.623v-1.7c4.013-2.652 7.214-5.315 9.605-7.99z"></path>
  <g>
    <path d="M151.424 2.55V.34h6.086v23.97h-2.482V2.55h-3.604zM171.228 14.518c2.392-2.674 3.587-5.179 3.587-7.514 0-1.473-.386-2.669-1.156-3.587-.771-.918-2.018-1.377-3.74-1.377-1.768 0-3.111.55-4.029 1.649-.918 1.1-1.434 2.59-1.547 4.471h-2.346c.159-2.606.963-4.618 2.414-6.035C165.862.709 167.755 0 170.09 0c2.13 0 3.853.578 5.168 1.734 1.314 1.156 1.972 2.845 1.972 5.066 0 1.881-.624 3.802-1.87 5.763-1.247 1.961-2.8 3.774-4.658 5.44-1.859 1.666-3.751 3.077-5.678 4.233h12.886v1.972h-16.286v-1.7c4.012-2.652 7.213-5.315 9.604-7.99z"></path>
  </g>
</svg>
