<svg xmlns="http://www.w3.org/2000/svg" width="190" height="130" viewBox="0 0 190 130">
  <path d="M188 2v126H2V2h186m2-2H0v130h190V0z"></path>
  <path d="M16 10v6h-6v-6h6m2-2H8v10h10V8zM16 114v6h-6v-6h6m2-2H8v10h10v-10zM106 114v6h-6v-6h6m2-2H98v10h10v-10zM172 8h10v2h-10zM172 11h10v2h-10zM172 14h10v2h-10zM22 112h50v2H22zM22 118h32v2H22zM112 112h50v2h-50zM112 118h32v2h-32zM20 57h50v2H20zM20 63h50v2H20zM20 69h32v2H20z"></path>
  <path d="M90 26v78H10V26h80m2-2H8v82h84V24zM180 26v78h-80V26h80m2-2H98v82h84V24z"></path>
</svg>