<svg xmlns="http://www.w3.org/2000/svg" width="190" height="130" viewBox="0 0 190 130">
  <path d="M188 2v126H2V2h186m2-2H0v130h190V0z"></path>
  <path d="M16 10v6h-6v-6h6m2-2H8v10h10V8zM172 8h10v2h-10zM172 11h10v2h-10zM172 14h10v2h-10zM8 63h13v2H8zM53 81h13v2H53zM98 63h13v2H98zM143 81h13v2h-13zM45 26v31H10V26h35m2-2H8v35h39V24zM90 91v31H55V91h35m2-2H53v35h39V89zM135 26v31h-35V26h35m2-2H98v35h39V24zM180 91v31h-35V91h35m2-2h-39v35h39V89zM90 26v49H55V26h35m2-2H53v53h39V24zM45 73v49H10V73h35m2-2H8v53h39V71zM135 73v49h-35V73h35m2-2H98v53h39V71zM180 26v49h-35V26h35m2-2h-39v53h39V24z"></path>
</svg>