<svg xmlns="http://www.w3.org/2000/svg" width="190" height="130" viewBox="0 0 193 130">
  <path d="M188 2v126H2V2h186m2-2H0v130h190V0z"></path>
  <path d="M57.762 28.758v26h-44v-26h44m2-2h-48v30h48v-30zM116.762 28.758v26h-44v-26h44m2-2h-48v30h48v-30zM174.762 28.758v26h-44v-26h44m2-2h-48v30h48v-30zM11.762 62.879h48v2h-48zM11.762 69.879h48v2h-48zM11.762 76.879h48v2h-48zM11.762 83.879h48v2h-48zM11.762 90.879h48v2h-48zM11.762 97.879h27.5v2h-27.5zM70.762 62.879h48v2h-48zM70.762 69.879h48v2h-48zM70.762 76.879h48v2h-48zM70.762 83.879h48v2h-48zM70.762 90.879h48v2h-48zM70.762 97.879h27.5v2h-27.5zM128.762 62.879h48v2h-48zM128.762 69.879h48v2h-48zM128.762 76.879h48v2h-48zM128.762 83.879h48v2h-48zM128.762 90.879h48v2h-48zM128.762 97.879h27.5v2h-27.5z"></path>
</svg>
