<svg xmlns="http://www.w3.org/2000/svg" width="189" height="129.984" viewBox="0 0 190 130">
  <path d="M89 2v125.984H2V2h87m2-2H0v129.984h91V0zM187 2v125.984h-87V2h87m2-2H98v129.984h91V0z"></path>
  <path d="M45.5 15c11.309 0 20.51 9.201 20.51 20.51 0 11.309-9.201 20.51-20.51 20.51s-20.51-9.2-20.51-20.51C24.99 24.201 34.191 15 45.5 15m0-2c-12.432 0-22.51 10.078-22.51 22.51S33.068 58.02 45.5 58.02s22.51-10.078 22.51-22.51S57.932 13 45.5 13zM143.5 15c11.309 0 20.51 9.201 20.51 20.51 0 11.309-9.201 20.51-20.51 20.51s-20.51-9.201-20.51-20.51c0-11.309 9.201-20.51 20.51-20.51m0-2c-12.432 0-22.51 10.078-22.51 22.51s10.078 22.51 22.51 22.51 22.51-10.078 22.51-22.51S155.932 13 143.5 13z"></path>
  <path d="M55.767 44.085a6.009 6.009 0 01-6.002-6.002 6 6 0 011.996-4.461l-.871-1.313-4.729 6.284a.83.83 0 01-.683.347h-2.64a5.995 5.995 0 01-5.935 5.145c-3.31 0-6.002-2.693-6.002-6.002s2.692-6.002 6.002-6.002a5.98 5.98 0 012.881.737l1.835-2.452h-3.001c-.469 0-.857-.389-.857-.857s.389-.857.857-.857h5.145v1.715h5.828l-1.139-1.715h-2.975c-.469 0-.857-.389-.857-.857s.389-.857.857-.857h3.43c.281 0 .549.147.71.375l3.577 5.359a5.896 5.896 0 012.572-.589c3.31 0 6.002 2.693 6.002 6.002s-2.691 6-6.001 6zM36.904 38.94a.851.851 0 01-.684-1.367l2.519-3.362a4.238 4.238 0 00-1.835-.416c-2.358 0-4.287 1.929-4.287 4.287s1.929 4.287 4.287 4.287a4.298 4.298 0 004.207-3.43h-4.207zm4.207-1.715a4.31 4.31 0 00-1.005-1.983l-1.487 1.983h2.492zm7.797-5.144h-6.431l-1.326 1.769a5.903 5.903 0 011.688 3.376h2.211l3.858-5.145zm6.859 1.715a4.39 4.39 0 00-1.621.321l2.331 3.483a.855.855 0 01-.228 1.192.815.815 0 01-.482.147.83.83 0 01-.71-.389l-2.331-3.483a4.284 4.284 0 00-1.246 3.014c0 2.358 1.929 4.287 4.287 4.287s4.287-1.929 4.287-4.287-1.929-4.285-4.287-4.285zM154.842 44.192a.439.439 0 01-.268.402.646.646 0 01-.161.027.472.472 0 01-.309-.121l-1.245-1.246c-2.104 2.532-5.882 4.153-10.021 4.153s-7.918-1.621-10.021-4.153l-1.245 1.246a.446.446 0 01-.309.121.646.646 0 01-.161-.027.44.44 0 01-.268-.402v-4.716c0-.241.188-.429.429-.429h4.716c.174 0 .335.107.402.268a.441.441 0 01-.094.469l-1.34 1.34c1.205 1.621 3.523 2.8 6.176 3.162v-8.668h-2.572a.863.863 0 01-.857-.857v-1.715c0-.469.389-.857.857-.857h2.572v-2.184a3.417 3.417 0 01-1.715-2.961c0-1.889 1.541-3.43 3.43-3.43s3.43 1.541 3.43 3.43a3.417 3.417 0 01-1.715 2.961v2.184h2.572c.469 0 .857.389.857.857v1.715a.863.863 0 01-.857.857h-2.572v8.668c2.652-.362 4.971-1.541 6.176-3.162l-1.34-1.34a.441.441 0 01-.094-.469.44.44 0 01.402-.268h4.716c.241 0 .429.188.429.429v4.716zm-12.004-18.006c-.469 0-.857.389-.857.857s.389.857.857.857.857-.389.857-.857-.388-.857-.857-.857z"></path>
  <path d="M12 90h64.917v2H12zM.667 68h89.167v2H.667zM98.667 68h89.167v2H98.667zM12 96h64.917v2H12zM12 102h64.917v2H12zM24 108h40.917v2H24zM111 90h64.917v2H111zM111 96h64.917v2H111zM111 102h64.917v2H111zM123 108h40.917v2H123z"></path>
</svg>
