<svg xmlns="http://www.w3.org/2000/svg" width="190" height="130" viewBox="0 0 190 130">
  <path d="M53 8v6h-6V8h6m2-2H45v10h10V6zM137 6h10v2h-10zM137 9h10v2h-10zM137 12h10v2h-10zM53.232 54.353l4.95 4.95-1.414 1.414-4.95-4.95z"></path>
  <path d="M51.818 55.72l4.95-4.949 1.413 1.414-4.95 4.95zM139.769 57.136l-4.95-4.95 1.414-1.414 4.95 4.95z"></path>
  <path d="M141.183 55.768l-4.95 4.95-1.414-1.415 4.95-4.95z"></path>
  <path d="M146 24v64H47V24h99m2-2H45v68h103V22z"></path>
  <path d="M0 0v130h190V0H0zm47 128V99h44v29H47zm55 0V99h44v29h-44zm86 0h-40V97h-48v31h-7V97H45v31H2V2h186v126z"></path>
</svg>