<svg xmlns="http://www.w3.org/2000/svg" width="190" height="130" viewBox="0 0 190 130">
  <path d="M120 31h24v2h-24zM120 37h19v2h-19zM38 52h24v2H38zM79 52h24v2H79zM38 95h24v2H38zM79 95h24v2H79zM120 43h28v2h-28zM120 49h22v2h-22zM120 55h24v2h-24zM120 61h19v2h-19zM120 67h28v2h-28zM120 73h22v2h-22zM70 21v26H40V21h30m2-2H38v30h34V19zM70 64v26H40V64h30m2-2H38v30h34V62zM111 21v26H81V21h30m2-2H79v30h34V19zM111 64v26H81V64h30m2-2H79v30h34V62z"></path>
  <path d="M0 0v130h190V0H0zm40 128v-22h30v22H40zm41 0v-22h30v22H81zm107 0h-75v-24H79v24h-7v-24H38v24H2V2h186v126z"></path>
  <path d="M152 21v4h-30v-4h30m2-2h-34v8h34v-8z"></path>
</svg>