<svg xmlns="http://www.w3.org/2000/svg" width="190" height="130" viewBox="0 0 190 130">
  <path d="M188 2v126H2V2h186m2-2H0v130h190V0z"></path>
  <path d="M.679 42.758h188.167v2H.679zM.679 85.758h188.167v2H.679z"></path>
  <path d="M94 1.008h2v128h-2zM139.262 56.008c5.514 0 10 4.486 10 10s-4.486 10-10 10-10-4.486-10-10 4.486-10 10-10m0-2c-6.627 0-12 5.373-12 12s5.373 12 12 12 12-5.373 12-12-5.373-12-12-12z"></path>
  <path d="M137.96 62.008h2v8h-2z"></path>
  <path d="M134.96 65.008h8v2h-8z"></path>
</svg>
