<svg xmlns="http://www.w3.org/2000/svg" width="189.976" height="129.984" viewBox="0 0 190 130">
  <path d="M187.976 2v125.984H2V2h185.976m2-2H0v129.984h189.976V0z"></path>
  <path d="M60.488 59h69v2h-69zM60.488 80h69v2h-69zM36.738 66h116.5v2h-116.5zM51.488 73h87v2h-87zM80.34 100h4v4h-4zM92.34 100h4v4h-4zM104.34 100h4v4h-4zM88.639 41.534l-1.62-1.2c.439-.56.9-1.359 1.38-2.4a18.34 18.34 0 001.17-3.449c.3-1.261.369-2.49.21-3.69-.28.12-.54.21-.779.271-.24.06-.48.09-.721.09-.76 0-1.41-.279-1.95-.84s-.81-1.261-.81-2.101c0-1.119.33-1.979.99-2.58.66-.6 1.43-.899 2.31-.899 1.399 0 2.46.53 3.181 1.59.72 1.061 1.079 2.35 1.079 3.87 0 1-.189 2.22-.569 3.659-.381 1.44-.9 2.851-1.561 4.23s-1.431 2.529-2.31 3.449zm10.559 0l-1.62-1.2c.44-.56.9-1.359 1.381-2.4a18.484 18.484 0 001.17-3.449c.3-1.261.369-2.49.21-3.69-.28.12-.54.21-.78.271-.24.06-.48.09-.72.09-.761 0-1.41-.279-1.95-.84s-.811-1.261-.811-2.101c0-1.119.33-1.979.99-2.58.66-.6 1.43-.899 2.311-.899 1.399 0 2.46.53 3.18 1.59.72 1.061 1.08 2.35 1.08 3.87 0 1-.19 2.22-.57 3.659-.381 1.44-.899 2.851-1.56 4.23s-1.431 2.529-2.311 3.449z"></path>
</svg>
