<svg xmlns="http://www.w3.org/2000/svg" width="190.125" height="83.943" viewBox="0 0 191 84">
  <path d="M6.125 60.943H73v2H6.125zM0 67.943h79.125v2H0zM0 74.943h79.125v2H0zM17 81.943h45.125v2H17zM117.125 60.943H184v2h-66.875zM111 67.943h79.125v2H111zM111 74.943h79.125v2H111zM128 81.943h45.125v2H128zM46.292 39.045h-7.974c-2.109 0-3.285-1.084-4.23-1.956-.723-.667-1.161-1.044-1.77-1.044h-1.027v-2h1.027c1.42 0 2.326.836 3.126 1.574.83.765 1.546 1.426 2.874 1.426h7.974v2zM58.292 29.045h-5c-1.654 0-3-1.346-3-3v-2c0-1.654 1.346-3 3-3h5c1.654 0 3 1.346 3 3v2c0 1.655-1.346 3-3 3zm-5-6c-.552 0-1 .449-1 1v2c0 .551.448 1 1 1h5c.552 0 1-.449 1-1v-2c0-.551-.448-1-1-1h-5z"></path>
  <path d="M57.292 23.045h-5c-1.654 0-3-1.346-3-3v-2c0-1.654 1.346-3 3-3h5c1.654 0 3 1.346 3 3v2c0 1.655-1.346 3-3 3zm-5-6c-.552 0-1 .449-1 1v2c0 .551.448 1 1 1h5c.552 0 1-.449 1-1v-2c0-.551-.448-1-1-1h-5zM57.292 35.045h-5c-1.654 0-3-1.346-3-3v-2c0-1.654 1.346-3 3-3h5c1.654 0 3 1.346 3 3v2c0 1.655-1.346 3-3 3zm-5-6c-.552 0-1 .449-1 1v2c0 .551.448 1 1 1h5c.552 0 1-.449 1-1v-2c0-.551-.448-1-1-1h-5z"></path>
  <path d="M55.292 40.045h-5c-1.654 0-3-1.346-3-3v-1c0-1.654 1.346-3 3-3h5c1.654 0 3 1.346 3 3v1c0 1.655-1.346 3-3 3zm-5-5c-.552 0-1 .449-1 1v1c0 .551.448 1 1 1h5c.552 0 1-.449 1-1v-1c0-.551-.448-1-1-1h-5zM32.292 39.045h-12v-24h12v24zm-10-2h8v-20h-8v20z"></path>
  <path d="M39.845 30.982l-.701-1.873a10.948 10.948 0 007.148-10.083v-4.98c0-.388.122-.771.29-1.299.283-.888.71-2.229.71-4.281 0-3.085-.519-4.063-1.791-5.71-.55-.71-1.309-.86-1.784-.697-.426.145-.426.447-.426.546v1.442c0 4.728-2.082 7.722-4.331 10.252l-4.22 4.748h-2.449v-2h1.551l3.624-4.077c2.362-2.657 3.826-5.077 3.826-8.923V2.604c0-1.129.682-2.064 1.78-2.439 1.163-.396 2.856-.129 4.012 1.368 1.558 2.016 2.209 3.424 2.209 6.933 0 2.362-.504 3.943-.805 4.888-.084.265-.188.595-.195.699v4.993c-.108 5.378-3.424 10.056-8.448 11.936zM25.292 19.045h2v4h-2z"></path>
  <g>
    <path d="M151.469 31.474a.999.999 0 01-.964-1.266l1.529-5.542a1 1 0 01.256-.44L170.3 6.171c.762-.763 2.205-.626 3.123.292l2.002 2.002c.958.958 1.088 2.33.296 3.123l-18.01 18.054a.987.987 0 01-.44.257l-5.534 1.538a.99.99 0 01-.268.037zm2.423-6.023l-.989 3.586 3.579-.995 17.751-17.795a.793.793 0 00-.222-.368l-2.002-2.002a.782.782 0 00-.366-.22l-17.751 17.794z"></path>
    <path d="M169.587 8.299l4.004 4.004-1.414 1.415-4.004-4.005zM138.904 43.008c-.214 0-.432-.035-.646-.106a1.973 1.973 0 01-1.369-1.898v-4.998h-2c-3.309 0-6-2.692-6-6v-21c0-3.308 2.691-6 6-6h24c3.309 0 6 2.691 6 6v2h-2v-2c0-2.206-1.794-4-4-4h-24c-2.206 0-4 1.794-4 4v21c0 2.206 1.794 4 4 4h4v6.998l.124-.136 7.487-6.861h12.389c2.206 0 4-1.794 4-4v-4h2v4c0 3.309-2.691 6-6 6h-11.611l-6.855 6.283c-.388.463-.94.718-1.519.718z"></path>
    <path d="M137.889 12.005h18v2h-18zM137.889 16.005h18v2h-18zM137.889 20.005h10v2h-10z"></path>
  </g>
</svg>
