<svg xmlns="http://www.w3.org/2000/svg" width="189.976" height="129.984" viewBox="0 0 190 130">
  <path d="M7.606 9.997l4.95 4.95-1.414 1.414-4.95-4.95z"></path>
  <path d="M6.192 11.364l4.95-4.95 1.414 1.414-4.95 4.95zM181.143 12.78l-4.95-4.95 1.414-1.415 4.95 4.95z"></path>
  <path d="M182.557 11.41l-4.95 4.95-1.414-1.414 4.95-4.95z"></path>
  <path d="M187.976 2v125.984H2V2h185.976m2-2H0v129.984h189.976V0z"></path>
  <path d="M58 36v41H14V36h44m2-2H12v45h48V34zM117 36v41H73V36h44m2-2H71v45h48V34zM177 36v41h-44V36h44m2-2h-48v45h48V34zM51.875 9.936H139v2H51.875zM1.167 20.936h187.667v2H1.167zM12 83.875h48v2H12zM12 89.875h48v2H12zM12 95.875h48v2H12zM12 101.875h24v2H12zM71 83.875h48v2H71zM71 89.875h48v2H71zM71 95.875h48v2H71zM71 101.875h24v2H71zM131 83.875h48v2h-48zM131 89.875h48v2h-48zM131 95.875h48v2h-48zM131 101.875h24v2h-24z"></path>
</svg>
