<svg xmlns="http://www.w3.org/2000/svg" width="191" height="126.333" viewBox="0 0 191 126">
  <path d="M87 2v54.333H2V2h85m2-2H0v58.333h89V0zM189 40.833v51.5h-85v-51.5h85m2-2h-89v55.5h89v-55.5zM0 68.333h89v2H0zM0 75.333h89v2H0zM0 82.333h89v2H0zM0 89.333h89v2H0zM0 96.333h89v2H0zM0 103.333h89v2H0zM0 110.333h89v2H0zM0 117.333h89v2H0zM0 124.333h89v2H0zM102 103.333h89v2h-89zM102 110.333h89v2h-89zM102 117.333h89v2h-89zM102 124.333h55.25v2H102zM102 7h89v2h-89zM102 0h89v2h-89zM102 14h89v2h-89zM102 21h89v2h-89zM102 28h89v2h-89z"></path>
</svg>
