<svg xmlns="http://www.w3.org/2000/svg" width="190" height="130" viewBox="0 0 190 130">
  <path d="M16 10v6h-6v-6h6m2-2H8v10h10V8zM8 50h23v2H8zM8 56h23v2H8zM8 62h23v2H8zM8 68h23v2H8zM8 74h23v2H8z"></path>
  <path d="M0 0v130h190V0H0zm2 2h42v126H2V2zm186 126H46V2h142v126z"></path>
  <path d="M179 10v30h-35V10h35m2-2h-39v34h39V8zM179 50v30h-35V50h35m2-2h-39v34h39V48zM134 10v30H99V10h35m2-2H97v34h39V8zM134 50v30H99V50h35m2-2H97v34h39V48zM89 10v30H54V10h35m2-2H52v34h39V8zM89 50v30H54V50h35m2-2H52v34h39V48zM179 90v30h-35V90h35m2-2h-39v34h39V88zM134 90v30H99V90h35m2-2H97v34h39V88zM89 90v30H54V90h35m2-2H52v34h39V88z"></path>
</svg>