<svg xmlns="http://www.w3.org/2000/svg" width="189.976" height="110.986" viewBox="0 0 190 111">
  <path d="M144.75 2v74.75H45V2h99.75m2-2H43v78.75h103.75V0zM34.75 0H0v2h32.75v74.75H0v2h34.75zM157 76.75V2h32.976V0H155v78.75h34.976v-2zM0 104.031h23.75v2H0zM166.226 104.031h23.75v2h-23.75zM101.188 104.031h54.789v2h-54.789zM34.083 104.031h56.893v2H34.083z"></path>
  <path d="M96.071 100.969c2.21 0 4.009 1.798 4.009 4.009s-1.798 4.009-4.009 4.009-4.009-1.798-4.009-4.009 1.799-4.009 4.009-4.009m0-2a6.01 6.01 0 100 12.018 6.01 6.01 0 000-12.018zM29.071 100.969c2.21 0 4.009 1.798 4.009 4.009s-1.798 4.009-4.009 4.009-4.009-1.798-4.009-4.009 1.799-4.009 4.009-4.009m0-2a6.01 6.01 0 100 12.018 6.01 6.01 0 000-12.018zM161.071 100.969c2.21 0 4.009 1.798 4.009 4.009s-1.798 4.009-4.009 4.009-4.009-1.798-4.009-4.009 1.799-4.009 4.009-4.009m0-2a6.01 6.01 0 100 12.018 6.01 6.01 0 000-12.018z"></path>
</svg>
