<svg xmlns="http://www.w3.org/2000/svg" width="189.976" height="123.984" viewBox="0 0 190 124">
  <path d="M20.944 6.998A5.006 5.006 0 0125.947 2h139.051A5.006 5.006 0 01170 6.998V114.75h2V6.998A7 7 0 00164.997 0H25.947a7 7 0 00-7.003 6.998V114.75h2V6.998z"></path>
  <path d="M164.75 9.75v99h-139v-99h139m2-2h-143v103h143v-103zM187.976 115.75v6.234H2v-6.234h185.976m2-2H0v10.234h189.976V113.75zM1.415 57.414l4.95 4.95-1.415 1.414L0 58.828z"></path>
  <path d="M0 58.78l4.95-4.95 1.414 1.415-4.95 4.95zM188.563 60.196l-4.95-4.95 1.415-1.414 4.95 4.95z"></path>
  <path d="M189.978 58.827l-4.95 4.95-1.414-1.414 4.95-4.95z"></path>
</svg>
