<svg xmlns="http://www.w3.org/2000/svg" width="190" height="130" viewBox="0 0 190 130">
  <path d="M188 2v61H2V2h186m2-2H0v65h190V0z"></path>
  <path d="M160 2v126H30V2h130m2-2H28v130h134V0z"></path>
  <path d="M60 29.917h70v2H60zM77.5 36.917h35v2h-35zM6.713 29.917h15v2h-15z"></path>
  <path d="M17.377 25.256l5.656 5.657-1.414 1.414-5.657-5.657z"></path>
  <path d="M15.962 35.163l5.657-5.657 1.414 1.415-5.656 5.656zM168.034 29.917h15v2h-15z"></path>
  <path d="M172.37 36.578l-5.656-5.656 1.414-1.415 5.657 5.657z"></path>
  <path d="M173.785 26.669l-5.657 5.657-1.414-1.414 5.657-5.657z"></path>
</svg>
