<svg xmlns="http://www.w3.org/2000/svg" width="190" height="130" viewBox="0 0 190 130">
  <path d="M188 2v126H2V2h186m2-2H0v130h190V0z"></path>
  <path d="M26 20v6h-6v-6h6m2-2H18v10h10V18zM162 18h10v2h-10zM162 21h10v2h-10zM162 24h10v2h-10zM69 65h52v2H69zM81 70h28v2H81z"></path>
  <path d="M137 57v22H53V57h84m2-2H51v26h88V55z"></path>
  <path d="M178 12v106H12V12h166m2-2H10v110h170V10z"></path>
  <path d="M93.608 110.504l4.95-4.95 1.414 1.414-4.95 4.95z"></path>
  <path d="M94.976 111.92l-4.95-4.95 1.414-1.414 4.95 4.95z"></path>
</svg>