<svg xmlns="http://www.w3.org/2000/svg" width="190" height="130" viewBox="0 0 190 130">
  <path d="M16 10v6h-6v-6h6m2-2H8v10h10V8zM172 8h10v2h-10zM172 11h10v2h-10zM172 14h10v2h-10zM8 79h24v2H8zM8 85h19v2H8zM8 91h28v2H8zM8 97h22v2H8zM8 103h24v2H8zM8 109h19v2H8zM8 115h28v2H8zM8 121h22v2H8zM40 26v35H10V26h30m2-2H8v39h34V24zM180 26v66H50V26h130m2-2H48v70h134V24zM40 69v4H10v-4h30m2-2H8v8h34v-8z"></path>
  <path d="M0 0v130h190V0H0zm50 128v-26h60v26H50zm70 0v-26h60v26h-60zm68 0h-6v-28h-64v28h-6v-28H48v28H2V2h186v126z"></path>
</svg>