<svg xmlns="http://www.w3.org/2000/svg" width="190" height="130" viewBox="0 0 190 130">
  <path d="M188 2v126H2V2h186m2-2H0v130h190V0z"></path>
  <path d="M169.503 41.789l10.607 10.606-1.414 1.415-10.607-10.607z"></path>
  <path d="M178.341 46.036h2v8h-2z"></path>
  <path d="M172.335 52.041h8v2h-8zM19.927 21.187L9.32 10.581l1.414-1.415 10.607 10.607z"></path>
  <path d="M9.09 8.942h2v8h-2z"></path>
  <path d="M9.095 8.937h8v2h-8zM60 29.966h70v2H60zM1.44 62.966h187.119v2H1.44zM78.083 36.966h33.833v2H78.083z"></path>
</svg>
