<svg xmlns="http://www.w3.org/2000/svg" width="190" height="130" viewBox="0 0 190 130">
  <path d="M16 10v6h-6v-6h6m2-2H8v10h10V8zM172 8h10v2h-10zM172 11h10v2h-10zM172 14h10v2h-10z"></path>
  <path d="M0 0v130h190V0H0zm2 2h88v126H2V2zm186 126H92V2h96v126z"></path>
  <path d="M99 20h64v2H99zM99 26h64v2H99zM99 32h41v2H99zM102 114h4v4h-4zM98 120h12v2H98zM126 114h4v4h-4zM122 120h12v2h-12zM150 114h4v4h-4zM146 120h12v2h-12zM174 114h4v4h-4zM170 120h12v2h-12zM126 47v6h-25v-6h25m2-2H99v10h29V45z"></path>
</svg>