<svg xmlns="http://www.w3.org/2000/svg" width="189.988" height="129.999" viewBox="0 0 190 130">
  <path d="M129.5 2c1.103 0 2 .897 2 1.999v122a2.002 2.002 0 01-2 1.999h-69c-1.103 0-2-.897-2-1.999v-122c0-1.102.897-1.999 2-1.999h69m0-2h-69a4 4 0 00-4 3.999v122a3.999 3.999 0 004 3.999h69a4 4 0 004-3.999v-122a4 4 0 00-4-3.999z"></path>
  <path d="M56.5 12.75h75.75v2H56.5zM56.5 110.75h75.75v2H56.5zM164.125 15.959h25.863v2h-25.863zM164.125 21.959h25.863v2h-25.863zM164.125 27.959h16.812v2h-16.812z"></path>
  <path d="M149 14.959c4.411 0 8 3.589 8 8s-3.589 8-8 8-8-3.589-8-8 3.589-8 8-8m0-2c-5.523 0-10 4.477-10 10s4.477 10 10 10 10-4.477 10-10-4.477-10-10-10z"></path>
  <path d="M164.125 54.959h25.863v2h-25.863zM164.125 60.959h25.863v2h-25.863zM164.125 66.959h16.812v2h-16.812z"></path>
  <path d="M149 53.959c4.411 0 8 3.589 8 8s-3.589 8-8 8-8-3.589-8-8 3.589-8 8-8m0-2c-5.523 0-10 4.477-10 10s4.477 10 10 10 10-4.477 10-10-4.477-10-10-10z"></path>
  <path d="M164.125 96.959h25.863v2h-25.863zM164.125 102.959h25.863v2h-25.863zM164.125 108.959h16.812v2h-16.812z"></path>
  <path d="M149 95.959c4.411 0 8 3.589 8 8s-3.589 8-8 8-8-3.589-8-8 3.589-8 8-8m0-2c-5.523 0-10 4.477-10 10s4.477 10 10 10 10-4.477 10-10-4.477-10-10-10z"></path>
  <path d="M0 15.959h25.863v2H0zM0 21.959h25.863v2H0zM9.051 27.959h16.812v2H9.051z"></path>
  <path d="M40.988 14.959c4.411 0 8 3.589 8 8s-3.589 8-8 8-8-3.589-8-8 3.589-8 8-8m0-2c-5.523 0-10 4.477-10 10s4.477 10 10 10 10-4.477 10-10-4.477-10-10-10z"></path>
  <path d="M0 54.959h25.863v2H0zM0 60.959h25.863v2H0zM9.051 66.959h16.812v2H9.051z"></path>
  <path d="M40.988 53.959c4.411 0 8 3.589 8 8s-3.589 8-8 8-8-3.589-8-8 3.589-8 8-8m0-2c-5.523 0-10 4.477-10 10s4.477 10 10 10 10-4.477 10-10-4.477-10-10-10z"></path>
  <path d="M0 96.959h25.863v2H0zM0 102.959h25.863v2H0zM9.051 108.959h16.812v2H9.051z"></path>
  <path d="M40.988 95.959c4.411 0 8 3.589 8 8s-3.589 8-8 8-8-3.589-8-8 3.589-8 8-8m0-2c-5.523 0-10 4.477-10 10s4.477 10 10 10 10-4.477 10-10-4.477-10-10-10z"></path>
</svg>