<svg xmlns="http://www.w3.org/2000/svg" width="190" height="130" viewBox="0 0 190 130">
  <path d="M188 2v126H2V2h186m2-2H0v130h190V0z"></path>
  <path d="M94.006 1.008h2v127.5h-2z"></path>
  <path d="M1.238 36.258h187.524v2H1.238zM22.054 15.05h49.958v2H22.054zM33.574 21.05h26.917v2H33.574zM145.515 89.818l1.414 1.415-7.778 7.778-1.414-1.414z"></path>
  <path d="M146.93 97.597l-1.413 1.414-7.778-7.778 1.414-1.414zM145.515 112.818l1.415 1.414-7.779 7.779-1.414-1.415zM149.316 69.204l-1.414-1.415-6.372 6.373-3.544-3.544-1.414 1.414 4.95 4.95.008-.009.008.009zM149.316 45.204l-1.414-1.415-6.372 6.373-3.544-3.544-1.414 1.414 4.95 4.95.008-.009.008.009zM51.316 69.204l-1.414-1.415-6.372 6.373-3.544-3.544-1.414 1.414 4.95 4.95.008-.009.008.009zM51.316 45.204l-1.414-1.415-6.372 6.373-3.544-3.544-1.414 1.414 4.95 4.95.008-.009.008.009zM51.316 114.204l-1.414-1.415-6.372 6.373-3.544-3.544-1.414 1.414 4.95 4.95.008-.009.008.009zM51.316 91.204l-1.414-1.415-6.372 6.373-3.544-3.544-1.414 1.414 4.95 4.95.008-.009.008.009z"></path>
  <path d="M146.93 120.597l-1.413 1.415-7.778-7.778 1.414-1.415zM118.054 15.05h49.958v2h-49.958zM129.574 21.05h26.917v2h-26.917zM1.238 59.258h187.524v2H1.238zM1.238 82.258h187.524v2H1.238zM1.238 105.258h187.524v2H1.238z"></path>
</svg>
