<svg xmlns="http://www.w3.org/2000/svg" width="190" height="130" viewBox="0 0 190 130">
  <path d="M70 17v37H35V17h35m2-2H33v41h39V15zM113 17v54H78V17h35m2-2H76v58h39V15zM156 17v18h-35V17h35m2-2h-39v22h39V15zM33 59h33v2H33zM33 64h18v2H33zM76 76h33v2H76zM76 81h18v2H76zM119 40h33v2h-33zM119 45h18v2h-18zM119 95h33v2h-33zM119 100h18v2h-18zM70 75v48H35V75h35m2-2H33v52h39V73zM156 56v34h-35V56h35m2-2h-39v38h39V54z"></path>
  <path d="M113 92v36H78V92h35m43 19v17h-35v-17h35M190 0H0v130h190V0zM2 128V2h186v126h-30v-19h-39v19h-4V90H76v38H2z"></path>
</svg>