<svg xmlns="http://www.w3.org/2000/svg" width="190" height="130" viewBox="0 0 190 130">
  <g>
    <rect class="element-filled" fill="#fafafa" x="0" y="0" width="100%" height="100%"></rect>
    <path d="M37 9v6h-6V9h6m2-2H29v10h10V7zM172 8h10v2h-10zM172 11h10v2h-10zM172 14h10v2h-10z"></path>
    <path fill="none" d="M16 45h13v46H16zM31 45h66v46H31z"></path>
    <path fill="none" d="M99 93H31v19h157V24H31v19h68z"></path>
    <path d="M0 0v130h190V0H0zm31 93h68V43H31V24h157v88H31V93zm-2-2H16V45h81v46H29zm0-69v21H14v50h15v21h159v14H2V2h186v20H29z"></path>
    <path d="M21 52h50v2H21zM21 58h50v2H21zM21 64h32v2H21zM42 76v6H23v-6h19m2-2H21v10h23V74z"></path>
  </g>
</svg>