<svg xmlns="http://www.w3.org/2000/svg" width="190" height="130" viewBox="0 0 190 130">
  <path d="M188 2v126H2V2h186m2-2H0v130h190V0z"></path>
  <path d="M94 31.258h2v32.421h-2zM.79 82.04h188.097v2H.79z"></path>
  <path d="M100.662 59.343L95.005 65l-1.414-1.414 5.657-5.657z"></path>
  <path d="M90.754 57.928l5.657 5.656L94.996 65l-5.656-5.657zM94 96.508h2v16.171h-2z"></path>
  <path d="M100.662 108.344L95.005 114l-1.414-1.414 5.657-5.657z"></path>
  <path d="M90.754 106.927l5.657 5.657-1.414 1.414-5.657-5.656z"></path>
</svg>
