<svg xmlns="http://www.w3.org/2000/svg" width="190" height="130" viewBox="0 0 190 130">
  <path d="M32 10v6h-6v-6h6m2-2H24v10h10V8zM155 8h10v2h-10zM155 11h10v2h-10zM155 14h10v2h-10zM65 33v25H26V33h39m2-2H24v29h43V31zM65 68v25H26V68h39m2-2H24v29h43V66zM114 33v25H75V33h39m2-2H73v29h43V31zM114 68v25H75V68h39m2-2H73v29h43V66zM163 33v25h-39V33h39m2-2h-43v29h43V31z"></path>
  <path d="M0 0v130h190V0H0zm26 128v-25h39v25H26zm49 0v-25h39v25H75zm49 0v-25h39v25h-39zm64 0h-23v-27h-43v27h-6v-27H73v27h-6v-27H24v27H2V2h186v126z"></path>
  <path d="M163 68v25h-39V68h39m2-2h-43v29h43V66z"></path>
</svg>