<svg xmlns="http://www.w3.org/2000/svg" width="191.137" height="128.957" viewBox="0 0 191 129">
  <path d="M177.252 2c1.103 0 2 .897 2 2s-.897 2-2 2-2-.897-2-2 .897-2 2-2m0-2a4 4 0 100 8 4 4 0 000-8zM187.137 10.08c1.103 0 2 .897 2 2s-.897 2-2 2-2-.897-2-2 .897-2 2-2m0-2a4 4 0 100 8 4 4 0 000-8zM174.867 13.738L187.595 1.01l1.414 1.414-12.727 12.728zM122.118 54.866c1.103 0 2 .897 2 2s-.897 2-2 2-2-.897-2-2 .898-2 2-2m0-2a4 4 0 100 8 4 4 0 000-8zM132.003 62.946c1.103 0 2 .897 2 2s-.897 2-2 2-2-.897-2-2c0-1.102.898-2 2-2m0-2a4 4 0 100 8 4 4 0 000-8zM119.733 66.603l12.728-12.727 1.414 1.414-12.727 12.728zM176.997 108.033c1.103 0 2 .897 2 2s-.897 2-2 2-2-.897-2-2 .897-2 2-2m0-2a4 4 0 100 8 4 4 0 000-8zM186.882 116.113c1.103 0 2 .897 2 2s-.897 2-2 2-2-.897-2-2 .897-2 2-2m0-2a4 4 0 100 8 4 4 0 000-8zM174.612 119.77l12.728-12.728 1.414 1.415-12.728 12.727zM0 13.957h48.167v2H0zM0 20.957h190.167v2H0zM0 66.957h35.167v2H0zM0 73.957h135.167v2H0zM0 119.957h57v2H0zM0 126.957h190.167v2H0z"></path>
</svg>
