<svg xmlns="http://www.w3.org/2000/svg" width="190" height="130" viewBox="0 0 190 130">
  <path d="M99 82h50v2H99zM99 88h50v2H99zM99 94h50v2H99zM99 100h32v2H99zM99 110h50v2H99zM99 116h50v2H99zM99 122h32v2H99zM165 15v56H25V15h140m2-2H23v60h144V13zM91 83v17H47V83h44m2-2H45v21h48V81z"></path>
  <path d="M0 0v130h190V0H0zm2 15h15v56H2V15zm45 113v-17h44v17H47zm141-57h-15V15h15v56zm-17-58v60h17v55H93v-19H45v19H2V73h17V13H2V2h186v11h-17z"></path>
  <path d="M30 42.887h15v2H30z"></path>
  <path d="M34.336 49.548l-5.657-5.656 1.414-1.415 5.657 5.657z"></path>
  <path d="M35.75 39.64l-5.656 5.657-1.414-1.414 5.657-5.657zM145.679 42.887h15v2h-15z"></path>
  <path d="M156.342 38.225L162 43.882l-1.414 1.414-5.657-5.657z"></path>
  <path d="M154.927 48.134l5.657-5.656 1.414 1.414-5.657 5.657z"></path>
</svg>