<svg xmlns="http://www.w3.org/2000/svg" width="189.007" height="127.848" viewBox="0 0 189 127">
  <path d="M150.727 0c-21.108 0-38.281 17.173-38.281 38.281a38.382 38.382 0 0012.453 28.252 38.176 38.176 0 0025.828 10.029c9.896 0 19.29-3.772 26.451-10.623 7.629-7.299 11.83-17.121 11.83-27.658C189.007 17.173 171.835 0 150.727 0m0 1.85c20.088 0 36.431 16.343 36.431 36.431 0 9.544-3.622 18.472-10.23 25.299l-2.094-6a.911.911 0 00-.035-.086 14.577 14.577 0 00-5.898-6.42l-2.505-29.371c-.976-8.677-7.163-14.284-15.759-14.284-8.145 0-14.92 6.144-15.761 14.32l-2.081 28.941c-2.58 1.421-4.465 3.732-5.905 7.226a.732.732 0 00-.033.093l-1.795 6.135c-6.86-6.818-10.767-16.156-10.767-25.853 0-20.088 16.344-36.431 36.432-36.431m16.241 48.323l-8.739-3.431-.964-.521v-3.879a7.446 7.446 0 002.577-3.025l1.587-3.419a12.098 12.098 0 001.053-6.42l-.603-5.487a.926.926 0 00-.919-.824h-6.84l-3.548-2.822a.925.925 0 00-1.499.677l-.109 2.145h-8.183a.926.926 0 00-.92.824l-.603 5.487a12.113 12.113 0 001.053 6.42l1.587 3.419a7.394 7.394 0 002.507 2.978l.024 3.842-9.724 3.731 2.011-27.968c.742-7.201 6.726-12.631 13.919-12.631 7.709 0 13.043 4.844 13.918 12.617l2.415 28.287zm-20.715-8.392a.926.926 0 00-.455-.791 5.558 5.558 0 01-2.222-2.454l-1.587-3.418a10.248 10.248 0 01-.892-5.439l.513-4.664h8.233a.925.925 0 00.923-.878l.062-1.227 2.393 1.903c.164.13.367.201.576.201h6.334l.512 4.664a10.267 10.267 0 01-.892 5.439l-1.587 3.419a5.588 5.588 0 01-2.611 2.663l-3.309 1.219a.925.925 0 10.641 1.735l2.531-.933v3.549c0 .34.186.651.484.813l1.498.811a.948.948 0 00.102.048l6.941 2.725a14.268 14.268 0 01-13.045 8.448 14.237 14.237 0 01-13.249-8.926.93.93 0 00-.067-.134l7.61-2.921a.926.926 0 00.594-.862v-.007l-.031-4.983zm-17.636 16.784c.168-.406.342-.792.521-1.159.05-.105.106-.198.158-.3.13-.255.26-.51.397-.747.069-.12.144-.227.215-.343.125-.202.249-.408.379-.597.083-.119.171-.225.255-.339.127-.169.251-.342.383-.499.094-.113.195-.213.292-.319.13-.143.259-.29.394-.423.106-.103.217-.195.326-.292.137-.122.271-.247.413-.36.116-.092.24-.174.36-.261.144-.104.286-.21.436-.305.127-.081.262-.154.394-.229.125-.072.243-.15.372-.216.042-.012.076-.038.115-.055.055-.025.114-.043.163-.078l2.189-.84a.92.92 0 00.052.178 16.079 16.079 0 0014.963 10.081 16.114 16.114 0 0014.768-9.62l1.041.409.089.047a.925.925 0 00.62.353c.01.001.02.005.031.006.098.056.189.12.285.179.126.077.251.153.374.234.155.102.305.209.455.318.118.086.238.171.353.261.147.114.29.234.432.355.11.094.221.185.328.283.14.128.274.261.408.394.1.099.202.197.299.3.133.141.259.29.386.437.088.103.179.203.264.308.128.159.247.325.368.49.074.102.152.2.222.303.128.186.245.38.362.573.054.088.112.174.164.263.164.286.317.578.458.877l2.364 6.774c-6.759 6.261-15.521 9.703-24.741 9.703a36.327 36.327 0 01-24.153-9.16l2.046-6.984zM38.28 0C17.172 0 0 17.173 0 38.281 0 48.319 3.864 57.81 10.881 65.004c7.271 7.453 17.001 11.558 27.399 11.558s20.128-4.105 27.399-11.558c7.017-7.194 10.882-16.684 10.882-26.723C76.561 17.173 59.388 0 38.28 0m25.813 63.979c-6.89 6.924-16.042 10.733-25.812 10.733s-18.922-3.809-25.812-10.734v-5.501a3.492 3.492 0 012.231-3.275l13.389-4.819c.688 3.828 5.156 6.993 10.192 6.993 4.94 0 9.334-3.045 10.149-6.774l13.381 4.622a3.537 3.537 0 012.282 3.296v5.459zM31.03 42.785c-.848-.229-2.209-2.513-2.568-3.987-.173-.709-.357-1.3-.52-1.822-.257-.823-.459-1.472-.497-2.202a.914.914 0 00-.948-.875.924.924 0 00-.9.924v.149c-.152-.091-.415-.301-.783-.78a4.399 4.399 0 01-.851-3.277c.097-.634.32-.982.402-1.041.255-.151.618.255.618.255a.927.927 0 001.598-.853l-.023-.079c-.091-.309-.443-1.504-.659-2.261-.227-.797-.302-2.144-.311-2.576 0-6.98 3.281-15.132 12.526-15.132 9.226 0 12.511 8.118 12.525 15.089l-.016.157c-.045.447-.164 1.553-.309 2.256-.195.948-.625 2.205-.629 2.218a.917.917 0 001.472.993c.017-.013.037-.02.053-.034a.384.384 0 01.32-.112h.002c.005 0 .008.002.012.003.057.01.12.032.191.075.087.061.31.41.407 1.044a4.4 4.4 0 01-.85 3.277c-.397.516-.671.719-.803.805a.925.925 0 00-1.793-.069c-.091.314-.185.619-.28.926-.301.976-.614 1.985-.86 3.37-.219 1.225-2.031 2.921-3.123 3.702a.925.925 0 00-.387.752v4.749c0 .395.25.745.623.874l1.993.689c-.467 2.73-3.898 5.536-8.38 5.536-4.618 0-8.119-2.977-8.415-5.784l1.236-.445a.925.925 0 00.612-.87V43.68a.93.93 0 00-.685-.895m31.408 10.698l-16.544-5.714V44.14c.935-.73 3.131-2.628 3.481-4.591.189-1.062.426-1.901.665-2.687.053.01.107.017.162.022.846.073 1.691-.439 2.557-1.565 1.056-1.375 1.497-3.199 1.178-4.88-.194-1.021-.636-1.786-1.247-2.153a2.445 2.445 0 00-.777-.306c.079-.293.155-.595.213-.879.204-.993.352-2.589.358-2.657a.819.819 0 00.004-.085c0-10.316-5.642-16.981-14.374-16.981-8.733 0-14.376 6.665-14.375 17 .002.076.042 1.873.382 3.064l.158.549c-.28.029-.57.12-.864.296-.61.366-1.053 1.131-1.246 2.152-.319 1.68.122 3.505 1.178 4.879.865 1.127 1.7 1.632 2.556 1.566l.075-.008c.062.212.13.427.199.65.162.52.329 1.058.488 1.71.254 1.043 1.473 3.99 3.199 5.036v3.506l-15.803 5.689-.023.008a5.334 5.334 0 00-3.42 5.002v3.502c-5.671-6.603-8.769-14.931-8.769-23.698C1.849 18.193 18.192 1.85 38.28 1.85c20.088 0 36.431 16.343 36.431 36.431 0 8.767-3.098 17.095-8.77 23.698v-3.461a5.4 5.4 0 00-3.503-5.035"></path>
  <path d="M41.784 18.542a3.215 3.215 0 00-.161.95c0 .293.054.579.185.843.231.466.768 1.022 2.007 1.022 2.786 0 3.684 3.062 3.722 3.196l.393 1.388a.925.925 0 001.78-.503l-.391-1.382c-.433-1.573-2.141-4.548-5.504-4.548-.185 0-.293-.021-.35-.037v-.006c0-.343.421-1.215.908-1.862a.92.92 0 00.187-.559.92.92 0 00-.363-.734c-.66-.504-2.315-.802-5.983 2.866-5.279 5.28-8.321 4.331-8.416 4.299a.924.924 0 00-.701 1.711c.412.175 4.203 1.521 10.425-4.702.953-.954 1.697-1.559 2.262-1.942M8.016 89.864h66v2h-66zM5.516 96.864h71v2h-71zM17.516 103.864h47v2h-47zM26.016 120.848c1.379 0 2.5 1.122 2.5 2.5s-1.121 2.5-2.5 2.5-2.5-1.122-2.5-2.5 1.121-2.5 2.5-2.5m0-2a4.5 4.5 0 100 9 4.5 4.5 0 000-9zM41.016 120.848c1.379 0 2.5 1.122 2.5 2.5s-1.121 2.5-2.5 2.5-2.5-1.122-2.5-2.5 1.121-2.5 2.5-2.5m0-2a4.5 4.5 0 100 9 4.5 4.5 0 000-9zM56.016 120.848c1.379 0 2.5 1.122 2.5 2.5s-1.121 2.5-2.5 2.5-2.5-1.122-2.5-2.5 1.121-2.5 2.5-2.5m0-2a4.5 4.5 0 100 9 4.5 4.5 0 000-9zM118.016 89.864h66v2h-66zM115.516 96.864h71v2h-71zM127.516 103.864h47v2h-47zM136.016 120.848c1.379 0 2.5 1.122 2.5 2.5s-1.121 2.5-2.5 2.5-2.5-1.122-2.5-2.5 1.121-2.5 2.5-2.5m0-2a4.5 4.5 0 100 9 4.5 4.5 0 000-9zM151.016 120.848c1.379 0 2.5 1.122 2.5 2.5s-1.121 2.5-2.5 2.5-2.5-1.122-2.5-2.5 1.121-2.5 2.5-2.5m0-2a4.5 4.5 0 100 9 4.5 4.5 0 000-9zM166.016 120.848c1.379 0 2.5 1.122 2.5 2.5s-1.121 2.5-2.5 2.5-2.5-1.122-2.5-2.5 1.121-2.5 2.5-2.5m0-2a4.5 4.5 0 100 9 4.5 4.5 0 000-9z"></path>
</svg>
