<svg xmlns="http://www.w3.org/2000/svg" width="190" height="130" viewBox="0 0 190 130">
  <path d="M188 2v126H2V2h186m2-2H0v130h190V0z"></path>
  <path d="M18 9v6h-6V9h6m2-2H10v10h10V7zM170 8h10v2h-10zM170 11h10v2h-10zM170 14h10v2h-10zM113 25v80H76V25h37m2-2H74v84h41V23zM136 39h35v2h-35zM136 45h28v2h-28zM18 39h35v2H18zM25 45h28v2H25zM128 39h4v4h-4zM57 39h4v4h-4zM18 56h35v2H18zM25 62h28v2H25zM57 56h4v4h-4zM18 73h35v2H18zM25 79h28v2H25zM57 73h4v4h-4zM18 90h35v2H18zM25 96h28v2H25zM57 90h4v4h-4zM136 56h35v2h-35zM136 62h28v2h-28zM128 56h4v4h-4zM136 73h35v2h-35zM136 79h28v2h-28zM128 73h4v4h-4zM136 90h35v2h-35zM136 96h28v2h-28zM128 90h4v4h-4z"></path>
</svg>