<svg xmlns="http://www.w3.org/2000/svg" width="190" height="130" viewBox="0 0 190 130">
  <path d="M16 10v6h-6v-6h6m2-2H8v10h10V8zM172 8h10v2h-10zM172 11h10v2h-10zM172 14h10v2h-10zM42 30h105v2H42zM65 36h59v2H65z"></path>
  <path d="M0 0v130h190V0H0zm2 128V57h15v71H2zm23 0V57h140v71H25zm163 0h-15V57h15v71zm-17-73v73h-4V55H23v73h-4V55H2V2h186v53h-17z"></path>
  <path d="M30.318 91.5h15v2h-15z"></path>
  <path d="M34.653 98.161l-5.657-5.657 1.415-1.414 5.656 5.657z"></path>
  <path d="M36.069 88.254l-5.657 5.657-1.414-1.414 5.657-5.657zM145.997 91.5h15v2h-15z"></path>
  <path d="M156.661 86.838l5.657 5.657-1.414 1.414-5.657-5.657z"></path>
  <path d="M155.246 96.746l5.656-5.656 1.415 1.414-5.657 5.657z"></path>
</svg>