<svg xmlns="http://www.w3.org/2000/svg" width="190" height="130" viewBox="0 0 190 130">
  <path d="M188 2v126H2V2h186m2-2H0v130h190V0z"></path>
  <path d="M61.887.75h2v128.5h-2zM124.887.75h2v128.5h-2zM11.949 38h41.063v2H11.949z"></path>
  <path d="M.452 25h188.56v2H.452zM11.949 44h41.063v2H11.949zM11.949 50h41.063v2H11.949zM20.012 56H44.95v2H20.012zM11.949 76h41.063v2H11.949zM11.949 82h41.063v2H11.949zM11.949 88h41.063v2H11.949zM20.012 94H44.95v2H20.012zM74.949 38h41.063v2H74.949zM74.949 44h41.063v2H74.949zM74.949 50h41.063v2H74.949zM83.012 56h24.938v2H83.012zM74.949 76h41.063v2H74.949zM74.949 82h41.063v2H74.949zM74.949 88h41.063v2H74.949zM83.012 94h24.938v2H83.012zM136.949 38h41.063v2h-41.063zM136.949 44h41.063v2h-41.063zM136.949 50h41.063v2h-41.063zM145.012 56h24.938v2h-24.938zM136.949 76h41.063v2h-41.063zM136.949 82h41.063v2h-41.063zM136.949 88h41.063v2h-41.063zM145.012 94h24.938v2h-24.938z"></path>
  <path d="M25.375 9.41v8.34h-1.38v-6.252l-2.412 6.252h-1.2l-2.424-6.252v6.252h-1.368V9.41h1.656l2.76 6.66 2.712-6.66h1.656zM31.771 11.462c.512.272.912.664 1.2 1.176.288.512.432 1.112.432 1.8 0 .696-.144 1.3-.432 1.812a2.929 2.929 0 01-1.2 1.176 3.625 3.625 0 01-1.728.408c-.64 0-1.214-.136-1.722-.408a2.96 2.96 0 01-1.2-1.182c-.292-.516-.438-1.118-.438-1.806s.146-1.288.438-1.8c.292-.512.692-.904 1.2-1.176s1.082-.408 1.722-.408c.639 0 1.215.136 1.728.408zm-2.701 1.02c-.296.16-.534.406-.714.738s-.27.738-.27 1.218c0 .488.09.896.27 1.224s.418.572.714.732.62.24.972.24.676-.08.972-.24c.296-.16.534-.404.714-.732.18-.328.27-.736.27-1.224 0-.48-.09-.886-.27-1.218a1.768 1.768 0 00-.714-.738c-.296-.16-.62-.24-.972-.24s-.676.08-.972.24zM40.267 11.774c.464.496.696 1.204.696 2.124v3.852h-1.368v-3.708c0-.592-.152-1.05-.456-1.374-.304-.324-.72-.486-1.248-.486-.544 0-.98.174-1.308.522-.328.348-.492.858-.492 1.53v3.516h-1.368v-6.612h1.368v1.452c.176-.496.472-.88.888-1.152s.896-.408 1.44-.408c.768 0 1.383.248 1.848.744z"></path>
  <g>
    <path d="M87.538 9.278v1.104h-2.364v7.368h-1.38v-7.368h-2.352V9.278h6.096zM94.654 11.138v6.612h-1.38v-1.44c-.168.488-.46.866-.876 1.134-.416.268-.9.402-1.452.402-.768 0-1.384-.248-1.848-.744-.464-.496-.696-1.204-.696-2.124v-3.84h1.368v3.696c0 .6.152 1.062.456 1.386.304.324.72.486 1.248.486.544 0 .979-.176 1.308-.528s.492-.864.492-1.536v-3.504h1.38zM102.394 14.714h-5.088c.024.68.212 1.184.564 1.512s.788.492 1.308.492c.456 0 .842-.116 1.158-.348.316-.232.51-.54.582-.924h1.464a2.846 2.846 0 01-.552 1.236c-.28.36-.644.642-1.092.846a3.578 3.578 0 01-1.5.306c-.64 0-1.206-.136-1.698-.408a2.896 2.896 0 01-1.158-1.176c-.28-.512-.42-1.116-.42-1.812 0-.688.14-1.288.42-1.8.28-.512.666-.904 1.158-1.176.492-.272 1.058-.408 1.698-.408.648 0 1.214.134 1.698.402s.856.636 1.116 1.104c.26.468.39.99.39 1.566 0 .224-.016.42-.048.588zm-1.554-1.71a1.543 1.543 0 00-.672-.648 2.074 2.074 0 00-.93-.21c-.536 0-.984.164-1.344.492-.36.328-.556.812-.588 1.452h3.756c.016-.432-.058-.794-.222-1.086z"></path>
  </g>
  <g>
    <path d="M155.069 9.278l-2.113 8.472h-1.68l-1.787-6.552-1.789 6.552h-1.68l-2.111-8.472h1.5l1.463 6.888 1.861-6.888h1.512l1.859 6.888 1.465-6.888h1.5zM162.387 14.714h-5.088c.024.68.213 1.184.564 1.512s.788.492 1.309.492c.455 0 .842-.116 1.158-.348.315-.232.51-.54.582-.924h1.463a2.834 2.834 0 01-.552 1.236c-.28.36-.644.642-1.092.846a3.578 3.578 0 01-1.5.306c-.64 0-1.206-.136-1.698-.408a2.896 2.896 0 01-1.158-1.176c-.279-.512-.42-1.116-.42-1.812 0-.688.141-1.288.42-1.8.28-.512.666-.904 1.158-1.176s1.059-.408 1.698-.408c.647 0 1.214.134 1.698.402a2.8 2.8 0 011.115 1.104c.26.468.391.99.391 1.566.001.224-.015.42-.048.588zm-1.553-1.71a1.548 1.548 0 00-.672-.648 2.082 2.082 0 00-.931-.21c-.536 0-.983.164-1.345.492-.359.328-.556.812-.588 1.452h3.756c.017-.432-.057-.794-.22-1.086zM167.944 11.498c.424.296.72.688.888 1.176V8.87h1.38v8.88h-1.38v-1.536c-.168.488-.464.88-.888 1.176s-.936.444-1.536.444a2.93 2.93 0 01-1.542-.408 2.785 2.785 0 01-1.063-1.176c-.256-.512-.383-1.116-.383-1.812 0-.688.127-1.288.383-1.8s.61-.904 1.063-1.176a2.93 2.93 0 011.542-.408c.6 0 1.112.148 1.536.444zm-2.575 1.338c-.364.388-.546.922-.546 1.602s.182 1.214.546 1.602.85.582 1.458.582c.384 0 .728-.09 1.032-.27.304-.18.544-.434.72-.762.176-.328.265-.712.265-1.152 0-.432-.089-.814-.265-1.146s-.416-.588-.72-.768a1.99 1.99 0 00-1.032-.27c-.608 0-1.093.194-1.458.582z"></path>
  </g>
</svg>
