<svg xmlns="http://www.w3.org/2000/svg" width="191.146" height="90.989" viewBox="0 0 192 91">
  <path d="M152.071 2c1.103 0 2 .897 2 1.999V69a2.002 2.002 0 01-2 1.999h-113c-1.103 0-2-.897-2-1.999V3.999c0-1.102.897-1.999 2-1.999h113m0-2h-113a4 4 0 00-4 3.999V69a4 4 0 004 3.999h113a4 4 0 004-3.999V3.999a4 4 0 00-4-3.999z"></path>
  <path d="M147.583 8v57H42.417V8h105.166m2-2H40.417v61h109.167V6h-.001zM117.583 86.833v2.155h-45v-2.155h45m2-2h-49v6.155h49v-6.155zM183.146 10.833v19h-27v-19h27m2-2h-31v23h31v-23zM174.146 36.833v20h-18v-20h18m2-2h-22v24h22v-24zM189.146 36.833v20h-8v-20h8m2-2h-12v24h12v-24zM35 10.833v19H8v-19h27m2-2H6v23h31v-23zM35 36.833v20H17v-20h18m2-2H15v24h22v-24zM10 36.833v20H2v-20h8m2-2H0v24h12v-24z"></path>
  <path d="M80.667 71.833h2V85.5h-2zM107.667 71.833h2V85.5h-2z"></path>
</svg>
