<svg xmlns="http://www.w3.org/2000/svg" width="190" height="130" viewBox="0 0 190 130">
  <path d="M16 10v6h-6v-6h6m2-2H8v10h10V8zM172 8h10v2h-10zM172 11h10v2h-10zM172 14h10v2h-10z"></path>
  <path d="M0 0v130h190V0H0zm2 26h67v77H2V26zm0 102v-23h69V24H2V2h91v126H2zm186 0H95V2h93v126z"></path>
  <path d="M122 26v19h-19V26h19m2-2h-23v23h23V24zM151 26v19h-19V26h19m2-2h-23v23h23V24zM180 26v19h-19V26h19m2-2h-23v23h23V24zM122 55v19h-19V55h19m2-2h-23v23h23V53zM151 55v19h-19V55h19m2-2h-23v23h23V53zM180 55v19h-19V55h19m2-2h-23v23h23V53zM122 84v19h-19V84h19m2-2h-23v23h23V82zM151 84v19h-19V84h19m2-2h-23v23h23V82zM180 84v19h-19V84h19m2-2h-23v23h23V82z"></path>
</svg>