<svg xmlns="http://www.w3.org/2000/svg" width="190" height="130" viewBox="0 0 190 130">
  <path d="M188 2v126H2V2h186m2-2H0v130h190V0z"></path>
  <path d="M173.969 40h4v4h-4zM173.969 52h4v4h-4zM173.969 64h4v4h-4zM173.969 76h4v4h-4zM94 0h2v130h-2zM44.007 116.276l-5.657-5.657 1.414-1.414 5.657 5.657z"></path>
  <path d="M42.579 114.86l5.656-5.656 1.415 1.414-5.657 5.657zM140.992 16.079l5.657 5.656-1.414 1.415-5.657-5.657z"></path>
  <path d="M142.422 17.492l-5.657 5.657-1.414-1.414 5.657-5.657z"></path>
</svg>
