<svg xmlns="http://www.w3.org/2000/svg" width="190.012" height="130" viewBox="0 0 190 130">
  <path d="M188 2v126H2V2h186m2-2H0v130h190V0z"></path>
  <path d="M.012 42.675h190v2h-190zM19.679 20.675h53v2h-53zM19.679 106.675h53v2h-53zM19.679 64.675h35v2h-35zM.012 85.675h190v2h-190zM162.012 64.05h9.917v2h-9.917z"></path>
  <path d="M165.97 60.091h2v9.917h-2zM162.012 22.05h9.917v2h-9.917z"></path>
  <path d="M165.97 18.091h2v9.917h-2zM162.012 107.05h9.917v2h-9.917z"></path>
  <path d="M165.97 103.091h2v9.917h-2z"></path>
</svg>
