<svg xmlns="http://www.w3.org/2000/svg" width="190" height="129.984" viewBox="0 0 190 130">
  <path d="M14 59.081c6.617 0 12 5.383 12 12s-5.383 12-12 12-12-5.383-12-12 5.383-12 12-12m0-2c-7.732 0-14 6.268-14 14s6.268 14 14 14 14-6.268 14-14-6.268-14-14-14z"></path>
  <path d="M11.22 69.69l4.95 4.95-1.415 1.413-4.95-4.95z"></path>
  <path d="M9.804 71.056l4.95-4.95 1.414 1.415-4.95 4.95zM176 59.081c6.617 0 12 5.383 12 12s-5.383 12-12 12-12-5.383-12-12 5.383-12 12-12m0-2c-7.732 0-14 6.268-14 14s6.268 14 14 14 14-6.268 14-14-6.268-14-14-14z"></path>
  <path d="M180.197 71.104l-4.95 4.95-1.414-1.414 4.95-4.95z"></path>
  <path d="M178.781 72.473l-4.95-4.95 1.415-1.414 4.95 4.95zM145.167 28v86.833H45V28h100.167m2-2H43v90.833h104.167V26z"></path>
  <path d="M157 114.833V28h33v-2h-35v90.833h35v-2zM35.167 26H0v2h33.167v86.833H0v2h35.167z"></path>
  <path d="M22 2h146.75v25h2V0H20v27h2zm146.75 125.984H22V116h-2v13.984h150.75V116h-2z"></path>
  <path d="M21 14h149.75v2H21zm4.917-7.958h4v4h-4zm8 0h4v4h-4zm8 0h4v4h-4z"></path>
</svg>
