<svg xmlns="http://www.w3.org/2000/svg" width="190" height="130" viewBox="0 0 190 130">
  <path d="M188 2v126H2V2h186m2-2H0v130h190V0z"></path>
  <path d="M98 10v6h-6v-6h6m2-2H90v10h10V8zM66 23h10v2H66zM8 113h84v2H8zM8 119h84v2H8zM98 113h84v2H98zM98 119h54v2H98zM82 23h10v2H82zM98 23h10v2H98zM114 23h10v2h-10zM90 34v69H10V34h80m2-2H8v73h84V32zM135 34v29h-35V34h35m2-2H98v33h39V32zM180 34v29h-35V34h35m2-2h-39v33h39V32zM135 74v29h-35V74h35m2-2H98v33h39V72zM180 74v29h-35V74h35m2-2h-39v33h39V72z"></path>
</svg>