<svg xmlns="http://www.w3.org/2000/svg" width="189.976" height="78.99" viewBox="0 0 190 79">
  <path d="M0 5.854h92.958v2H0zM0 12.854h92.958v2H0zM0 19.854h92.958v2H0zM0 26.854h92.958v2H0zM0 33.854h92.958v2H0zM0 40.854h92.958v2H0zM0 47.854h42.875v2H0zM113 76.99V2h76.976V0H111v78.99h78.976v-2zM5.938 68c2.171 0 3.938 1.766 3.938 3.938s-1.766 3.938-3.938 3.938S2 74.109 2 71.938 3.766 68 5.938 68m0-2C2.658 66 0 68.658 0 71.938s2.658 5.938 5.938 5.938 5.938-2.658 5.938-5.938S9.217 66 5.938 66zM20.938 68c2.171 0 3.938 1.766 3.938 3.938s-1.766 3.938-3.938 3.938S17 74.109 17 71.938 18.766 68 20.938 68m0-2C17.658 66 15 68.658 15 71.938s2.658 5.938 5.938 5.938 5.938-2.658 5.938-5.938S24.217 66 20.938 66zM35.938 68c2.171 0 3.938 1.766 3.938 3.938s-1.766 3.938-3.938 3.938S32 74.109 32 71.938 33.766 68 35.938 68m0-2C32.658 66 30 68.658 30 71.938s2.658 5.938 5.938 5.938 5.938-2.658 5.938-5.938S39.217 66 35.938 66z"></path>
</svg>
