<svg xmlns="http://www.w3.org/2000/svg" width="190" height="130" viewBox="0 0 190 130">
  <path d="M16 10v6h-6v-6h6m2-2H8v10h10V8zM172 8h10v2h-10zM172 11h10v2h-10zM172 14h10v2h-10zM99 82h50v2H99zM99 88h50v2H99zM99 94h50v2H99zM99 100h33v2H99zM99 110h50v2H99zM99 116h50v2H99zM99 122h33v2H99zM91 83v17H47V83h44m2-2H45v21h48V81z"></path>
  <path d="M0 0v130h190V0H0zm47 128v-17h44v17H47zm141 0H93v-19H45v19H2V2h186v126z"></path>
  <path d="M146 15v56H47V15h99m2-2H45v60h103V13z"></path>
  <path d="M52.399 41.61l4.95 4.95-1.415 1.413-4.95-4.95z"></path>
  <path d="M50.984 42.976l4.95-4.95 1.414 1.414-4.95 4.95zM140.935 44.391l-4.95-4.95 1.414-1.413 4.95 4.95z"></path>
  <path d="M142.35 43.023l-4.95 4.95-1.414-1.414 4.95-4.95z"></path>
</svg>