<svg xmlns="http://www.w3.org/2000/svg" width="190.321" height="129.667" viewBox="0 0 191 130">
  <path d="M86.667 2v84.667H2V2h84.667m2-2H0v88.667h88.667V0zM187.667 2v84.667H103V2h84.667m2-2H101v88.667h88.667V0zM.655 113.667h189.667v2H.655zM.655 120.667h181.22v2H.655zM.655 127.667H171v2H.655z"></path>
  <path d="M50.683 60.133H35.924l-1.8 4.859h-7.56l16.739-43.198 16.799 43.198h-7.56l-1.859-4.859zm-12.479-6.061h10.2l-5.1-14.579-5.1 14.579zM162.214 58.211c10.676-12.628 21.9-29.892 21.9-38.493 0-.915-.122-1.77-.366-2.44-.244-.61-.915-.854-1.708-.854-1.464 0-3.416.732-3.782.977 1.037-.793 4.026-2.929 6.161-2.989 2.074-.062 3.722.976 4.148 2.257.306.854.488 1.83.488 2.867 0 9.822-13.604 28.123-25.866 41.179-8.662 9.333-16.41 15.373-19.155 15.8-3.66.549-4.819-1.952-4.819-4.148 0-10.371 10.92-28.794 15.495-35.321-7.503 5.063-39.104 34.589-39.104 40.019 0 .184.427.244.671.244s.549-.061.793-.183c.061 0-.549 1.098-1.769 1.098-1.159 0-2.624-1.22-2.624-2.196 0-7.747 26.599-46.485 26.599-53.867 0-2.867-2.807-3.477-5.308-3.477-15.251 0-38.433 25.378-38.433 29.16 0 .793.183 1.281 1.647 1.281 1.22 0 1.891-.488 1.891-.244 0 .365-2.623 1.83-4.087 1.83-2.746 0-3.722-2.44-3.722-3.782 0-9.639 27.391-29.832 41.789-29.832 5.124 0 9.639 2.38 9.639 7.565 0 10.98-15.129 32.332-20.254 40.812 10.493-13.421 35.383-36.236 38.067-36.236 1.708 0 5.368 2.562 5.551 4.087-.609-.549-1.342-.427-1.646-.427-3.538 0-25.744 42.154-20.864 41.544 3.355-.431 10.675-6.775 18.668-16.231z"></path>
</svg>
