<svg xmlns="http://www.w3.org/2000/svg" width="190" height="130" viewBox="0 0 190 130">
  <path d="M188 2v126H2V2h186m2-2H0v130h190V0z"></path>
  <path d="M16 10v6h-6v-6h6m2-2H8v10h10V8zM172 8h10v2h-10zM20 59h41v2H20zM20 53h41v2H20zM20 65h26v2H20zM25 105h35v2H25zM25 111h26v2H25zM81 105h35v2H81zM133 105h35v2h-35zM81 111h26v2H81zM133 111h26v2h-26zM172 11h10v2h-10zM172 14h10v2h-10zM17 105h4v4h-4zM73 105h4v4h-4zM125 105h4v4h-4z"></path>
  <path d="M8 22v100h174V22H8zm172 74H75V24h105v72zM73 24v72H10V24h63zm-63 96V98h170v22H10z"></path>
</svg>