<svg xmlns="http://www.w3.org/2000/svg" width="190" height="130" viewBox="0 0 190 130">
  <g>
    <rect class="element-filled" fill="#fafafa" x="0" y="0" width="100%" height="100%"></rect>
    <path d="M16 10v6h-6v-6h6m2-2H8v10h10V8zM172 8h10v2h-10zM172 11h10v2h-10zM172 14h10v2h-10z"></path>
    <path d="M0 0v130h190V0H0zm25 128v-25h39v25H25zm50 0v-25h39v25H75zm50 0v-25h39v25h-39zm63 0h-22v-27h-43v27h-7v-27H73v27h-7v-27H23v27H2V86h186v42zM2 84V2h186v82H2z"></path>
    <path d="M94.667 25c10.569 0 19.167 8.598 19.167 19.167s-8.598 19.167-19.167 19.167S75.5 54.735 75.5 44.167 84.098 25 94.667 25m0-2C82.977 23 73.5 32.477 73.5 44.167c0 11.69 9.477 21.167 21.167 21.167 11.69 0 21.167-9.477 21.167-21.167C115.833 32.477 106.357 23 94.667 23z"></path>
    <path d="M90 34.272V53.91l15.71-9.819L90 34.272zm12.259 9.819L92 50.491V37.692l10.259 6.399z"></path>
  </g>
</svg>