<svg width="298" height="261" viewBox="0 0 298 261" fill="none" xmlns="http://www.w3.org/2000/svg">
  <g clip-path="url(#clip0_752_3895)">
    <path d="M149 259.939C231.29 259.939 298 205.666 298 138.718C298 71.7688 231.29 17.4961 149 17.4961C66.7096 17.4961 0 71.7688 0 138.718C0 205.666 66.7096 259.939 149 259.939Z" fill="black"/>
    <path d="M263.403 155.321C264.614 151.534 278.293 152.532 293.965 157.552C294.678 157.777 295.372 158.012 296.065 158.256C297.316 151.926 298 145.429 298 138.804C298 125.468 295.342 112.631 290.457 100.625C288.982 101.603 287.458 102.562 285.855 103.492C270.652 112.278 255.782 114.989 252.636 109.529C249.49 104.079 259.27 92.533 274.463 83.7366C276.29 82.6799 278.107 81.721 279.905 80.8404C278.137 78.1985 276.261 75.6056 274.258 73.091C283.383 65.5177 289.207 54.0795 289.207 41.2812C289.207 18.4831 270.75 0 247.985 0C229.949 0 214.628 11.6045 209.04 27.7589C200.578 24.7257 191.687 22.3382 182.483 20.6162C182.454 24.2756 182.229 28.2873 181.76 32.4849C179.933 48.8545 175.253 61.7702 171.306 61.3299C167.359 60.8896 165.649 47.2596 167.476 30.89C167.965 26.5065 168.668 22.3774 169.498 18.6788C165.268 18.1994 160.988 17.8373 156.66 17.6612C158.214 23.1014 159.142 29.9702 159.142 37.4555C159.142 55.0286 154.042 69.2848 147.759 69.2848C141.477 69.2848 136.377 55.0384 136.377 37.4555C136.377 30.0289 137.295 23.2189 138.819 17.7982C134.149 18.0526 129.547 18.5027 125.004 19.0995C125.795 22.6905 126.45 26.663 126.919 30.8802C128.746 47.2498 127.026 60.8798 123.089 61.3201C119.141 61.7604 114.461 48.8447 112.634 32.4751C112.195 28.5515 111.97 24.7942 111.921 21.3206C101.682 23.4635 91.8426 26.4282 82.5802 30.1953C76.9426 14.0898 61.642 2.51464 43.635 2.51464C20.8698 2.51464 2.41331 20.9978 2.41331 43.7959C2.41331 57.8857 9.46761 70.3121 20.2151 77.7582C17.7432 81.2122 15.5351 84.8031 13.4833 88.4626C15.4081 89.1671 17.3622 89.9498 19.3358 90.8402C35.3594 98.0221 46.2535 108.511 43.6839 114.255C41.1142 119.998 26.0481 118.834 10.0245 111.652C8.13882 110.811 6.33128 109.91 4.6019 108.991C1.64144 118.531 0 128.501 0 138.785C0 146.681 0.957508 154.391 2.72597 161.867C3.9082 161.446 5.10997 161.035 6.34105 160.644C22.0129 155.624 35.6916 154.626 36.9031 158.413C38.1147 162.199 26.3901 169.332 10.7182 174.352C9.44807 174.763 8.19744 175.125 6.95659 175.487C7.89456 177.894 8.94 180.252 10.0538 182.59C10.601 182.336 11.1384 182.072 11.6855 181.817C26.6441 174.968 40.1176 172.356 41.7689 175.966C43.4201 179.577 32.6237 188.06 17.665 194.909C17.4696 194.997 17.2742 195.076 17.0788 195.173C42.0131 233.764 91.7156 260.094 149 260.094C206.284 260.094 258.752 232.296 282.953 191.945C282.846 191.896 282.748 191.856 282.651 191.808C267.692 184.958 256.896 176.485 258.547 172.865C260.198 169.244 273.662 171.867 288.63 178.716C288.933 178.853 289.226 178.999 289.539 179.146C290.545 176.827 291.454 174.469 292.294 172.082C291.405 171.818 290.516 171.544 289.607 171.26C273.935 166.24 262.22 159.107 263.422 155.321H263.403Z" fill="#E17B2D"/>
    <path d="M114.598 130.235C118.602 130.235 121.848 126.985 121.848 122.975C121.848 118.965 118.602 115.715 114.598 115.715C110.594 115.715 107.349 118.965 107.349 122.975C107.349 126.985 110.594 130.235 114.598 130.235Z" fill="black"/>
    <path d="M180.431 130.235C184.435 130.235 187.681 126.985 187.681 122.975C187.681 118.965 184.435 115.715 180.431 115.715C176.427 115.715 173.182 118.965 173.182 122.975C173.182 126.985 176.427 130.235 180.431 130.235Z" fill="black"/>
    <path d="M164.165 200.185C135.85 205.185 94.667 194.236 94.667 160.322C94.667 150.303 102.777 142.182 112.781 142.182H186.119C196.124 142.182 204.233 150.303 204.233 160.322C204.233 179.843 187.829 193.854 170.261 198.805C168.317 199.353 166.285 199.813 164.174 200.185H164.165Z" fill="#EAC68C"/>
    <path d="M165.981 142.182C165.981 142.182 165.971 134.511 151.755 135.167C149.987 135.245 148.208 135.245 146.44 135.167C132.224 134.511 132.214 142.182 132.214 142.182C130.866 152.084 143.274 154.364 148.14 154.883L149.097 154.971C153.963 154.462 167.329 152.084 165.981 142.182Z" fill="black"/>
    <path d="M122.962 170.38C122.962 170.38 138.849 177.357 149.166 166.192V150.557" stroke="black" stroke-width="2.58382" stroke-linecap="round" stroke-linejoin="round"/>
    <path d="M175.302 170.38C175.302 170.38 159.415 177.357 149.098 166.192V150.557" stroke="black" stroke-width="2.58382" stroke-linecap="round" stroke-linejoin="round"/>
    <path d="M108.843 161.868C110.349 161.868 111.569 160.646 111.569 159.138C111.569 157.63 110.349 156.408 108.843 156.408C107.338 156.408 106.117 157.63 106.117 159.138C106.117 160.646 107.338 161.868 108.843 161.868Z" fill="black"/>
    <path d="M115.262 170.919C116.768 170.919 117.988 169.697 117.988 168.189C117.988 166.681 116.768 165.459 115.262 165.459C113.757 165.459 112.536 166.681 112.536 168.189C112.536 169.697 113.757 170.919 115.262 170.919Z" fill="black"/>
    <path d="M120.353 161.868C121.858 161.868 123.079 160.646 123.079 159.138C123.079 157.63 121.858 156.408 120.353 156.408C118.847 156.408 117.627 157.63 117.627 159.138C117.627 160.646 118.847 161.868 120.353 161.868Z" fill="black"/>
    <path d="M178.008 161.868C179.514 161.868 180.734 160.646 180.734 159.138C180.734 157.63 179.514 156.408 178.008 156.408C176.503 156.408 175.282 157.63 175.282 159.138C175.282 160.646 176.503 161.868 178.008 161.868Z" fill="black"/>
    <path d="M184.428 170.919C185.934 170.919 187.154 169.697 187.154 168.189C187.154 166.681 185.934 165.459 184.428 165.459C182.923 165.459 181.702 166.681 181.702 168.189C181.702 169.697 182.923 170.919 184.428 170.919Z" fill="black"/>
    <path d="M189.519 161.868C191.024 161.868 192.245 160.646 192.245 159.138C192.245 157.63 191.024 156.408 189.519 156.408C188.013 156.408 186.793 157.63 186.793 159.138C186.793 160.646 188.013 161.868 189.519 161.868Z" fill="black"/>
    <path d="M63.2535 39.5707C63.2535 39.5707 48.6173 44.6 35.2317 61.7622C35.2317 61.7622 18.3874 50.4317 23.5169 35.1677C26.2917 26.8997 34.2449 21.2833 42.9602 21.2638C50.288 21.2442 59.0424 24.7275 63.2437 39.561L63.2535 39.5707Z" fill="#381A0D"/>
    <path d="M227.896 36.3891C227.896 36.3891 242.533 41.4184 255.918 58.5806C255.918 58.5806 272.763 47.25 267.633 31.986C264.858 23.718 256.905 18.1017 248.19 18.0821C240.862 18.0625 232.108 21.5459 227.906 36.3793L227.896 36.3891Z" fill="#381A0D"/>
  </g>
  <defs>
    <clipPath id="clip0_752_3895">
      <rect width="298" height="260.104" fill="white"/>
    </clipPath>
  </defs>
</svg>